<?xml version="1.0" encoding="utf-8"?>
<!-- Generator: Adobe Illustrator 18.1.1, SVG Export Plug-In . SVG Version: 6.00 Build 0)  -->
<svg version="1.1" id="Layer_1" xmlns="http://www.w3.org/2000/svg" xmlns:xlink="http://www.w3.org/1999/xlink" x="0px" y="0px"
	 viewBox="0 0 64 64" enable-background="new 0 0 64 64" xml:space="preserve">
<path fill="#696773" fill-rule="evenodd" clip-rule="evenodd" d="M32,64C14.3,64,0,49.7,0,32C0,14.3,14.3,0,32,0s32,14.3,32,32
	C64,49.7,49.7,64,32,64 M32,6C17.6,6,6,17.6,6,32c0,14.4,11.6,26,26,26s26-11.6,26-26C58,17.6,46.4,6,32,6 M25,38l-9-22l23,9l9,23
	L25,38z M32,29c-1.7,0-3,1.3-3,3c0,1.7,1.3,3,3,3s3-1.3,3-3C35,30.3,33.7,29,32,29"/>
</svg>
