<?xml version="1.0" encoding="utf-8"?>
<!-- Generator: Adobe Illustrator 18.1.1, SVG Export Plug-In . SVG Version: 6.00 Build 0)  -->
<svg version="1.1" id="Слой_1" xmlns="http://www.w3.org/2000/svg" xmlns:xlink="http://www.w3.org/1999/xlink" x="0px" y="0px"
	 viewBox="0 0 100 80" enable-background="new 0 0 100 80" xml:space="preserve">
<g>
	<g>
		<path fill="#FFFFFF" d="M0.7,62.6l-0.8-0.3v-0.8L2,61.2h0l0.3,0.2v5.6c0,0.4,0,0.8,0.1,1.1c0,0.3,0.1,0.6,0.2,0.7
			c0.1,0.2,0.3,0.3,0.5,0.4c0.2,0.1,0.4,0.1,0.7,0.1c0.2,0,0.4,0,0.6-0.1c0.2-0.1,0.4-0.1,0.5-0.2c0.2-0.1,0.3-0.2,0.4-0.2
			c0.1-0.1,0.2-0.2,0.3-0.2v-6.1l-1-0.3v-0.8l2.3-0.2h0l0.4,0.2v8.1h0.9v0.8c-0.2,0.1-0.4,0.1-0.6,0.2c-0.2,0.1-0.5,0.1-0.8,0.1
			c-0.3,0-0.5-0.1-0.7-0.2c-0.2-0.1-0.2-0.4-0.2-0.7v-0.3c-0.1,0.1-0.3,0.3-0.5,0.4C5.2,70,5,70.2,4.8,70.3
			c-0.2,0.1-0.5,0.2-0.7,0.3c-0.3,0.1-0.5,0.1-0.8,0.1c-0.5,0-0.8-0.1-1.2-0.2c-0.3-0.1-0.6-0.3-0.8-0.6c-0.2-0.3-0.4-0.6-0.5-1.1
			c-0.1-0.4-0.2-1-0.2-1.6V62.6z"/>
		<path fill="#FFFFFF" d="M9.4,69.6l1-0.1v-6.6l-1-0.4v-1l2.1-0.3h0l0.4,0.3v0.6l0,0.3c0.2-0.2,0.4-0.3,0.6-0.5
			c0.2-0.2,0.5-0.3,0.8-0.4c0.3-0.1,0.5-0.2,0.8-0.3c0.3-0.1,0.6-0.1,0.8-0.1c0.5,0,0.9,0.1,1.2,0.2c0.3,0.1,0.6,0.4,0.7,0.7
			c0.2,0.3,0.3,0.7,0.4,1.2c0.1,0.5,0.1,1,0.1,1.7v4.5l1.1,0.1v0.9h-3.7v-0.9l1-0.1V65c0-0.4,0-0.8-0.1-1.1c0-0.3-0.1-0.6-0.2-0.8
			c-0.1-0.2-0.3-0.4-0.5-0.5c-0.2-0.1-0.5-0.2-0.8-0.2c-0.2,0-0.4,0-0.6,0.1c-0.2,0-0.4,0.1-0.6,0.2c-0.2,0.1-0.4,0.1-0.5,0.2
			c-0.2,0.1-0.3,0.2-0.5,0.3v6.3l1,0.1v0.9H9.4V69.6z"/>
		<path fill="#FFFFFF" d="M19.6,69.6l1.2-0.1v-6.6l-1-0.4v-1l2.3-0.3h0l0.4,0.3v7.9l1.2,0.1v0.9h-4.1V69.6z M21,59.6
			c-0.1-0.1-0.2-0.1-0.3-0.2c-0.1-0.1-0.1-0.2-0.2-0.4c0-0.1-0.1-0.3-0.1-0.4c0-0.2,0-0.3,0.1-0.5c0-0.2,0.1-0.3,0.2-0.4
			c0.1-0.1,0.2-0.2,0.3-0.3c0.1-0.1,0.3-0.1,0.5-0.1h0c0.2,0,0.3,0,0.4,0.1c0.1,0.1,0.2,0.1,0.3,0.3c0.1,0.1,0.1,0.2,0.2,0.4
			c0,0.1,0.1,0.3,0.1,0.4c0,0.2,0,0.3-0.1,0.5c0,0.2-0.1,0.3-0.2,0.4c-0.1,0.1-0.2,0.2-0.4,0.3c-0.1,0.1-0.3,0.1-0.5,0.1h0
			C21.2,59.7,21.1,59.7,21,59.6z"/>
		<path fill="#FFFFFF" d="M26,62.6H25v-0.7c0.2-0.1,0.3-0.1,0.5-0.2c0.1-0.1,0.3-0.1,0.3-0.2c0.2-0.1,0.3-0.3,0.4-0.6
			c0-0.1,0.1-0.2,0.1-0.4c0.1-0.2,0.1-0.3,0.2-0.5c0.1-0.2,0.1-0.3,0.2-0.5c0-0.1,0.1-0.3,0.1-0.4h0.9v2.2h2.5v1.2h-2.5v4.8
			c0,0.5,0,0.8,0,1.1c0,0.3,0,0.5,0.1,0.6c0.1,0.1,0.1,0.2,0.3,0.2c0.1,0,0.3,0,0.5,0h0c0.1,0,0.3,0,0.4,0c0.2,0,0.3,0,0.5-0.1
			c0.1,0,0.3-0.1,0.4-0.1c0.1,0,0.2-0.1,0.3-0.1h0l0.3,0.8c-0.1,0.1-0.3,0.2-0.5,0.3c-0.2,0.1-0.4,0.2-0.7,0.3
			c-0.2,0.1-0.5,0.2-0.8,0.2c-0.3,0.1-0.5,0.1-0.7,0.1h0c-0.3,0-0.5,0-0.7-0.1c-0.2-0.1-0.4-0.2-0.5-0.3c-0.1-0.1-0.3-0.3-0.3-0.6
			c-0.1-0.2-0.1-0.5-0.1-0.9V62.6z"/>
		<path fill="#FFFFFF" d="M31.6,69.6l1.2-0.1v-6.6l-1-0.4v-1l2.1-0.3h0l0.3,0.3V62l0,1h0c0,0,0.1-0.1,0.1-0.2
			c0.1-0.1,0.2-0.2,0.3-0.4c0.1-0.1,0.3-0.3,0.4-0.4c0.2-0.1,0.3-0.3,0.5-0.4c0.2-0.1,0.4-0.2,0.6-0.3c0.2-0.1,0.5-0.1,0.7-0.1
			c0.1,0,0.2,0,0.3,0c0.1,0,0.1,0,0.2,0.1v2c0,0-0.1,0-0.1-0.1c-0.1,0-0.1,0-0.2-0.1s-0.2,0-0.3,0c-0.1,0-0.2,0-0.3,0
			c-0.3,0-0.5,0-0.7,0c-0.2,0-0.4,0.1-0.6,0.1c-0.2,0.1-0.3,0.1-0.5,0.2c-0.1,0.1-0.3,0.2-0.4,0.2v5.8l2,0.2v0.9h-4.8V69.6z"/>
		<path fill="#FFFFFF" d="M38.7,68.1c0-0.4,0.1-0.7,0.2-1c0.1-0.3,0.3-0.6,0.5-0.8c0.2-0.2,0.5-0.4,0.8-0.6c0.3-0.2,0.6-0.3,1-0.4
			c0.4-0.1,0.7-0.2,1.1-0.2c0.4,0,0.8-0.1,1.2-0.1v-0.4c0-0.4,0-0.7-0.1-0.9c0-0.3-0.1-0.5-0.3-0.6c-0.1-0.2-0.3-0.3-0.5-0.4
			c-0.2-0.1-0.5-0.1-0.8-0.1c-0.3,0-0.5,0-0.8,0.1c-0.3,0.1-0.5,0.1-0.8,0.2c-0.2,0.1-0.5,0.2-0.7,0.2c-0.2,0.1-0.4,0.2-0.5,0.2h0
			l-0.3-0.8c0.1-0.1,0.3-0.2,0.5-0.4c0.2-0.1,0.5-0.3,0.8-0.4c0.3-0.1,0.7-0.3,1-0.4c0.4-0.1,0.7-0.2,1.1-0.2c0.5,0,0.9,0.1,1.3,0.2
			c0.4,0.1,0.6,0.3,0.9,0.5c0.2,0.3,0.4,0.6,0.5,1c0.1,0.4,0.1,0.9,0.1,1.5v5.2h0.9v0.8c-0.1,0-0.2,0.1-0.3,0.1
			c-0.1,0-0.3,0.1-0.4,0.1c-0.1,0-0.3,0.1-0.4,0.1c-0.1,0-0.3,0-0.4,0c-0.1,0-0.3,0-0.4,0c-0.1,0-0.2,0-0.2-0.1
			c-0.1-0.1-0.1-0.1-0.1-0.3c0-0.1,0-0.3,0-0.5v-0.3c-0.1,0.1-0.2,0.2-0.3,0.3c-0.1,0.1-0.3,0.2-0.5,0.4c-0.2,0.1-0.5,0.2-0.7,0.3
			c-0.3,0.1-0.6,0.1-0.9,0.1c-0.3,0-0.7,0-1-0.1c-0.3-0.1-0.6-0.3-0.8-0.5c-0.2-0.2-0.4-0.5-0.6-0.8C38.8,69,38.7,68.6,38.7,68.1z
			 M40.5,67.9c0,0.3,0,0.5,0.1,0.7c0.1,0.2,0.2,0.4,0.3,0.5c0.1,0.1,0.3,0.2,0.4,0.3c0.2,0.1,0.4,0.1,0.6,0.1c0.1,0,0.2,0,0.4,0
			c0.1,0,0.3-0.1,0.4-0.1c0.2-0.1,0.3-0.1,0.5-0.2c0.1-0.1,0.3-0.2,0.4-0.3v-2.9c-0.6,0-1.1,0.1-1.5,0.2c-0.4,0.1-0.7,0.3-0.9,0.4
			c-0.2,0.2-0.4,0.4-0.5,0.6C40.6,67.4,40.5,67.6,40.5,67.9z"/>
		<path fill="#FFFFFF" d="M47.5,62.5l-0.7-0.2v-0.9h3.7v0.9l-1.2,0.2l1.4,4.4l0.7,2.2L52,67l1.4-4.5l-1-0.2v-0.9h3.1v0.9l-0.7,0.2
			l-2.9,8.1h-1.4L47.5,62.5z"/>
		<path fill="#FFFFFF" d="M56.4,65.9c0-0.7,0.1-1.4,0.3-1.9c0.2-0.6,0.5-1.1,0.8-1.5c0.4-0.4,0.8-0.7,1.2-1c0.5-0.2,1-0.3,1.6-0.3
			c0.9,0,1.6,0.3,2.2,0.8c0.5,0.5,0.8,1.4,0.8,2.4c0,0.3,0,0.6,0,0.9c0,0.3,0,0.5-0.1,0.7h-5.1v0c0,0.6,0.1,1.1,0.2,1.6
			c0.1,0.4,0.3,0.8,0.6,1.1c0.2,0.3,0.5,0.5,0.8,0.6c0.3,0.1,0.6,0.2,0.9,0.2c0.2,0,0.4,0,0.6-0.1c0.2,0,0.4-0.1,0.6-0.2
			c0.2-0.1,0.4-0.1,0.5-0.2c0.2-0.1,0.3-0.2,0.4-0.3l0.3,0.8c-0.1,0.2-0.3,0.3-0.5,0.4c-0.2,0.1-0.5,0.3-0.7,0.4
			c-0.3,0.1-0.6,0.2-0.9,0.3c-0.3,0.1-0.6,0.1-0.9,0.1c-0.6,0-1.2-0.1-1.6-0.4c-0.5-0.2-0.9-0.6-1.2-1c-0.3-0.4-0.5-0.9-0.7-1.5
			C56.5,67.3,56.4,66.6,56.4,65.9z M61.6,65.1c0-0.1,0-0.2,0-0.3c0-0.1,0-0.2,0-0.3c0-0.3,0-0.6-0.1-0.8c-0.1-0.3-0.2-0.5-0.3-0.7
			c-0.1-0.2-0.3-0.4-0.5-0.5c-0.2-0.1-0.5-0.2-0.8-0.2c-0.2,0-0.5,0-0.7,0.1c-0.2,0.1-0.4,0.3-0.6,0.5c-0.2,0.2-0.3,0.5-0.4,0.9
			c-0.1,0.4-0.2,0.8-0.2,1.4H61.6z"/>
		<path fill="#FFFFFF" d="M64.7,69.6l1.2-0.1V58.4l-1.2-0.1v-0.8l2.5-0.4h0l0.4,0.3v12.1l1.3,0.1v0.9h-4.1V69.6z"/>
		<path fill="#FFFFFF" d="M71,69.6c0-0.2,0-0.4,0.1-0.5c0.1-0.2,0.2-0.3,0.3-0.4c0.1-0.1,0.3-0.2,0.4-0.3c0.1-0.1,0.3-0.1,0.4-0.1
			c0.2,0,0.3,0,0.5,0.1c0.1,0.1,0.2,0.1,0.3,0.2c0.1,0.1,0.1,0.2,0.2,0.3c0,0.1,0.1,0.3,0.1,0.4c0,0.2,0,0.4-0.1,0.5
			c-0.1,0.2-0.2,0.3-0.3,0.4c-0.1,0.1-0.2,0.2-0.4,0.3c-0.2,0.1-0.3,0.1-0.5,0.1c-0.1,0-0.3,0-0.4-0.1c-0.1-0.1-0.2-0.1-0.3-0.2
			c-0.1-0.1-0.2-0.2-0.2-0.3C71.1,69.9,71,69.7,71,69.6z"/>
		<path fill="#FFFFFF" d="M76.4,73.4V62.9l-1-0.4v-1l2.1-0.3h0l0.3,0.3v0.9c0.1-0.1,0.3-0.3,0.4-0.4c0.2-0.1,0.4-0.3,0.6-0.4
			c0.2-0.1,0.4-0.2,0.7-0.3c0.3-0.1,0.5-0.1,0.8-0.1c0.4,0,0.8,0.1,1.2,0.3c0.4,0.2,0.7,0.4,1.1,0.8c0.3,0.4,0.6,0.8,0.7,1.4
			c0.2,0.6,0.3,1.2,0.3,2c0,0.7-0.1,1.3-0.3,2c-0.2,0.6-0.5,1.1-0.9,1.6c-0.4,0.5-0.8,0.8-1.3,1.1s-1.1,0.4-1.8,0.4
			c-0.1,0-0.2,0-0.4,0c-0.1,0-0.3,0-0.4,0c-0.1,0-0.2,0-0.4-0.1c-0.1,0-0.2,0-0.3-0.1l0,1.4v1.6l1.5,0.2v0.9h-4.3v-0.9L76.4,73.4z
			 M78.1,69.2c0,0.1,0.1,0.1,0.2,0.2c0.1,0.1,0.2,0.1,0.3,0.2c0.1,0.1,0.3,0.1,0.4,0.1c0.2,0,0.3,0,0.5,0c0.3,0,0.6-0.1,0.9-0.2
			c0.3-0.1,0.5-0.4,0.8-0.7c0.2-0.3,0.4-0.7,0.5-1.2c0.1-0.5,0.2-1.1,0.2-1.8c0-0.6,0-1.1-0.2-1.6c-0.1-0.4-0.3-0.8-0.5-1.1
			c-0.2-0.3-0.4-0.5-0.7-0.6c-0.3-0.1-0.6-0.2-0.9-0.2c-0.2,0-0.4,0-0.5,0.1c-0.2,0-0.3,0.1-0.5,0.2c-0.1,0.1-0.3,0.2-0.4,0.2
			c-0.1,0.1-0.2,0.2-0.3,0.3V69.2z"/>
		<path fill="#FFFFFF" d="M85.3,69.6l1.2-0.1v-6.6l-1-0.4v-1l2.1-0.3h0l0.3,0.3V62l0,1h0c0,0,0.1-0.1,0.1-0.2
			c0.1-0.1,0.2-0.2,0.3-0.4c0.1-0.1,0.3-0.3,0.4-0.4c0.2-0.1,0.3-0.3,0.5-0.4c0.2-0.1,0.4-0.2,0.6-0.3c0.2-0.1,0.5-0.1,0.7-0.1
			c0.1,0,0.2,0,0.3,0c0.1,0,0.1,0,0.2,0.1v2c0,0-0.1,0-0.1-0.1c-0.1,0-0.1,0-0.2-0.1c-0.1,0-0.2,0-0.3,0c-0.1,0-0.2,0-0.3,0
			c-0.3,0-0.5,0-0.7,0c-0.2,0-0.4,0.1-0.6,0.1c-0.2,0.1-0.3,0.1-0.5,0.2c-0.1,0.1-0.3,0.2-0.4,0.2v5.8l2,0.2v0.9h-4.8V69.6z"/>
		<path fill="#FFFFFF" d="M92.4,65.9c0-0.8,0.1-1.4,0.3-2c0.2-0.6,0.5-1.1,0.9-1.5c0.4-0.4,0.8-0.7,1.3-0.9c0.5-0.2,1-0.3,1.5-0.3
			c0.7,0,1.2,0.1,1.7,0.4c0.5,0.2,0.9,0.6,1.2,1c0.3,0.4,0.5,0.9,0.7,1.5c0.1,0.6,0.2,1.2,0.2,1.9c0,0.5-0.1,1-0.2,1.4
			c-0.1,0.4-0.2,0.8-0.4,1.2c-0.2,0.4-0.4,0.7-0.7,0.9c-0.3,0.3-0.5,0.5-0.8,0.7c-0.3,0.2-0.6,0.3-0.9,0.4c-0.3,0.1-0.7,0.1-1,0.1
			c-0.7,0-1.2-0.1-1.7-0.4c-0.5-0.2-0.9-0.6-1.2-1c-0.3-0.4-0.5-0.9-0.7-1.5C92.5,67.2,92.4,66.6,92.4,65.9z M96.3,69.7
			c0.7,0,1.2-0.3,1.5-0.9c0.3-0.6,0.5-1.5,0.5-2.7c0-0.5,0-1.1-0.1-1.5c-0.1-0.5-0.2-0.9-0.4-1.2c-0.2-0.4-0.4-0.6-0.6-0.8
			c-0.3-0.2-0.6-0.3-0.9-0.3c-0.7,0-1.2,0.3-1.6,0.9c-0.3,0.6-0.5,1.5-0.5,2.7c0,0.5,0,1.1,0.1,1.5c0.1,0.5,0.2,0.9,0.4,1.2
			c0.2,0.4,0.4,0.6,0.6,0.8C95.6,69.6,95.9,69.7,96.3,69.7z"/>
	</g>
	<g>
		<g>
			<path fill="#FFFFFF" d="M49.7,37.8c0,0-1.4,2.6-4,2.6c-2.2,0-4-1.8-4-4V15.5v-0.1H27.2v1.8H30c2.6,0,2.7,2.5,2.7,2.5v16.4
				c0,4.9,4,8.9,8.9,8.9c3.6,0,6.6-2.1,8-5.1l0,0V37.8z"/>
			<path fill="#FFFFFF" d="M71.8,39.4v-2.3c0,0-1.5,2.8-4.3,2.8c-2.4,0-4.2-1.8-4.2-4.2V19.2c0.2-0.7,0.7-2.1,2.7-2.1h2.8v-1.8h-5.5
				V5.1l-9.7,24.3v6c0,5.3,4.2,9.6,9.6,9.6C66.9,45,70.2,42.7,71.8,39.4L71.8,39.4z"/>
		</g>
		<path fill="#FFFFFF" d="M63.3,5C63.3,5,55,8,49,8v1.7h2.1c0,0,2.4,0.3,2.4,2.5v17.3L63.3,5z"/>
	</g>
</g>
</svg>
