<?xml version="1.0" encoding="utf-8"?>
<!-- Generator: Adobe Illustrator 18.1.1, SVG Export Plug-In . SVG Version: 6.00 Build 0)  -->
<svg version="1.1" id="Слой_1" xmlns="http://www.w3.org/2000/svg" xmlns:xlink="http://www.w3.org/1999/xlink" x="0px" y="0px"
	 viewBox="0 0 99.4 69.5" enable-background="new 0 0 99.4 69.5" xml:space="preserve">
<path fill="#FFFFFF" d="M0.9,56.4L0,56.1v-0.8L2.3,55h0l0.4,0.2v6c0,0.5,0,0.9,0.1,1.2c0,0.3,0.1,0.6,0.2,0.8
	c0.1,0.2,0.3,0.4,0.5,0.4c0.2,0.1,0.5,0.1,0.8,0.1c0.2,0,0.4,0,0.6-0.1c0.2-0.1,0.4-0.1,0.6-0.2c0.2-0.1,0.3-0.2,0.5-0.2
	C6,63.1,6.1,63.1,6.2,63v-6.5l-1.1-0.4v-0.8L7.5,55h0L8,55.2v8.7h0.9v0.8c-0.2,0.1-0.4,0.1-0.6,0.2C8,65,7.7,65.1,7.4,65.1
	c-0.3,0-0.6-0.1-0.8-0.2c-0.2-0.1-0.3-0.4-0.3-0.7v-0.3c-0.1,0.1-0.3,0.3-0.5,0.4c-0.2,0.2-0.4,0.3-0.7,0.4
	c-0.2,0.1-0.5,0.2-0.8,0.3c-0.3,0.1-0.5,0.1-0.8,0.1c-0.5,0-0.9-0.1-1.3-0.2c-0.3-0.1-0.6-0.4-0.9-0.7C1.3,63.9,1.1,63.5,1,63
	c-0.1-0.5-0.2-1.1-0.2-1.7V56.4z"/>
<path fill="#FFFFFF" d="M10.1,63.9l1-0.1v-7.1l-1.1-0.4v-1l2.2-0.3h0l0.4,0.3V56l0,0.4c0.2-0.2,0.4-0.3,0.6-0.5
	c0.3-0.2,0.5-0.3,0.8-0.4c0.3-0.1,0.6-0.2,0.9-0.3c0.3-0.1,0.6-0.1,0.9-0.1c0.5,0,0.9,0.1,1.3,0.2c0.3,0.2,0.6,0.4,0.8,0.7
	c0.2,0.3,0.3,0.7,0.4,1.3c0.1,0.5,0.1,1.1,0.1,1.8v4.8l1.2,0.1v0.9h-3.9v-0.9l1-0.1V59c0-0.5,0-0.8-0.1-1.2c0-0.3-0.1-0.6-0.2-0.8
	c-0.1-0.2-0.3-0.4-0.5-0.5c-0.2-0.1-0.5-0.2-0.8-0.2c-0.2,0-0.4,0-0.6,0.1c-0.2,0-0.4,0.1-0.6,0.2c-0.2,0.1-0.4,0.2-0.6,0.3
	c-0.2,0.1-0.3,0.2-0.5,0.3v6.7l1.1,0.1v0.9h-3.9V63.9z"/>
<path fill="#FFFFFF" d="M21,63.9l1.3-0.1v-7.1l-1.1-0.4v-1l2.4-0.3h0l0.4,0.3v8.5l1.3,0.1v0.9H21V63.9z M22.5,53.3
	c-0.1-0.1-0.2-0.1-0.3-0.2C22.1,53,22,52.8,22,52.7c0-0.1-0.1-0.3-0.1-0.5c0-0.2,0-0.4,0.1-0.5c0-0.2,0.1-0.3,0.2-0.4
	c0.1-0.1,0.2-0.2,0.4-0.3c0.1-0.1,0.3-0.1,0.5-0.1h0c0.2,0,0.3,0,0.5,0.1c0.1,0.1,0.2,0.2,0.3,0.3c0.1,0.1,0.2,0.2,0.2,0.4
	c0,0.1,0.1,0.3,0.1,0.4c0,0.2,0,0.4-0.1,0.5c0,0.2-0.1,0.3-0.2,0.4c-0.1,0.1-0.2,0.2-0.4,0.3c-0.2,0.1-0.3,0.1-0.5,0.1h0
	C22.7,53.4,22.6,53.4,22.5,53.3"/>
<path fill="#FFFFFF" d="M26.9,63.9l0.9-0.1V52l-1.3-0.2V51l2.6-0.4h0l0.4,0.3l0,3.9l-0.1,1.5c0.1-0.1,0.3-0.3,0.5-0.4
	c0.2-0.2,0.5-0.3,0.7-0.4c0.3-0.1,0.6-0.2,0.9-0.3c0.3-0.1,0.6-0.1,1-0.1c0.5,0,0.9,0.1,1.3,0.2c0.3,0.2,0.6,0.4,0.8,0.7
	c0.2,0.3,0.3,0.7,0.4,1.3c0.1,0.5,0.1,1.1,0.1,1.8v4.8l1.2,0.1v0.9h-3.9v-0.9l1-0.2V59c0-0.5,0-0.8-0.1-1.2c0-0.3-0.1-0.6-0.2-0.8
	c-0.1-0.2-0.3-0.4-0.5-0.5c-0.2-0.1-0.5-0.2-0.8-0.2c-0.4,0-0.8,0.1-1.2,0.2c-0.4,0.1-0.8,0.3-1.1,0.6v6.7l1.1,0.1v0.9h-3.8V63.9z"
	/>
<path fill="#FFFFFF" d="M37.4,60c0-0.8,0.1-1.5,0.4-2.1c0.2-0.6,0.6-1.2,1-1.6c0.4-0.4,0.8-0.8,1.3-1c0.5-0.2,1-0.3,1.5-0.3
	c0.7,0,1.3,0.1,1.8,0.4c0.5,0.3,0.9,0.6,1.2,1.1c0.3,0.5,0.6,1,0.7,1.6c0.2,0.6,0.2,1.3,0.2,2c0,0.5-0.1,1-0.2,1.5
	c-0.1,0.5-0.3,0.9-0.5,1.2c-0.2,0.4-0.4,0.7-0.7,1c-0.3,0.3-0.6,0.5-0.9,0.7c-0.3,0.2-0.6,0.3-1,0.4c-0.3,0.1-0.7,0.1-1,0.1
	c-0.7,0-1.3-0.1-1.8-0.4c-0.5-0.3-0.9-0.6-1.2-1.1c-0.3-0.5-0.6-1-0.7-1.6C37.5,61.4,37.4,60.7,37.4,60 M41.5,64
	c0.7,0,1.3-0.3,1.6-1c0.4-0.6,0.5-1.6,0.5-2.9c0-0.6,0-1.1-0.1-1.6c-0.1-0.5-0.2-0.9-0.4-1.3c-0.2-0.4-0.4-0.7-0.7-0.9
	c-0.3-0.2-0.6-0.3-1-0.3c-0.7,0-1.3,0.3-1.7,1c-0.4,0.6-0.5,1.6-0.5,2.9c0,0.6,0,1.1,0.1,1.6c0.1,0.5,0.2,1,0.4,1.3
	c0.2,0.4,0.4,0.7,0.7,0.9C40.8,63.9,41.1,64,41.5,64"/>
<path fill="#FFFFFF" d="M47.9,56.4h-1.1v-0.8c0.2-0.1,0.3-0.1,0.5-0.2c0.2-0.1,0.3-0.1,0.3-0.2c0.2-0.1,0.3-0.3,0.4-0.6
	c0-0.1,0.1-0.2,0.2-0.4c0.1-0.2,0.1-0.3,0.2-0.5c0.1-0.2,0.1-0.3,0.2-0.5c0-0.2,0.1-0.3,0.1-0.4h1v2.3h2.6v1.2h-2.6v5.1
	c0,0.5,0,0.9,0,1.2c0,0.3,0,0.5,0.1,0.6c0.1,0.1,0.1,0.2,0.3,0.3c0.1,0,0.3,0,0.5,0h0c0.1,0,0.3,0,0.5,0c0.2,0,0.3,0,0.5-0.1
	c0.2,0,0.3-0.1,0.4-0.1c0.1,0,0.2-0.1,0.3-0.1h0l0.3,0.8c-0.1,0.1-0.3,0.2-0.5,0.3c-0.2,0.1-0.5,0.2-0.7,0.3
	c-0.3,0.1-0.5,0.2-0.8,0.2c-0.3,0.1-0.5,0.1-0.8,0.1h0c-0.3,0-0.5,0-0.7-0.1c-0.2-0.1-0.4-0.2-0.6-0.3c-0.2-0.2-0.3-0.4-0.4-0.6
	c-0.1-0.3-0.1-0.6-0.1-0.9V56.4z"/>
<path fill="#FFFFFF" d="M53.8,60c0-0.8,0.1-1.4,0.3-2.1c0.2-0.6,0.5-1.1,0.9-1.6c0.4-0.4,0.8-0.8,1.3-1c0.5-0.2,1.1-0.4,1.7-0.4
	c1,0,1.8,0.3,2.3,0.9c0.5,0.6,0.8,1.4,0.9,2.6c0,0.4,0,0.7,0,1c0,0.3,0,0.5-0.1,0.7h-5.4v0.1c0,0.6,0.1,1.2,0.3,1.7
	c0.2,0.5,0.3,0.8,0.6,1.1c0.2,0.3,0.5,0.5,0.8,0.6c0.3,0.1,0.6,0.2,1,0.2c0.2,0,0.5,0,0.7-0.1c0.2,0,0.4-0.1,0.7-0.2
	c0.2-0.1,0.4-0.2,0.6-0.3c0.2-0.1,0.3-0.2,0.4-0.3l0.3,0.8c-0.2,0.2-0.3,0.3-0.6,0.5c-0.2,0.2-0.5,0.3-0.8,0.4
	c-0.3,0.1-0.6,0.2-0.9,0.3c-0.3,0.1-0.6,0.1-1,0.1c-0.7,0-1.2-0.1-1.7-0.4c-0.5-0.2-0.9-0.6-1.2-1c-0.3-0.4-0.6-1-0.8-1.6
	C53.9,61.4,53.8,60.7,53.8,60 M59.3,59.1c0-0.1,0-0.2,0-0.4c0-0.1,0-0.2,0-0.3c0-0.3,0-0.6-0.1-0.9c-0.1-0.3-0.2-0.5-0.3-0.8
	c-0.1-0.2-0.3-0.4-0.5-0.5C58.2,56,57.9,56,57.6,56c-0.3,0-0.5,0-0.7,0.1c-0.2,0.1-0.4,0.3-0.6,0.5c-0.2,0.2-0.3,0.6-0.4,0.9
	c-0.1,0.4-0.2,0.9-0.2,1.5H59.3z"/>
<polygon fill="#FFFFFF" points="62.7,63.9 64,63.8 64,52 62.7,51.8 62.7,51 65.3,50.6 65.3,50.6 65.7,50.9 65.7,63.8 67.1,63.9 
	67.1,64.9 62.7,64.9 "/>
<path fill="#FFFFFF" d="M69.4,63.9c0-0.2,0-0.4,0.1-0.5c0.1-0.2,0.2-0.3,0.3-0.4c0.1-0.1,0.3-0.2,0.4-0.3c0.2-0.1,0.3-0.1,0.5-0.1
	c0.2,0,0.4,0,0.5,0.1c0.1,0.1,0.3,0.1,0.3,0.3c0.1,0.1,0.2,0.2,0.2,0.4c0,0.1,0.1,0.3,0.1,0.4c0,0.2,0,0.4-0.1,0.6
	c-0.1,0.2-0.2,0.3-0.3,0.4c-0.1,0.1-0.3,0.2-0.4,0.3C70.8,65,70.7,65,70.5,65c-0.1,0-0.3,0-0.4-0.1c-0.1-0.1-0.3-0.1-0.4-0.2
	c-0.1-0.1-0.2-0.2-0.2-0.4C69.4,64.2,69.4,64.1,69.4,63.9"/>
<path fill="#FFFFFF" d="M74,60c0-0.8,0.1-1.5,0.4-2.1c0.2-0.6,0.6-1.2,1-1.6c0.4-0.4,0.8-0.8,1.3-1c0.5-0.2,1-0.3,1.5-0.3
	c0.7,0,1.3,0.1,1.8,0.4c0.5,0.3,0.9,0.6,1.2,1.1c0.3,0.5,0.6,1,0.7,1.6c0.2,0.6,0.2,1.3,0.2,2c0,0.5-0.1,1-0.2,1.5
	c-0.1,0.5-0.3,0.9-0.5,1.2c-0.2,0.4-0.4,0.7-0.7,1c-0.3,0.3-0.6,0.5-0.9,0.7c-0.3,0.2-0.6,0.3-1,0.4c-0.3,0.1-0.7,0.1-1,0.1
	c-0.7,0-1.3-0.1-1.8-0.4c-0.5-0.3-0.9-0.6-1.2-1.1c-0.3-0.5-0.6-1-0.7-1.6C74,61.4,74,60.7,74,60 M78.1,64c0.7,0,1.3-0.3,1.6-1
	c0.4-0.6,0.5-1.6,0.5-2.9c0-0.6,0-1.1-0.1-1.6c-0.1-0.5-0.2-0.9-0.4-1.3c-0.2-0.4-0.4-0.7-0.7-0.9c-0.3-0.2-0.6-0.3-1-0.3
	c-0.7,0-1.3,0.3-1.7,1c-0.4,0.6-0.5,1.6-0.5,2.9c0,0.6,0,1.1,0.1,1.6c0.1,0.5,0.2,1,0.4,1.3c0.2,0.4,0.4,0.7,0.7,0.9
	C77.3,63.9,77.7,64,78.1,64"/>
<path fill="#FFFFFF" d="M83.5,63.9l1.3-0.1v-7.1l-1.1-0.4v-1l2.2-0.3h0l0.4,0.3v0.5l0,1.1h0c0,0,0.1-0.1,0.2-0.2
	c0.1-0.1,0.2-0.2,0.3-0.4c0.1-0.1,0.3-0.3,0.4-0.4c0.2-0.2,0.4-0.3,0.6-0.4c0.2-0.1,0.4-0.2,0.7-0.3c0.2-0.1,0.5-0.1,0.8-0.1
	c0.1,0,0.2,0,0.3,0c0.1,0,0.1,0,0.2,0.1v2.1c0,0-0.1,0-0.1-0.1c-0.1,0-0.1,0-0.2-0.1c-0.1,0-0.2,0-0.3,0c-0.1,0-0.2,0-0.3,0
	c-0.3,0-0.6,0-0.8,0.1c-0.2,0-0.4,0.1-0.6,0.1c-0.2,0.1-0.4,0.1-0.5,0.2c-0.1,0.1-0.3,0.2-0.4,0.2v6.2l2.1,0.2v0.9h-5.1V63.9z"/>
<path fill="#FFFFFF" d="M90.6,66.8c0-0.3,0-0.6,0.1-0.8c0.1-0.2,0.2-0.5,0.3-0.7c0.1-0.2,0.3-0.4,0.5-0.5c0.2-0.1,0.4-0.3,0.5-0.3
	c-0.3-0.2-0.5-0.4-0.6-0.6c-0.1-0.2-0.2-0.5-0.2-0.9c0-0.2,0-0.4,0.1-0.6c0.1-0.2,0.1-0.4,0.3-0.5c0.1-0.2,0.2-0.3,0.4-0.4
	c0.1-0.1,0.3-0.3,0.5-0.4c-0.5-0.3-0.9-0.6-1.2-1.1c-0.3-0.5-0.4-1-0.4-1.6c0-0.5,0.1-1,0.3-1.4c0.2-0.4,0.5-0.8,0.8-1
	c0.3-0.3,0.7-0.5,1.2-0.6c0.4-0.1,0.9-0.2,1.4-0.2h0c0.6,0,1.1,0.1,1.5,0.2c0.5,0.1,0.8,0.4,1.2,0.7c0.1-0.1,0.2-0.2,0.3-0.3
	c0.1-0.1,0.3-0.2,0.4-0.3c0.2-0.1,0.3-0.2,0.5-0.2c0.2-0.1,0.4-0.1,0.6-0.1h0.3v1.7h-1.6c0.2,0.4,0.3,0.8,0.3,1.3
	c0,0.5-0.1,1-0.3,1.4c-0.2,0.4-0.5,0.8-0.8,1.1c-0.3,0.3-0.7,0.5-1.2,0.7c-0.4,0.2-0.9,0.2-1.4,0.2h0c-0.4,0-0.7,0-1.1-0.1
	c-0.2,0.1-0.3,0.3-0.4,0.4c-0.1,0.2-0.2,0.4-0.2,0.6c0,0.2,0,0.4,0.1,0.5c0.1,0.1,0.2,0.2,0.3,0.3c0.2,0.1,0.3,0.1,0.6,0.1
	c0.2,0,0.5,0,0.8,0h1.7c1,0,1.8,0.2,2.3,0.6c0.5,0.4,0.7,1.1,0.7,2c0,0.5-0.1,0.9-0.3,1.4c-0.2,0.4-0.5,0.8-0.9,1.1
	c-0.4,0.3-0.9,0.6-1.4,0.8c-0.6,0.2-1.2,0.3-1.9,0.3h0c-0.7,0-1.3-0.1-1.8-0.2c-0.5-0.1-0.9-0.3-1.3-0.6c-0.3-0.2-0.6-0.5-0.8-0.9
	C90.7,67.6,90.6,67.2,90.6,66.8 M92.3,66.3c0,0.3,0,0.7,0.1,0.9c0.1,0.3,0.2,0.5,0.4,0.7c0.2,0.2,0.5,0.3,0.8,0.4
	c0.3,0.1,0.7,0.1,1.1,0.1h0c0.4,0,0.7,0,1.1-0.1c0.3-0.1,0.6-0.2,0.9-0.4c0.3-0.2,0.5-0.4,0.6-0.6c0.2-0.3,0.2-0.5,0.2-0.9
	c0-0.3,0-0.5-0.1-0.7c0-0.2-0.1-0.4-0.3-0.5c-0.1-0.1-0.3-0.2-0.6-0.3c-0.3-0.1-0.6-0.1-1-0.1h-1.4c-0.3,0-0.5,0-0.8,0
	c-0.2,0-0.5-0.1-0.7-0.1c-0.1,0.2-0.2,0.4-0.3,0.6C92.4,65.6,92.3,65.9,92.3,66.3 M94.6,60.4c0.3,0,0.6-0.1,0.8-0.2
	c0.2-0.1,0.4-0.3,0.5-0.4c0.1-0.2,0.2-0.4,0.3-0.7c0.1-0.3,0.1-0.6,0.1-0.9c0-0.8-0.1-1.3-0.4-1.7c-0.3-0.4-0.7-0.5-1.3-0.5h0
	c-0.3,0-0.5,0-0.7,0.1c-0.2,0.1-0.4,0.2-0.6,0.3c-0.2,0.2-0.3,0.4-0.4,0.6c-0.1,0.3-0.1,0.6-0.1,1c0,0.3,0,0.6,0.1,0.9
	c0.1,0.3,0.2,0.5,0.3,0.8c0.1,0.2,0.3,0.4,0.6,0.5C93.9,60.3,94.2,60.4,94.6,60.4L94.6,60.4z"/>
<path fill="#FFFFFF" d="M77.9,37.8c-2.6,0-2.7-2.5-2.7-2.5V19c0-4.9-3.9-8.8-8.8-8.8c-3.5,0-6.6,2.1-8,5.1l0,0v2.1
	c0,0,1.4-2.6,4-2.6c2.2,0,4,1.8,4,4v20.7v0.1h14.3v-1.7H77.9z"/>
<path fill="#FFFFFF" d="M40.8,32.4c0,0-1.4,2.6-4,2.6c-2.2,0-4-1.8-4-4V10.3v-0.1H18.6v1.7h2.8c2.6,0,2.7,2.5,2.7,2.5v16.3
	c0,4.9,3.9,8.8,8.8,8.8c3.5,0,6.6-2.1,8-5.1l0,0V32.4z"/>
<path fill="#FFFFFF" d="M54.9,35.4V0c0,0-8.2,2.9-14.1,2.9v1.7h2.1c0,0,2.4,0.3,2.4,2.5v28.4c0,0-0.2,2.2-2.4,2.4h-1.3v1.7h17.1
	v-1.7h-1.3C55.2,37.6,54.9,35.4,54.9,35.4"/>
</svg>
