<?xml version="1.0" encoding="utf-8"?>
<!-- Generator: Adobe Illustrator 18.1.1, SVG Export Plug-In . SVG Version: 6.00 Build 0)  -->
<svg version="1.1" id="Layer_1" xmlns="http://www.w3.org/2000/svg" xmlns:xlink="http://www.w3.org/1999/xlink" x="0px" y="0px"
	 viewBox="0 0 48 52" enable-background="new 0 0 48 52" xml:space="preserve">
<path fill="#696773" fill-rule="evenodd" clip-rule="evenodd" d="M48,26v23c0,1.7-1.3,3-3,3H30c-1.7,0-3-1.3-3-3c0-1.7,1.3-3,3-3h12V6H30
	c-1.7,0-3-1.3-3-3c0-1.7,1.3-3,3-3h15c1.7,0,3,1.3,3,3V26C48,26,48,26,48,26C48,26,48,26,48,26 M31,23.8c0.6,0.5,1,1.3,1,2.2
	c0,0.9-0.4,1.7-1,2.2l-10,9c-0.5,0.5-1.2,0.8-2,0.8c-1.7,0-3-1.3-3-3c0-0.9,0.4-1.7,1-2.2h0l4.2-3.8H3c-1.7,0-3-1.3-3-3
	c0-1.7,1.3-3,3-3h18.2L17,19.3l0,0c-0.6-0.5-1-1.3-1-2.2c0-1.7,1.3-3,3-3c0.8,0,1.5,0.3,2,0.8L31,23.8z"/>
</svg>
