<svg xmlns="http://www.w3.org/2000/svg" width="24" height="26" viewBox="0 0 24 26">
  <defs>
    <style>
      .cls-1 {
        fill: #5d5d5d;
        fill-rule: evenodd;
      }
    </style>
  </defs>
  <path class="cls-1" d="M140.768,54.582h15.321l-3.951,4.066a0.827,0.827,0,0,0,0,1.134,0.781,0.781,0,0,0,.543.246,0.75,0.75,0,0,0,.543-0.218l4.921-4.968a0.777,0.777,0,0,0,0-1.094l-0.233-.236a0.767,0.767,0,0,0-.2-0.2l-4.49-4.538a0.762,0.762,0,0,0-1.086,0,0.7,0.7,0,0,0,0,1.024l3.268,3.229H140.768A0.776,0.776,0,0,0,140.768,54.582ZM164,64V44.7a3.664,3.664,0,0,0-3.359-3.7h-9.984a3.81,3.81,0,0,0-3.553,3.7V49.3a0.768,0.768,0,1,0,1.536,0V44.7a2.282,2.282,0,0,1,2.017-2.15h9.984a2.12,2.12,0,0,1,1.823,2.15V64c0,1.034-.846,1.443-1.823,1.443h-9.984c-0.908,0-2.017-.344-2.017-1.443V59.387a0.768,0.768,0,1,0-1.536,0V64c0,1.821,1.6,3,3.553,3h9.984A3.047,3.047,0,0,0,164,64Z" transform="translate(-140 -41)"/>
</svg>
