<svg xmlns="http://www.w3.org/2000/svg" width="22" height="22" viewBox="0 0 22 22">
  <defs>
    <style>
      .cls-1 {
        fill: #fff;
        fill-rule: evenodd;
        opacity: 0.28;
      }
    </style>
  </defs>
  <path id="Forma_1_копия_2" data-name="Forma 1 копия 2" class="cls-1" d="M198,718a11,11,0,1,0,11,11A11,11,0,0,0,198,718Zm0,20.621A9.623,9.623,0,1,1,207.623,729,9.624,9.624,0,0,1,198,738.622Zm4.124-10.311h-3.437v-3.436a0.688,0.688,0,1,0-1.375,0v3.436h-3.437a0.688,0.688,0,0,0,0,1.375h3.437v3.437a0.688,0.688,0,0,0,1.375,0v-3.437h3.437A0.688,0.688,0,0,0,202.124,728.311Z" transform="translate(-187 -718)"/>
</svg>
