<svg xmlns="http://www.w3.org/2000/svg" xmlns:xlink="http://www.w3.org/1999/xlink" width="17" height="10" viewBox="0 0 17 10">
  <defs>
    <style>
      .cls-1 {
        fill: #fff;
        fill-rule: evenodd;
        filter: url(#filter);
      }
    </style>
    <filter id="filter" x="924" y="724" width="17" height="10" filterUnits="userSpaceOnUse">
      <feFlood result="flood" flood-color="#fff"/>
      <feComposite result="composite" operator="in" in2="SourceGraphic"/>
      <feBlend result="blend" in2="SourceGraphic"/>
    </filter>
  </defs>
  <path id="Фигура_1" data-name="Фигура 1" class="cls-1" d="M932.312,733.869h1.016a0.841,0.841,0,0,0,.463-0.207,0.771,0.771,0,0,0,.14-0.457s-0.02-1.394.613-1.6,1.425,1.347,2.274,1.943a1.586,1.586,0,0,0,1.13.353l2.27-.033s1.188-.075.625-1.029a7.7,7.7,0,0,0-1.688-2c-1.424-1.351-1.233-1.132.482-3.469,1.044-1.424,1.462-2.293,1.331-2.666a0.977,0.977,0,0,0-.892-0.26l-2.557.016a0.575,0.575,0,0,0-.33.059,0.727,0.727,0,0,0-.225.281,15.322,15.322,0,0,1-.945,2.038c-1.138,1.976-1.593,2.081-1.779,1.958-0.433-.286-0.325-1.149-0.325-1.762,0-1.915.284-2.715-.553-2.921a4.256,4.256,0,0,0-1.193-.121,5.391,5.391,0,0,0-2.121.221c-0.291.146-.516,0.471-0.379,0.49a1.13,1.13,0,0,1,.754.387,2.574,2.574,0,0,1,.253,1.183s0.151,2.255-.351,2.535c-0.345.192-.817-0.2-1.832-1.993a16.919,16.919,0,0,1-.913-1.934,0.768,0.768,0,0,0-.21-0.291,1.036,1.036,0,0,0-.393-0.163l-2.429.017a0.816,0.816,0,0,0-.5.172,0.553,0.553,0,0,0-.009.443s1.9,4.55,4.055,6.843A5.766,5.766,0,0,0,932.312,733.869Z" transform="translate(-924 -724)"/>
</svg>
