<svg xmlns="http://www.w3.org/2000/svg" width="14" height="14" viewBox="0 0 14 14">
  <defs>
    <style>
      .cls-1 {
        fill: #fff;
        fill-rule: evenodd;
      }
    </style>
  </defs>
  <path id="Forma_1_копия_5" data-name="Forma 1 копия 5" class="cls-1" d="M1006.77,725.766a0.538,0.538,0,0,1-.54-0.539v-1.078a0.539,0.539,0,0,1,.54-0.538h1.08a0.539,0.539,0,0,1,.54.538v1.078a0.538,0.538,0,0,1-.54.539h-1.08Zm-3.77,1.179a2.027,2.027,0,0,0-1.06.3,0.915,0.915,0,0,1,.3-0.051,1.042,1.042,0,1,1-1.04,1.042,1.014,1.014,0,0,1,.05-0.3,2.023,2.023,0,0,0-.3,1.063A2.055,2.055,0,1,0,1003,726.945Zm0-1.179A3.233,3.233,0,1,1,999.767,729a3.234,3.234,0,0,1,3.233-3.233m0-1.077a4.31,4.31,0,1,0,4.31,4.31A4.313,4.313,0,0,0,1003,724.689Zm4.38-2.695h-8.758A2.627,2.627,0,0,0,996,724.621v8.756A2.626,2.626,0,0,0,998.622,736h8.758a2.621,2.621,0,0,0,2.62-2.627v-8.756A2.621,2.621,0,0,0,1007.38,721.994Zm1.55,4.849h-3.53a3.189,3.189,0,0,1,.83,2.156,3.232,3.232,0,1,1-6.463,0,3.192,3.192,0,0,1,.833-2.156h-3.527v-2.222a1.551,1.551,0,0,1,1.549-1.549h8.758a1.554,1.554,0,0,1,1.55,1.549v2.222Z" transform="translate(-996 -722)"/>
</svg>
