<svg xmlns="http://www.w3.org/2000/svg" width="11.907" height="12" viewBox="0 0 11.907 12">
  <defs>
    <style>
      .cls-1 {
        fill: #7b7b7b;
        fill-rule: evenodd;
      }
    </style>
  </defs>
  <path id="Forma_1_копия_19" data-name="Forma 1 копия 19" class="cls-1" d="M837.215,1848.37h-3.722a0.376,0.376,0,0,0-.372.38,0.368,0.368,0,0,0,.372.37h3.722a0.368,0.368,0,0,0,.372-0.37A0.376,0.376,0,0,0,837.215,1848.37Zm0.744-2.25h-5.21a0.376,0.376,0,0,0-.372.38,0.367,0.367,0,0,0,.372.37h5.21a0.368,0.368,0,0,0,.372-0.37A0.376,0.376,0,0,0,837.959,1846.12Zm-2.6-4.12c-3.289,0-5.955,2.35-5.955,5.25a5.02,5.02,0,0,0,2.233,4.09V1854l2.609-1.6a6.774,6.774,0,0,0,1.113.1c3.289,0,5.954-2.35,5.954-5.25S838.643,1842,835.354,1842Zm0,9.75a5.76,5.76,0,0,1-1.258-.14l-1.752,1.06,0.023-1.74a4.346,4.346,0,0,1-2.223-3.68c0-2.49,2.332-4.5,5.21-4.5s5.21,2.01,5.21,4.5S838.231,1851.75,835.354,1851.75Z" transform="translate(-829.406 -1842)"/>
</svg>
