<svg xmlns="http://www.w3.org/2000/svg" width="12.91" height="12" viewBox="0 0 12.91 12">
  <defs>
    <style>
      .cls-1 {
        fill: #9c9c9c;
        fill-rule: evenodd;
      }
    </style>
  </defs>
  <path id="Shape_1_копия_4" data-name="Shape 1 копия 4" class="cls-1" d="M1151.96,1843.11a3.449,3.449,0,0,0-5.06.01l-0.35.37-0.36-.38a3.462,3.462,0,0,0-2.53-1.11,3.419,3.419,0,0,0-2.52,1.11,3.933,3.933,0,0,0,.01,5.34l5.13,5.43a0.369,0.369,0,0,0,.26.12,0.363,0.363,0,0,0,.26-0.11l5.15-5.43a3.834,3.834,0,0,0,1.05-2.67A3.913,3.913,0,0,0,1151.96,1843.11Zm-0.53,4.8-4.89,5.15-4.87-5.16a3.064,3.064,0,0,1-.84-2.12,3.1,3.1,0,0,1,.83-2.12,2.724,2.724,0,0,1,4.01,0l0.62,0.66a0.357,0.357,0,0,0,.52,0l0.61-.65a2.724,2.724,0,0,1,4.01,0A3.122,3.122,0,0,1,1151.43,1847.91Z" transform="translate(-1140.09 -1842)"/>
</svg>
