<svg xmlns="http://www.w3.org/2000/svg" width="21" height="21" viewBox="0 0 21 21">
  <defs>
    <style>
      .cls-1 {
        fill: #8b8b8b;
        fill-rule: evenodd;
      }
    </style>
  </defs>
  <path id="Forma_1" data-name="Forma 1" class="cls-1" d="M1364.49,84.5l-9.3,9.362a0.665,0.665,0,1,0,.94.942l9.36-9.433,9.37,9.433a0.665,0.665,0,0,0,.94-0.942l-9.3-9.362,9.31-9.369a0.685,0.685,0,0,0,0-.942,0.664,0.664,0,0,0-.94,0l-9.38,9.439-9.37-9.439a0.664,0.664,0,0,0-.94,0,0.685,0.685,0,0,0,0,.942Z" transform="translate(-1355 -74)"/>
</svg>
