<?xml version="1.0" standalone="no"?>
<!DOCTYPE svg PUBLIC "-//W3C//DTD SVG 1.1//EN" "http://www.w3.org/Graphics/SVG/1.1/DTD/svg11.dtd" >
<svg xmlns="http://www.w3.org/2000/svg" xmlns:xlink="http://www.w3.org/1999/xlink" version="1.1">
<metadata>
Created by FontForge 20150102 at Fri Jan 23 18:54:42 2015
 By uniteet7
Copyright (c) 2011 ParaType Inc., ParaType Ltd. All rights reserved.
</metadata>
<defs>
<font id="PragmaticaSlabserifBook" horiz-adv-x="580" >
  <font-face 
    font-family="PragmaticaSlabserifBook"
    font-weight="400"
    font-stretch="normal"
    units-per-em="1000"
    panose-1="2 6 5 3 2 2 6 2 4 4"
    ascent="800"
    descent="-200"
    x-height="508"
    cap-height="700"
    bbox="-538 -276 1245 926"
    underline-thickness="50"
    underline-position="-50"
    unicode-range="U+0020-FB02"
  />
<missing-glyph horiz-adv-x="500" 
d="M58 8h384v496h-384v-496zM50 0v512h400v-512h-400z" />
    <glyph glyph-name="afii10017.var.accented" unicode="&#x410;`" horiz-adv-x="706" 
d="M471 0v79h65l-37 102h-296l-37 -102h64v-79h-230v79h70l205 542h-78v79h208l235 -621h66v-79h-235zM229 260h244l-122 346zM372 900h112l-102 -140h-84z" />
    <glyph glyph-name="afii10022.var.accented" unicode="&#x415;`" horiz-adv-x="665" 
d="M624 490h-79v131h-326v-220h279v-79h-279v-243h337v141h79v-220h-580v79h70v542h-70v79h569v-210zM359 900h112l-102 -140h-84z" />
    <glyph glyph-name="afii10026.var.accented" unicode="&#x418;`" horiz-adv-x="811" 
d="M55 621v79h234v-79h-70v-484l373 563h164v-79h-70v-542h70v-79h-234v79h70v488l-373 -567h-164v79h70v542h-70zM432 900h112l-102 -140h-84z" />
    <glyph glyph-name="afii10032.var.accented" unicode="&#x41e;`" horiz-adv-x="758" 
d="M45 350q0 179 91.5 275t242.5 96q49 0 94.5 -11t90 -38t77 -68t52.5 -106.5t20 -147.5q0 -75 -17 -135.5t-41.5 -98.5t-60 -65.5t-65.5 -41t-65.5 -21t-52 -8.5t-32.5 -1q-17 0 -33.5 1t-52 8.5t-65.5 21t-65.5 41t-60 65.5t-41 98.5t-16.5 135.5zM145 350q0 -39 5 -74.5
t20 -76.5t40 -71t68.5 -50t100.5 -20q15 0 28.5 1t38.5 7.5t45.5 17.5t44 33t39.5 51.5t27 76.5t11 105q0 131 -59 211.5t-175 80.5q-61 0 -106.5 -24t-69 -56.5t-37.5 -76.5t-17.5 -74.5t-3.5 -60.5zM396 900h112l-102 -140h-84z" />
    <glyph glyph-name="afii10037.var.accented" unicode="&#x423;`" horiz-adv-x="651" 
d="M5 621v79h232v-79h-57l170 -342l130 342h-59v79h225v-79h-68l-263 -621h-160v79h110l37 95l-234 447h-63zM340 900h112l-102 -140h-84z" />
    <glyph glyph-name="afii10045.var.accented" unicode="&#x42b;`" horiz-adv-x="958" 
d="M669 621v79h234v-79h-70v-542h70v-79h-229v79h65v542h-70zM55 621v79h234v-79h-70v-206h172q30 0 58.5 -4t65 -17t62.5 -34.5t44.5 -60.5t18.5 -90q0 -52 -19 -91.5t-46.5 -61t-63.5 -35t-64 -17.5t-54 -4h-338v79h70v542h-70zM219 336v-257h170q11 0 24.5 1.5t38.5 9
t44 20t33.5 38.5t14.5 61q0 59 -42 93t-126 34h-157zM476 900h112l-102 -140h-84z" />
    <glyph glyph-name="afii10047.var.accented" unicode="&#x42d;`" horiz-adv-x="719" 
d="M244 401h330q0 22 -3 46.5t-16.5 61t-35.5 64.5t-65 48.5t-100 20.5q-85 0 -140.5 -47t-64.5 -105h-79v210h75v-82q33 48 91 75.5t128 27.5q310 0 310 -363q0 -49 -6 -93.5t-27 -99t-55.5 -93.5t-96.5 -66t-145 -27q-63 0 -114 17.5t-83 44.5t-55 63.5t-33 70t-14 68.5
h94q3 -21 9 -41.5t21.5 -47.5t37 -47.5t58.5 -34.5t83 -14q52 0 93 16t64.5 40t39 56.5t21.5 60.5t8 58q2 17 0 33h-330v79zM366 900h112l-102 -140h-84z" />
    <glyph glyph-name="afii10048.var.accented" unicode="&#x42e;`" horiz-adv-x="1033" 
d="M55 621v79h229v-79h-65v-213h115q4 60 25 114t58.5 99.5t99.5 72.5t141 27q149 0 239.5 -96t90.5 -275q0 -79 -18.5 -144.5t-57 -117t-103.5 -80.5t-151 -29q-74 0 -132 21.5t-93 55.5t-58 81.5t-32.5 93.5t-12.5 98h-111v-250h65v-79h-229v79h70v542h-70zM659 58
q58 0 101 20t67 50t38.5 71.5t18.5 76.5t4 74q0 74 -17 130t-41.5 85.5t-58 48t-59.5 23.5t-53 5q-26 0 -52 -5t-59.5 -23t-58 -48t-42 -86t-17.5 -130q0 -60 12 -110.5t37.5 -92.5t71.5 -65.5t108 -23.5zM543 900h112l-102 -140h-84z" />
    <glyph glyph-name="afii10049.var.accented" unicode="&#x42f;`" horiz-adv-x="730" 
d="M441 0v79h70v199h-164l-156 -278h-152v79h88l123 210q-29 4 -56.5 14t-59.5 31t-51.5 61.5t-19.5 95.5q0 92 65.5 150.5t191.5 58.5h355v-79h-70v-542h70v-79h-234zM511 621h-191q-84 0 -122.5 -40t-38.5 -91q0 -53 40 -93t134 -40h178v264zM397 900h112l-102 -140h-84z
" />
    <glyph glyph-name="afii10023.var.accented" unicode="&#x401;`" horiz-adv-x="665" 
d="M624 490h-79v131h-326v-220h279v-79h-279v-243h337v141h79v-220h-580v79h70v542h-70v79h569v-210zM161 782v79h94v-79h-94zM447 782v79h94v-79h-94zM340 900h112l-102 -140h-84z" />
    <glyph glyph-name="afii10065.var.accented" unicode="&#x430;`" horiz-adv-x="569" 
d="M390 0v72q-25 -46 -72 -69t-102 -23q-84 0 -131.5 38t-47.5 115q0 71 52 109.5t197 51.5q66 4 80 13q19 14 19 57q0 102 -114 102q-135 0 -132 -108h-84q0 29 9 56t31 54t67 43.5t109 16.5q36 0 67.5 -6.5t64.5 -23t52 -53t18 -88.5v-295h64v-62h-147zM385 224v36
q-9 -7 -21.5 -11t-22.5 -5.5t-31.5 -4t-36.5 -4.5q-6 -1 -22.5 -3.5t-22.5 -3.5t-20.5 -4t-20 -5.5t-16 -7t-15 -9t-11.5 -11t-9.5 -14.5t-5 -18.5t-2.5 -22.5q0 -44 27 -69t71 -25q62 0 110.5 44.5t48.5 137.5zM284 700h106l-96 -132h-80z" />
    <glyph glyph-name="afii10070.var.accented" unicode="&#x435;`" horiz-adv-x="570" 
d="M438 147h84q-12 -67 -64.5 -117t-157.5 -50q-52 0 -93.5 13t-67.5 32.5t-45.5 47.5t-29 52t-14.5 53t-6 44t-1 30q0 29 3 56.5t17 70t38.5 73t73.5 53.5t116 23q58 0 101.5 -18t67.5 -44t39 -65.5t20 -71t7 -70.5q0 -4 0.5 -12.5t0.5 -12.5h-391q0 -75 40.5 -133.5
t120.5 -58.5q60 0 96 29.5t45 75.5zM136 296h298q-1 30 -7.5 56t-20.5 53.5t-43 44t-70 16.5q-46 0 -79 -17t-49 -44.5t-22.5 -54t-6.5 -54.5zM293 700h106l-96 -132h-80z" />
    <glyph glyph-name="afii10074.var.accented" unicode="&#x438;`" horiz-adv-x="658" 
d="M40 62h66v384h-66v62h220v-62h-66v-343l260 405h164v-62h-66v-384h66v-62h-220v62h66v344l-259 -406h-165v62zM339 700h106l-96 -132h-80z" />
    <glyph glyph-name="afii10080.var.accented" unicode="&#x43e;`" horiz-adv-x="586" 
d="M43 254q0 53 13.5 100t41.5 87t78 63.5t117 23.5t117 -23.5t78 -63.5t41.5 -87t13.5 -100t-13.5 -100t-41.5 -87t-78 -63.5t-117 -23.5t-117 23.5t-78 63.5t-41.5 87t-13.5 100zM136 255q0 -58 13 -100.5t30.5 -63t42 -33t39.5 -14.5t32 -2t32 2t39.5 14.5t42 33t30.5 63
t13 100.5t-13 100.5t-30.5 63t-42 33t-39.5 14.5t-32 2t-32 -2t-39.5 -14.5t-42 -33t-30.5 -63t-13 -100.5zM301 700h106l-96 -132h-80z" />
    <glyph glyph-name="afii10085.var.accented" unicode="&#x443;`" horiz-adv-x="558" 
d="M-10 446v62h231v-62h-62l139 -349l114 349h-64v62h220v-62h-69l-236 -631h-140v62h87l43 123l-196 446h-67zM300 700h106l-96 -132h-80z" />
    <glyph glyph-name="afii10093.var.accented" unicode="&#x44b;`" horiz-adv-x="772" 
d="M512 446v62h220v-62h-66v-384h66v-62h-154v446h-66zM40 446v62h220v-62h-66v-139h109q208 0 208 -150q0 -82 -57.5 -119.5t-132.5 -37.5h-281v62h66v384h-66zM194 245v-183h105q20 0 38.5 3.5t38.5 13t32 29.5t12 49q0 88 -137 88h-89zM399 700h106l-96 -132h-80z" />
    <glyph glyph-name="afii10095.var.accented" unicode="&#x44d;`" horiz-adv-x="553" 
d="M198 233v62h219q-2 55 -18.5 92.5t-41.5 52.5t-44 20.5t-38 5.5q-67 0 -106 -33t-44 -85h-67v160h64v-48h3q57 68 158 68q32 0 58.5 -4.5t59.5 -21t55.5 -45t38 -82t15.5 -125.5q0 -270 -241 -270q-27 0 -48.5 2t-54.5 13t-56 30.5t-44 58t-29 92.5h84q17 -134 148 -134
q40 0 69 16t43.5 37t23.5 50.5t10.5 48.5t1.5 39h-219zM284 700h106l-96 -132h-80z" />
    <glyph glyph-name="afii10096.var.accented" unicode="&#x44e;`" horiz-adv-x="815" 
d="M40 446v62h220v-62h-66v-147h87q4 44 19.5 82.5t43 72.5t74.5 54t107 20q107 0 177 -67t70 -206q0 -77 -24 -133t-53.5 -82t-70.5 -41t-60 -17t-37 -2q-68 0 -117 23.5t-75 64t-38.5 81.5t-15.5 88h-87v-175h66v-62h-220v62h66v384h-66zM374 255q0 -36 5 -67t19.5 -67
t47.5 -57.5t81 -21.5q31 0 56 10t40.5 24.5t27 36.5t16.5 40t8 42t3.5 34.5t0.5 25.5q0 14 -0.5 25.5t-3.5 35t-8.5 41t-16.5 39.5t-26.5 36t-40.5 24t-56 10q-16 0 -31 -2t-39 -14t-40.5 -32.5t-29.5 -63t-13 -99.5zM432 700h106l-96 -132h-80z" />
    <glyph glyph-name="afii10097.var.accented" unicode="&#x44f;`" horiz-adv-x="577" 
d="M317 0v62h66v138h-116l-126 -200h-127v62h71l93 140q-55 11 -93 48t-38 101q0 27 8.5 52t27.5 50t56.5 40t88.5 15h309v-62h-66v-384h66v-62h-220zM383 446h-123q-122 0 -122 -95q0 -38 28.5 -63.5t96.5 -25.5h120v184zM299 700h106l-96 -132h-80z" />
    <glyph glyph-name="afii10071.var.accented" unicode="&#x451;`" horiz-adv-x="570" 
d="M438 147h84q-12 -67 -64.5 -117t-157.5 -50q-52 0 -93.5 13t-67.5 32.5t-45.5 47.5t-29 52t-14.5 53t-6 44t-1 30q0 29 3 56.5t17 70t38.5 73t73.5 53.5t116 23q58 0 101.5 -18t67.5 -44t39 -65.5t20 -71t7 -70.5q0 -4 0.5 -12.5t0.5 -12.5h-391q0 -75 40.5 -133.5
t120.5 -58.5q60 0 96 29.5t45 75.5zM136 296h298q-1 30 -7.5 56t-20.5 53.5t-43 44t-70 16.5q-46 0 -79 -17t-49 -44.5t-22.5 -54t-6.5 -54.5zM107 588v92h88v-92h-88zM399 588v92h88v-92h-88zM283 700h106l-96 -132h-80z" />
    <glyph glyph-name="fi" unicode="fi" horiz-adv-x="553" 
d="M354 608v92h88v-92h-88zM38 0v62h71v384h-94v62h94v69q0 66 32.5 96.5t101.5 30.5q5 0 65 -4v-62q-14 1 -62 1q-49 0 -49 -70v-61h245v-446h71v-62h-220v62h61v384h-157v-384h61v-62h-220z" />
    <glyph glyph-name="fl" unicode="fl" horiz-adv-x="553" 
d="M38 0v62h71v384h-94v62h94v69q0 66 32.5 96.5t101.5 30.5q5 0 65 -4h134v-638h71v-62h-220v62h61v384h-157v-384h61v-62h-220zM197 508h157v130h-46q-14 1 -62 1q-49 0 -49 -70v-61z" />
    <glyph glyph-name=".notdef" horiz-adv-x="500" 
d="M58 8h384v496h-384v-496zM50 0v512h400v-512h-400z" />
    <glyph glyph-name=".null" horiz-adv-x="0" 
 />
    <glyph glyph-name="nonmarkingreturn" horiz-adv-x="333" 
 />
    <glyph glyph-name="space" unicode=" " horiz-adv-x="233" 
 />
    <glyph glyph-name="exclam" unicode="!" horiz-adv-x="311" 
d="M106 700h99v-269l-25 -230h-49l-25 230v269zM106 0v109h99v-109h-99z" />
    <glyph glyph-name="quotedbl" unicode="&#x22;" horiz-adv-x="420" 
d="M182 700l-40 -192h-52l-40 192h132zM370 700l-40 -192h-52l-40 192h132z" />
    <glyph glyph-name="numbersign" unicode="#" 
d="M102 10l27 179h-139l12 62h137l31 202h-139l12 62h137l28 179h61l-28 -179h150l28 179h61l-28 -179h138l-12 -62h-136l-31 -202h138l-12 -62h-136l-27 -179h-61l27 179h-150l-27 -179h-61zM231 453l-31 -202h150l31 202h-150z" />
    <glyph glyph-name="dollar" unicode="$" 
d="M29 235h89q0 -50 14.5 -87.5t38.5 -57t47 -29t47 -10.5v272q-122 28 -167.5 79t-45.5 124q0 46 15 81.5t37.5 56t52.5 33.5t56 17.5t52 4.5v58h59v-58q30 0 70.5 -19t60.5 -51v51h72v-200h-86q0 71 -32.5 111.5t-84.5 41.5v-254q71 -12 118.5 -36.5t68 -56t27.5 -57.5
t7 -57q0 -50 -17 -88.5t-41 -60.5t-56.5 -36t-57.5 -19t-49 -6v-75h-59v75q-58 2 -97 23.5t-65 70.5v-76h-74v235zM324 314v-263q60 -2 96 41.5t36 99.5q0 42 -23.5 70.5t-50.5 38.5t-58 13zM265 408v245q-45 0 -85.5 -29t-40.5 -95q0 -97 126 -121z" />
    <glyph glyph-name="percent" unicode="%" horiz-adv-x="911" 
d="M53 513q0 58 17.5 100t45 62.5t52.5 29t49 8.5t49 -8.5t52.5 -29t45 -62.5t17.5 -100q0 -31 -7.5 -62.5t-24 -64t-51 -53t-81.5 -20.5t-81.5 20.5t-51 53t-24 64t-7.5 62.5zM117 513q0 -21 3.5 -43t13.5 -47t31 -41t52 -16t52 16t31 41t13.5 47t3.5 43q0 78 -31 112.5
t-69 34.5t-69 -34.5t-31 -112.5zM530 192q0 58 17.5 100t45 62.5t52.5 29t49 8.5t49 -8.5t52.5 -29t45 -62.5t17.5 -100q0 -31 -7.5 -62.5t-24 -64t-51 -53t-81.5 -20.5t-81.5 20.5t-51 53t-24 64t-7.5 62.5zM594 192q0 -21 3.5 -43t13.5 -47t31 -41t52 -16t52 16t31 41
t13.5 47t3.5 43q0 78 -31 112.5t-69 34.5t-69 -34.5t-31 -112.5zM202 0l454 700h58l-454 -700h-58z" />
    <glyph glyph-name="ampersand" unicode="&#x26;" horiz-adv-x="683" 
d="M482 365h200v-75h-64q-19 -93 -55 -148l53 -63h87v-79h-125l-69 82q-33 -51 -93 -77t-124 -26q-110 0 -165 62.5t-55 145.5q0 80 41.5 134.5t127.5 93.5q-66 77 -66 156q0 67 47 108.5t116 41.5q72 0 112.5 -44t40.5 -103q0 -61 -40 -108.5t-91 -70.5l153 -192
q16 27 26 87h-57v75zM463 139l-176 219q-122 -49 -122 -170q0 -52 35.5 -93t103.5 -41q50 0 92.5 22t66.5 63zM317 448q45 27 69.5 56t24.5 70q0 31 -20 53t-54 22q-31 0 -55.5 -20.5t-24.5 -57.5q0 -49 60 -123z" />
    <glyph glyph-name="quotesingle" unicode="'" horiz-adv-x="232" 
d="M182 700l-40 -192h-52l-40 192h132z" />
    <glyph glyph-name="parenleft" unicode="(" horiz-adv-x="365" 
d="M216 700h66q-122 -236 -122 -442q0 -106 34 -223.5t88 -218.5h-66q-87 148 -116 243t-29 199t29 199t116 243z" />
    <glyph glyph-name="parenright" unicode=")" horiz-adv-x="365" 
d="M149 -184h-66q122 236 122 442q0 207 -122 442h66q87 -139 116 -243.5t29 -198.5t-29 -198.5t-116 -243.5z" />
    <glyph glyph-name="asterisk" unicode="*" horiz-adv-x="465" 
d="M233 511l-80 -108l-40 30l78 108l-125 40l16 47l126 -40v132h50v-132l125 40l16 -47l-124 -40l78 -108l-41 -30z" />
    <glyph glyph-name="plus" unicode="+" horiz-adv-x="600" 
d="M50 386h219v219h62v-219h219v-62h-219v-219h-62v219h-219v62z" />
    <glyph glyph-name="comma" unicode="," horiz-adv-x="311" 
d="M106 109h99v-140q0 -53 -30.5 -81t-68.5 -36v55q21 2 35.5 20.5t14.5 41.5v31h-50v109z" />
    <glyph glyph-name="hyphen" unicode="-" horiz-adv-x="371" 
d="M50 230v79h271v-79h-271z" />
    <glyph glyph-name="period" unicode="." horiz-adv-x="311" 
d="M106 0v109h99v-109h-99z" />
    <glyph glyph-name="slash" unicode="/" horiz-adv-x="420" 
d="M0 -185l357 885h63l-357 -885h-63z" />
    <glyph glyph-name="zero" unicode="0" 
d="M290 -21q-24 0 -46.5 3.5t-61.5 24.5t-66.5 57t-49 110.5t-21.5 175.5t21.5 175.5t49 110.5t66.5 57t61.5 24.5t46.5 3.5t46.5 -3.5t61.5 -24.5t66.5 -57t49 -110.5t21.5 -175.5t-21.5 -175.5t-49 -110.5t-66.5 -57t-61.5 -24.5t-46.5 -3.5zM290 58q79 0 115.5 81
t36.5 211t-36.5 211t-115.5 81t-115.5 -81t-36.5 -211t36.5 -211t115.5 -81z" />
    <glyph glyph-name="one" unicode="1" 
d="M150 621v79h214v-621h120v-79h-334v79h120v542h-120z" />
    <glyph glyph-name="two" unicode="2" 
d="M528 224v-224h-477q0 49 13 90.5t30 69.5t53 59.5t62.5 49.5t78.5 50q3 2 20 12.5t22 14t20.5 14.5t22 18t18.5 19t17 22.5t12 25t9.5 30t2.5 33.5q0 64 -38.5 99t-103.5 35q-67 0 -106 -38t-39 -101v-26h-92v21q0 23 4 47.5t19.5 57.5t40 58t70.5 42.5t106 17.5
q108 0 170 -56.5t62 -155.5q0 -40 -9 -70.5t-21.5 -53t-45 -50t-60.5 -46.5t-87 -57q-71 -45 -104 -79.5t-43 -73.5h294v145h79z" />
    <glyph glyph-name="three" unicode="3" 
d="M40 213h90l3 -23q21 -136 146 -136q51 0 85 16t48.5 42.5t19 47t4.5 42.5q0 58 -34 92t-94 34h-70v76h25q15 0 28 1t38 7.5t42.5 18t31 36t13.5 58.5q0 50 -31.5 85.5t-105.5 35.5q-134 0 -134 -159h-87q0 25 2.5 48.5t15.5 59.5t35.5 62t67 45t105.5 19q55 0 98 -15
t66 -36t37.5 -49.5t19 -50t4.5 -41.5q0 -57 -33 -98.5t-85 -56.5v-2q57 -8 97.5 -55t40.5 -122q0 -100 -68.5 -158t-175.5 -58q-58 0 -103 16t-70.5 39.5t-42 56.5t-22.5 61.5t-7 60.5z" />
    <glyph glyph-name="four" unicode="4" 
d="M353 162h-330v79l329 459h95v-459h110v-79h-110v-83h70v-79h-234v79h70v83zM113 241h240v336z" />
    <glyph glyph-name="five" unicode="5" 
d="M424 621h-240l-28 -207q60 53 158 53t160 -64.5t62 -174.5t-65 -179.5t-189 -69.5q-64 0 -111 19.5t-72 51.5t-37.5 63.5t-15.5 65.5h92q2 -20 9.5 -39.5t22 -40t43.5 -33t67 -12.5q163 0 163 173q0 86 -44.5 125.5t-109.5 39.5q-38 0 -78 -16.5t-57 -44.5h-88l49 369
h388v-177h-79v98z" />
    <glyph glyph-name="six" unicode="6" 
d="M525 546h-84q-24 100 -134 100q-170 0 -170 -259h2q54 74 171 74q99 0 162.5 -63.5t63.5 -171.5q0 -111 -64.5 -179t-176.5 -68q-61 0 -105 17.5t-78 58t-51 112t-17 174.5q0 77 12 139t29 100.5t43.5 67t49 42t51.5 21.5t44.5 9t34.5 1t36 -1.5t48.5 -11.5t55.5 -27
t46.5 -52t30.5 -83zM143 224q0 -71 40 -120.5t116 -49.5q72 0 108 50t36 123q0 68 -37.5 113.5t-108.5 45.5q-73 0 -113.5 -44t-40.5 -118z" />
    <glyph glyph-name="seven" unicode="7" 
d="M107 79h79q25 124 72 235q76 177 195 307h-330v-131h-79v210h501v-64q-121 -133 -194 -314q-49 -119 -68 -243h73v-79h-249v79z" />
    <glyph glyph-name="eight" unicode="8" 
d="M181 379q-47 17 -74 59.5t-27 94.5q0 31 9.5 61t31.5 60t65.5 48.5t103.5 18.5t103.5 -18.5t65.5 -48.5t31.5 -60t9.5 -61q0 -52 -27 -94.5t-74 -59.5q58 -15 92.5 -66.5t34.5 -114.5q0 -96 -60 -157.5t-176 -61.5t-176 61.5t-60 157.5q0 63 34.5 114.5t92.5 66.5z
M290 412q64 0 94 33t30 85q0 17 -4.5 34t-16 37t-38.5 32.5t-65 12.5t-65 -12.5t-38.5 -32.5t-16 -37t-4.5 -34q0 -52 30 -85t94 -33zM290 54q57 0 101.5 38t44.5 111q0 54 -34 95.5t-112 41.5t-112 -41.5t-34 -95.5q0 -73 44 -111t102 -38z" />
    <glyph glyph-name="nine" unicode="9" 
d="M54 154h84q24 -100 134 -100q170 0 170 259h-2q-54 -74 -171 -74q-99 0 -162 63.5t-63 171.5q0 111 64 179t176 68q41 0 73 -6.5t67 -29t58 -60.5t38 -106t15 -160q0 -380 -264 -380q-19 0 -36 1.5t-48.5 11.5t-55.5 27t-46.5 52t-30.5 83zM436 476q0 71 -40 120.5
t-116 49.5q-72 0 -109 -50t-37 -123q0 -69 38 -114t110 -45q73 0 113.5 44t40.5 118z" />
    <glyph glyph-name="colon" unicode=":" horiz-adv-x="311" 
d="M106 399v109h99v-109h-99zM106 0v109h99v-109h-99z" />
    <glyph glyph-name="semicolon" unicode=";" horiz-adv-x="311" 
d="M106 399v109h99v-109h-99zM106 109h99v-140q0 -53 -30.5 -81t-68.5 -36v55q21 2 35.5 20.5t14.5 41.5v31h-50v109z" />
    <glyph glyph-name="less" unicode="&#x3c;" horiz-adv-x="600" 
d="M38 366l495 285l30 -54l-449 -255l449 -255l-30 -54l-495 285v48z" />
    <glyph glyph-name="equal" unicode="=" horiz-adv-x="600" 
d="M50 476h500v-62h-500v62zM50 276h500v-62h-500v62z" />
    <glyph glyph-name="greater" unicode="&#x3e;" horiz-adv-x="600" 
d="M562 318l-495 -285l-30 54l449 255l-449 255l30 54l495 -285v-48z" />
    <glyph glyph-name="question" unicode="?" horiz-adv-x="548" 
d="M220 0v109h99v-109h-99zM140 489h-87q-2 46 7.5 84.5t33.5 72t71 52.5t113 19q100 0 158.5 -47.5t58.5 -133.5q0 -56 -23.5 -94t-79.5 -85q-27 -22 -42 -36.5t-29 -41t-14 -55.5v-21h-73q-11 96 45 152q14 16 41 39.5t43.5 39.5t30.5 42.5t14 55.5q0 42 -31 77.5
t-100 35.5q-21 0 -39 -4t-44 -17.5t-41 -48t-13 -86.5z" />
    <glyph glyph-name="at" unicode="@" horiz-adv-x="863" 
d="M588 82l29 -53q-85 -50 -186 -50q-160 0 -265.5 98.5t-105.5 273.5q0 162 107 266t264 104q92 0 164.5 -28.5t117 -78t67.5 -111.5t23 -132q0 -86 -49.5 -155t-132.5 -69q-68 0 -89 48q-24 -54 -122 -54q-81 0 -127 53t-46 144q0 85 45 141t121 56q82 0 118 -55h3v41h76
v-252q0 -35 10 -46.5t28 -11.5q50 0 76 49t26 111q0 138 -87.5 216t-221.5 78q-138 0 -223 -92.5t-85 -221.5q0 -79 27.5 -141.5t72.5 -99t98.5 -55.5t109.5 -19q86 0 157 46zM517 337q0 132 -96 132q-51 0 -75.5 -37.5t-24.5 -94.5q0 -33 7 -60t30.5 -49t61.5 -22
q55 0 76 39.5t21 91.5z" />
    <glyph glyph-name="A" unicode="A" horiz-adv-x="706" 
d="M471 0v79h65l-37 102h-296l-37 -102h64v-79h-230v79h70l205 542h-78v79h208l235 -621h66v-79h-235zM229 260h244l-122 346z" />
    <glyph glyph-name="B" unicode="B" horiz-adv-x="711" 
d="M55 621v79h377q61 0 104 -15.5t64.5 -43t31 -56.5t9.5 -63q0 -56 -34 -99t-83 -51v-3q25 -4 48 -14t46.5 -29t38 -53t14.5 -78q0 -195 -250 -195h-366v79h70v542h-70zM219 324v-245h195q24 0 42.5 2t42 9t39 20t26.5 36.5t11 56.5q0 121 -161 121h-195zM219 621v-218h189
q72 0 104.5 30.5t32.5 78.5q0 18 -5 34.5t-18 34.5t-41.5 29t-69.5 11h-192z" />
    <glyph glyph-name="C" unicode="C" horiz-adv-x="712" 
d="M652 490h-79q-2 23 -12 46t-31.5 48.5t-63 41.5t-98.5 16q-63 0 -108.5 -25t-69.5 -69t-34.5 -94.5t-10.5 -111.5q0 -125 64 -204.5t173 -79.5q83 0 138.5 49t59.5 125h94q-4 -34 -13.5 -65t-31.5 -66.5t-53 -61.5t-82.5 -43t-115.5 -17q-156 0 -244.5 95.5t-88.5 263.5
q0 76 15 138t37 101t54.5 68t60.5 43t61.5 22t51.5 9.5t37 1.5q142 0 216 -93v72h74v-210z" />
    <glyph glyph-name="D" unicode="D" horiz-adv-x="756" 
d="M55 621v79h322q22 0 42 -1.5t56 -9t66 -20.5t64 -39t57 -61.5t38.5 -91.5t15.5 -125q0 -70 -15 -126.5t-37.5 -92.5t-57.5 -62t-66 -39.5t-72.5 -21t-67 -9t-58.5 -1.5h-287v79h70v542h-70zM219 621v-542h126q136 0 203.5 67t67.5 204q0 75 -21 129.5t-57 84.5t-77 43.5
t-89 13.5h-153z" />
    <glyph glyph-name="E" unicode="E" horiz-adv-x="665" 
d="M624 490h-79v131h-326v-220h279v-79h-279v-243h337v141h79v-220h-580v79h70v542h-70v79h569v-210z" />
    <glyph glyph-name="F" unicode="F" horiz-adv-x="615" 
d="M595 490h-79v131h-297v-228h244v-79h-244v-235h70v-79h-234v79h70v542h-70v79h540v-210z" />
    <glyph glyph-name="G" unicode="G" horiz-adv-x="787" 
d="M400 286v79h357v-79h-75v-286h-73v113h-2q-30 -64 -90 -99t-143 -35q-66 0 -122.5 20t-104 62.5t-75 118.5t-27.5 177q0 175 90 269.5t248 94.5q142 0 209 -93v72h73v-210h-79q-5 58 -54 105t-147 47q-63 0 -109.5 -23.5t-70.5 -55.5t-38.5 -76t-18 -73.5t-3.5 -59.5
q0 -15 1.5 -33t7 -48t15 -57.5t27.5 -57t42.5 -51t62 -35.5t83.5 -14q61 0 105 23t66 59.5t31.5 72.5t9.5 73h-196z" />
    <glyph glyph-name="H" unicode="H" horiz-adv-x="797" 
d="M508 0v79h70v250h-359v-250h70v-79h-234v79h70v542h-70v79h234v-79h-70v-213h359v213h-70v79h234v-79h-70v-542h70v-79h-234z" />
    <glyph glyph-name="I" unicode="I" horiz-adv-x="344" 
d="M55 621v79h234v-79h-70v-542h70v-79h-234v79h70v542h-70z" />
    <glyph glyph-name="J" unicode="J" horiz-adv-x="553" 
d="M279 621v79h239v-79h-70v-379q0 -139 -48.5 -201t-162.5 -62q-214 0 -214 217v36h94q0 -88 27 -131t94 -43q69 0 92.5 44t23.5 131v388h-75z" />
    <glyph glyph-name="K" unicode="K" horiz-adv-x="655" 
d="M249 360l218 261h-52v79h217v-79h-58l-214 -256l228 -286h62v-79h-229v79h52zM219 621v-542h70v-79h-234v79h70v542h-70v79h234v-79h-70z" />
    <glyph glyph-name="L" unicode="L" horiz-adv-x="600" 
d="M55 621v79h234v-79h-70v-542h282v156h79v-235h-525v79h70v542h-70z" />
    <glyph glyph-name="M" unicode="M" horiz-adv-x="990" 
d="M701 0v79h70v485l2 27h-3l-237 -591h-76l-238 591h-2l2 -27v-485h70v-79h-234v79h70v542h-70v79h214l229 -581l229 581h208v-79h-70v-542h70v-79h-234z" />
    <glyph glyph-name="N" unicode="N" horiz-adv-x="816" 
d="M527 621v79h234v-79h-70v-621h-103l-369 560v-481h70v-79h-234v79h70v542h-70v79h174l368 -560v481h-70z" />
    <glyph glyph-name="O" unicode="O" horiz-adv-x="758" 
d="M45 350q0 179 91.5 275t242.5 96q49 0 94.5 -11t90 -38t77 -68t52.5 -106.5t20 -147.5q0 -75 -17 -135.5t-41.5 -98.5t-60 -65.5t-65.5 -41t-65.5 -21t-52 -8.5t-32.5 -1q-17 0 -33.5 1t-52 8.5t-65.5 21t-65.5 41t-60 65.5t-41 98.5t-16.5 135.5zM145 350q0 -39 5 -74.5
t20 -76.5t40 -71t68.5 -50t100.5 -20q15 0 28.5 1t38.5 7.5t45.5 17.5t44 33t39.5 51.5t27 76.5t11 105q0 131 -59 211.5t-175 80.5q-61 0 -106.5 -24t-69 -56.5t-37.5 -76.5t-17.5 -74.5t-3.5 -60.5z" />
    <glyph glyph-name="P" unicode="P" horiz-adv-x="675" 
d="M55 621v79h337q114 0 184.5 -51t70.5 -152q0 -98 -67 -158t-198 -60h-163v-200h70v-79h-234v79h70v542h-70zM219 621v-263h159q84 0 128.5 36.5t44.5 102.5q0 60 -45.5 92t-127.5 32h-159z" />
    <glyph glyph-name="Q" unicode="Q" horiz-adv-x="758" 
d="M612 62l79 -87l-52 -49l-83 93q-65 -40 -177 -40q-78 0 -138.5 24.5t-96.5 62t-59 88.5t-31.5 98.5t-8.5 97.5q0 42 6.5 85t28.5 96.5t57 94t97.5 68t144.5 27.5q151 0 242.5 -96t91.5 -275q0 -180 -101 -288zM471 220l79 -89q63 82 63 219q0 74 -18 130t-43.5 86t-60 48
t-60.5 23t-52 5q-28 0 -54 -5t-60.5 -23.5t-59.5 -48t-42.5 -85.5t-17.5 -130q0 -37 5 -72.5t20 -76.5t39.5 -71.5t68.5 -51t101 -20.5q73 0 116 28l-78 87z" />
    <glyph glyph-name="R" unicode="R" horiz-adv-x="731" 
d="M539 0l-106 297h-214v-218h70v-79h-234v79h70v542h-70v79h365q29 0 57 -3.5t64.5 -15.5t63 -32.5t45 -58.5t18.5 -88q0 -58 -36.5 -112t-102.5 -79l74 -232h88v-79h-152zM219 621v-245h201q20 0 42 5t47.5 17t42 39t16.5 65q0 119 -162 119h-187z" />
    <glyph glyph-name="S" unicode="S" horiz-adv-x="656" 
d="M578 500h-79q-4 63 -59 102.5t-121 39.5q-72 0 -111 -31t-39 -86q0 -21 5.5 -37t20.5 -27.5t26 -19t38 -14.5t39 -9.5t46 -9.5q46 -9 76.5 -16.5t70.5 -24.5t63 -38.5t40 -57t17 -81.5q0 -57 -21.5 -98.5t-50 -62.5t-67.5 -33t-63.5 -14.5t-49.5 -2.5q-63 0 -127.5 20.5
t-97.5 72.5v-72h-74v235h79q2 -70 57 -123.5t143 -53.5q87 0 129.5 37.5t42.5 92.5q0 31 -12 53.5t-35 35.5t-43.5 20.5t-50.5 13.5q-10 2 -46.5 10t-47 10.5t-41.5 10.5t-41 12.5t-33.5 15t-32.5 19.5l-23.5 23.5t-20 30t-10.5 36t-5 44.5q0 97 66 147.5t183 50.5
q57 0 107.5 -22.5t80.5 -61.5v63h72v-200z" />
    <glyph glyph-name="T" unicode="T" horiz-adv-x="638" 
d="M202 0v79h70v542h-183v-171h-79v250h618v-250h-79v171h-183v-542h70v-79h-234z" />
    <glyph glyph-name="U" unicode="U" horiz-adv-x="772" 
d="M498 621v79h234v-79h-70v-350q0 -59 -12 -106t-29 -77t-44 -51.5t-50 -32.5t-53.5 -17t-48 -7t-39.5 -1q-73 0 -126.5 19.5t-81.5 47.5t-44 71t-20 76.5t-4 77.5v350h-70v79h234v-79h-70v-338q0 -34 2 -57.5t12 -58t28 -56t54 -37.5t86 -16q101 0 141.5 55t40.5 170v338
h-70z" />
    <glyph glyph-name="V" unicode="V" horiz-adv-x="684" 
d="M0 621v79h234v-79h-63l176 -524l176 524h-62v79h223v-79h-62l-221 -621h-112l-222 621h-67z" />
    <glyph glyph-name="W" unicode="W" horiz-adv-x="989" 
d="M764 621v79h225v-79h-61l-165 -621h-120l-145 589l-145 -589h-120l-165 621h-68v79h232v-79h-60l127 -509l145 588h108l145 -588l126 509h-59z" />
    <glyph glyph-name="X" unicode="X" horiz-adv-x="672" 
d="M20 621v79h231v-79h-55l139 -196l138 196h-55v79h232v-79h-63l-192 -263l209 -279h63v-79h-234v79h54l-152 212l-148 -212h52v-79h-234v79h65l205 279l-193 263h-62z" />
    <glyph glyph-name="Y" unicode="Y" horiz-adv-x="634" 
d="M0 621v79h237v-79h-62l148 -245l146 245h-55v79h220v-79h-60l-209 -329v-213h70v-79h-234v79h70v213l-209 329h-62z" />
    <glyph glyph-name="Z" unicode="Z" horiz-adv-x="614" 
d="M132 490h-79v210h506v-75l-409 -546h350v156h79v-235h-544v86l414 535h-317v-131z" />
    <glyph glyph-name="bracketleft" unicode="[" horiz-adv-x="370" 
d="M106 700h211v-62h-123v-761h123v-62h-211v885z" />
    <glyph glyph-name="backslash" unicode="\" horiz-adv-x="420" 
d="M420 -185h-63l-357 885h63z" />
    <glyph glyph-name="bracketright" unicode="]" horiz-adv-x="370" 
d="M53 700h211v-885h-211v62h122v761h-122v62z" />
    <glyph glyph-name="asciicircum" unicode="^" horiz-adv-x="442" 
d="M176 700h90l120 -218h-70l-95 175l-95 -175h-70z" />
    <glyph glyph-name="underscore" unicode="_" horiz-adv-x="497" 
d="M0 -185v78h497v-78h-497z" />
    <glyph glyph-name="grave" unicode="`" horiz-adv-x="312" 
d="M148 700l70 -132h-80l-96 132h106z" />
    <glyph glyph-name="a" unicode="a" horiz-adv-x="569" 
d="M390 0v72q-25 -46 -72 -69t-102 -23q-84 0 -131.5 38t-47.5 115q0 71 52 109.5t197 51.5q66 4 80 13q19 14 19 57q0 102 -114 102q-135 0 -132 -108h-84q0 29 9 56t31 54t67 43.5t109 16.5q36 0 67.5 -6.5t64.5 -23t52 -53t18 -88.5v-295h64v-62h-147zM385 224v36
q-9 -7 -21.5 -11t-22.5 -5.5t-31.5 -4t-36.5 -4.5q-6 -1 -22.5 -3.5t-22.5 -3.5t-20.5 -4t-20 -5.5t-16 -7t-15 -9t-11.5 -11t-9.5 -14.5t-5 -18.5t-2.5 -22.5q0 -44 27 -69t71 -25q62 0 110.5 44.5t48.5 137.5z" />
    <glyph glyph-name="b" unicode="b" horiz-adv-x="635" 
d="M40 638v62h154v-258q40 86 167 86q62 0 108 -23.5t68.5 -54t36 -73.5t16 -69t2.5 -53q0 -63 -15.5 -113t-39.5 -79.5t-56 -49t-61.5 -26.5t-60.5 -7q-107 0 -168 90h-3v-70h-148v62h66v576h-66zM188 257q0 -111 44 -163t108 -52q70 0 114.5 51t44.5 162q0 107 -43 159
t-111 52q-69 0 -113 -52t-44 -157z" />
    <glyph glyph-name="c" unicode="c" horiz-adv-x="552" 
d="M496 348h-67q-20 118 -144 118q-77 0 -113 -57t-36 -151t39 -155t118 -61q67 0 99.5 43t35.5 96h84q-2 -22 -7.5 -44.5t-21 -52t-38 -51.5t-63 -37.5t-91.5 -15.5q-16 0 -30 1t-41 7t-48.5 16t-46.5 31t-42 49.5t-28.5 73t-11.5 100.5q0 39 6 74t22.5 72t42 63.5
t69.5 43.5t100 17q103 0 148 -66h3v46h62v-160z" />
    <glyph glyph-name="d" unicode="d" horiz-adv-x="633" 
d="M373 638v62h154v-638h66v-62h-148v70h-3q-46 -90 -168 -90q-109 0 -170 75t-61 200q0 36 4.5 69.5t19.5 72t39.5 66.5t67 46.5t98.5 18.5q116 0 167 -86v196h-66zM136 255q0 -55 12 -96t28.5 -62.5t39.5 -34.5t40.5 -16.5t36.5 -3.5q64 0 108 52.5t44 162.5
q0 104 -44.5 156.5t-112.5 52.5t-110 -52.5t-42 -158.5z" />
    <glyph glyph-name="e" unicode="e" horiz-adv-x="570" 
d="M438 147h84q-12 -67 -64.5 -117t-157.5 -50q-52 0 -93.5 13t-67.5 32.5t-45.5 47.5t-29 52t-14.5 53t-6 44t-1 30q0 29 3 56.5t17 70t38.5 73t73.5 53.5t116 23q58 0 101.5 -18t67.5 -44t39 -65.5t20 -71t7 -70.5q0 -4 0.5 -12.5t0.5 -12.5h-391q0 -75 40.5 -133.5
t120.5 -58.5q60 0 96 29.5t45 75.5zM136 296h298q-1 30 -7.5 56t-20.5 53.5t-43 44t-70 16.5q-46 0 -79 -17t-49 -44.5t-22.5 -54t-6.5 -54.5z" />
    <glyph glyph-name="f" unicode="f" horiz-adv-x="313" 
d="M28 0v62h71v384h-84v62h84v69q0 66 32.5 96.5t101.5 30.5q41 0 75 -5v-62q-19 2 -72 2q-49 0 -49 -70v-61h91v-62h-91v-384h71v-62h-230z" />
    <glyph glyph-name="g" unicode="g" horiz-adv-x="627" 
d="M78 -57h84q20 -73 134 -73q33 0 58 9.5t39.5 26t24 33t13 37t4.5 31t1 21.5v55q-35 -57 -71.5 -80t-92.5 -23q-98 0 -163.5 70t-65.5 208q0 21 1.5 37.5t6.5 52.5t19.5 63.5t37 56t63 44.5t92.5 16q127 0 176 -90h3v70h145v-62h-63v-433q0 -55 -19.5 -96t-46 -61t-62 -32
t-57.5 -14.5t-43 -2.5h-26.5t-32 2.5t-38 7.5t-37 15t-36 24t-28 36.5t-20.5 50.5zM292 42q13 0 28.5 3.5t38 17t40 35.5t30.5 64.5t13 97.5q0 98 -40.5 152t-117.5 54q-148 0 -148 -205q0 -58 12.5 -101t30 -65t41.5 -34.5t39.5 -15.5t32.5 -3z" />
    <glyph glyph-name="h" unicode="h" horiz-adv-x="640" 
d="M380 0v62h66v249q0 27 -0.5 39.5t-5.5 39t-15.5 40t-32 25t-52.5 11.5q-23 0 -44 -6.5t-46 -24.5t-40.5 -58.5t-15.5 -99.5v-215h66v-62h-220v62h66v576h-66v62h154v-263q67 91 174 91q166 0 166 -190v-276h66v-62h-220z" />
    <glyph glyph-name="i" unicode="i" horiz-adv-x="300" 
d="M40 446v62h154v-446h66v-62h-220v62h66v384h-66zM106 608v92h88v-92h-88z" />
    <glyph glyph-name="j" unicode="j" horiz-adv-x="262" 
d="M38 446v62h154v-555q0 -72 -26.5 -107t-93.5 -35q-9 0 -57 4v62q19 3 30.5 5t22.5 6.5t16 5t10 8t6.5 9t2.5 14t1 16.5v23v482h-66zM104 608v92h88v-92h-88z" />
    <glyph glyph-name="k" unicode="k" horiz-adv-x="543" 
d="M40 638v62h154v-638h66v-62h-220v62h66v576h-66zM219 266l152 180h-49v62h198v-62h-58l-152 -177l166 -207h67v-62h-116z" />
    <glyph glyph-name="l" unicode="l" horiz-adv-x="300" 
d="M40 638v62h154v-638h66v-62h-220v62h66v576h-66z" />
    <glyph glyph-name="m" unicode="m" horiz-adv-x="940" 
d="M363 0v62h63v259q0 145 -98 145q-56 0 -95 -45t-39 -118v-241h63v-62h-217v62h66v384h-66v62h154v-73q20 44 63.5 68.5t92.5 24.5q61 0 97.5 -32t47.5 -77q19 40 62.5 74.5t113.5 34.5q163 0 163 -200v-266h66v-62h-217v62h63v260q0 144 -98 144q-55 0 -94.5 -37
t-39.5 -126v-241h63v-62h-214z" />
    <glyph glyph-name="n" unicode="n" horiz-adv-x="641" 
d="M381 0v62h66v249q0 25 -0.5 38t-6 39t-15.5 40t-32 26t-53 12q-23 0 -44 -6.5t-46 -24.5t-40.5 -58.5t-15.5 -99.5v-215h66v-62h-220v62h66v384h-66v62h154v-71q62 91 174 91q167 0 167 -190v-276h66v-62h-220z" />
    <glyph glyph-name="o" unicode="o" horiz-adv-x="586" 
d="M43 254q0 53 13.5 100t41.5 87t78 63.5t117 23.5t117 -23.5t78 -63.5t41.5 -87t13.5 -100t-13.5 -100t-41.5 -87t-78 -63.5t-117 -23.5t-117 23.5t-78 63.5t-41.5 87t-13.5 100zM136 255q0 -58 13 -100.5t30.5 -63t42 -33t39.5 -14.5t32 -2t32 2t39.5 14.5t42 33t30.5 63
t13 100.5t-13 100.5t-30.5 63t-42 33t-39.5 14.5t-32 2t-32 -2t-39.5 -14.5t-42 -33t-30.5 -63t-13 -100.5z" />
    <glyph glyph-name="p" unicode="p" horiz-adv-x="631" 
d="M40 446v62h148v-70h3q60 90 168 90q100 0 164.5 -69t64.5 -205q0 -138 -65.5 -206t-161.5 -68q-13 0 -29.5 2.5t-43.5 10.5t-52.5 28.5t-41.5 51.5v-196h66v-62h-220v62h66v569h-66zM188 252q0 -107 48.5 -158.5t108.5 -51.5q62 0 106 50.5t44 161.5q0 100 -40.5 156
t-114.5 56q-17 0 -33.5 -3.5t-39 -17t-39 -35t-28.5 -62.5t-12 -96z" />
    <glyph glyph-name="q" unicode="q" horiz-adv-x="632" 
d="M592 -123v-62h-220v62h66v195q-48 -92 -167 -92q-55 0 -97.5 19.5t-66.5 48.5t-39 68t-20 72t-5 66q0 118 59.5 196t171.5 78q109 0 167 -90h3v70h148v-62h-66v-569h66zM136 254q0 -112 44.5 -162t107.5 -50q60 0 108 51t48 159q0 115 -44.5 164.5t-106.5 49.5
q-69 0 -113 -51.5t-44 -160.5z" />
    <glyph glyph-name="r" unicode="r" horiz-adv-x="403" 
d="M40 446v62h154v-98h2q17 54 64 84.5t104 32.5l26 1v-62q-93 -4 -141 -45t-54 -133q-1 -9 -1 -27v-199h66v-62h-220v62h66v384h-66z" />
    <glyph glyph-name="s" unicode="s" horiz-adv-x="524" 
d="M390 508h59v-140h-62q-2 11 -8 25t-19 32t-39 29.5t-60 11.5q-11 0 -22 -1.5t-32.5 -7.5t-35 -24.5t-13.5 -46.5q0 -13 3.5 -24t7.5 -18.5t14.5 -14.5t16 -11t21.5 -8.5t22.5 -6t26.5 -6t26 -5.5q91 -21 134.5 -52t43.5 -100q0 -44 -17 -76t-39 -47.5t-54 -24.5
t-49.5 -10.5t-36.5 -1.5q-45 0 -88.5 17t-67.5 53h-3v-50h-62v175h62q6 -60 46.5 -96.5t98.5 -36.5q119 0 119 89q0 21 -4.5 34t-29 29.5t-70.5 27.5l-54 12q-77 17 -117.5 47.5t-40.5 100.5q0 75 52.5 110.5t130.5 35.5q44 0 81.5 -16.5t55.5 -43.5h3v40z" />
    <glyph glyph-name="t" unicode="t" horiz-adv-x="320" 
d="M13 508h91v152h88v-152h108v-62h-108v-323v-5q0 -23 1.5 -34t14 -21t37.5 -10q24 0 55 9v-62q-47 -20 -92 -20q-30 0 -51 8.5t-31 19.5t-15.5 31t-6 31.5t-0.5 34.5v341h-91v62z" />
    <glyph glyph-name="u" unicode="u" horiz-adv-x="641" 
d="M535 508v-446h66v-62h-154v72h-2q-23 -40 -64.5 -62.5t-65 -26t-42.5 -3.5q-167 0 -167 191v275h-66v62h154v-311q0 -89 27 -122t80 -33q146 0 146 189v215h-66v62h154z" />
    <glyph glyph-name="v" unicode="v" horiz-adv-x="541" 
d="M-10 446v62h215v-62h-57l125 -358l123 358h-63v62h218v-62h-63l-166 -446h-102l-167 446h-63z" />
    <glyph glyph-name="w" unicode="w" horiz-adv-x="800" 
d="M596 446v62h214v-62h-65l-147 -446h-94l-106 407l-106 -407h-94l-147 446h-61v62h211v-62h-60l108 -345l106 407h86l106 -407l108 345h-59z" />
    <glyph glyph-name="x" unicode="x" horiz-adv-x="539" 
d="M322 0v62h55l-107 149l-106 -149h55v-62h-214v62h63l152 203l-141 181h-53v62h207v-62h-56l93 -128l91 128h-52v62h203v-62h-55l-137 -181l157 -203h57v-62h-212z" />
    <glyph glyph-name="y" unicode="y" horiz-adv-x="558" 
d="M-10 446v62h231v-62h-62l139 -349l114 349h-64v62h220v-62h-69l-236 -631h-140v62h87l43 123l-196 446h-67z" />
    <glyph glyph-name="z" unicode="z" horiz-adv-x="470" 
d="M382 175h62v-175h-418v62l304 384h-221v-98h-62v160h380v-62l-295 -384h250v113z" />
    <glyph glyph-name="braceleft" unicode="{" horiz-adv-x="366" 
d="M75 224v66q34 3 61.5 33.5t27.5 101.5q0 18 -2 54t-2 53q0 159 156 168v-53q-70 -15 -70 -95q0 -26 3 -53q3 -29 3 -57q0 -69 -27.5 -112.5t-88.5 -71.5v-2q61 -28 88.5 -71.5t27.5 -112.5q0 -28 -3 -57q-3 -27 -3 -53q0 -80 70 -95v-53q-156 9 -156 168q0 17 2 53t2 54
q0 121 -89 135z" />
    <glyph glyph-name="bar" unicode="|" horiz-adv-x="478" 
d="M208 -224v1053h62v-1053h-62z" />
    <glyph glyph-name="braceright" unicode="}" horiz-adv-x="366" 
d="M291 290v-66q-89 -14 -89 -135q0 -18 2 -54t2 -53q0 -159 -156 -168v53q70 15 70 95q0 26 -3 53q-3 29 -3 57q0 69 27.5 112.5t88.5 71.5v2q-61 28 -88.5 71.5t-27.5 112.5q0 28 3 57q3 27 3 53q0 80 -70 95v53q156 -9 156 -168q0 -17 -2 -53t-2 -54q0 -71 27.5 -101.5
t61.5 -33.5z" />
    <glyph glyph-name="asciitilde" unicode="~" horiz-adv-x="600" 
d="M89 288l-39 16q19 51 52 89.5t81 38.5q46 0 87 -23l103 -55q1 -1 7.5 -4t19.5 -6t25 -3q54 0 86 81l39 -16q-17 -50 -51 -89t-82 -39q-46 0 -87 23l-103 55q-28 13 -53 13q-28 0 -50.5 -23t-34.5 -58z" />
    <glyph glyph-name="Zcaron" horiz-adv-x="614" 
d="M132 490h-79v210h506v-75l-409 -546h350v156h79v-235h-544v86l414 535h-317v-131zM376 760h-142l-125 140h94l102 -105l102 105h94z" />
    <glyph glyph-name="Zcaron" unicode="&#x17d;" horiz-adv-x="614" 
d="M132 490h-79v210h506v-75l-409 -546h350v156h79v-235h-544v86l414 535h-317v-131zM376 760h-142l-125 140h94l102 -105l102 105h94z" />
    <glyph glyph-name="zcaron" horiz-adv-x="470" 
d="M382 175h62v-175h-418v62l304 384h-221v-98h-62v160h380v-62l-295 -384h250v113zM312 568h-132l-119 132h88l97 -99l97 99h88z" />
    <glyph glyph-name="zcaron" unicode="&#x17e;" horiz-adv-x="470" 
d="M382 175h62v-175h-418v62l304 384h-221v-98h-62v160h380v-62l-295 -384h250v113zM312 568h-132l-119 132h88l97 -99l97 99h88z" />
    <glyph glyph-name="uni00A0" unicode="&#xa0;" horiz-adv-x="233" 
 />
    <glyph glyph-name="exclamdown" unicode="&#xa1;" horiz-adv-x="311" 
d="M205 -192h-99v269l25 230h49l25 -230v-269zM106 399v109h99v-109h-99z" />
    <glyph glyph-name="cent" unicode="&#xa2;" 
d="M513 348h-67q-11 57 -42.5 83.5t-69.5 31.5v-419q55 7 81.5 48t29.5 89h84q-2 -27 -11 -54.5t-28.5 -61t-59.5 -56.5t-96 -28v-73h-59v74q-215 23 -215 276q0 47 9.5 88.5t31.5 82.5t66.5 67t107.5 31v67h59v-68q77 -11 114 -64h3v46h62v-160zM153 258q0 -82 30 -141
t92 -72v419q-122 -18 -122 -206z" />
    <glyph glyph-name="sterling" unicode="&#xa3;" 
d="M507 106l44 -60q-33 -33 -62.5 -50t-69.5 -17q-39 0 -109 26t-97 26q-57 0 -108 -38l-45 65q101 71 101 167q0 25 -16 79h-104v61h73q-22 45 -30 73t-8 67q0 59 21.5 102.5t49 64.5t63.5 33t55 14t34 2q118 0 167 -78v57h74v-219h-89v33q0 58 -40.5 100t-100.5 42
q-67 0 -104.5 -44t-37.5 -113q0 -11 1 -20t3.5 -19.5t4.5 -16.5t7.5 -18t8 -17.5t11 -21t11.5 -21.5h141v-61h-117q9 -27 9 -62q0 -85 -65 -144l2 -6q26 11 73 11q28 0 86 -21.5t78 -21.5q48 0 85 46z" />
    <glyph glyph-name="currency" unicode="&#xa4;" 
d="M-56 53l111 111q-52 75 -52 166q0 95 52 166l-111 112l66 66l110 -112q74 57 170 57q102 0 170 -57l111 112l66 -66l-111 -112q53 -72 53 -166q0 -90 -53 -166l111 -111l-66 -66l-111 111q-73 -56 -170 -56q-104 0 -170 56l-110 -111zM77 330q0 -88 62.5 -151t150.5 -63
q89 0 152 63.5t63 150.5q0 88 -63.5 151.5t-151.5 63.5q-87 0 -150 -63.5t-63 -151.5z" />
    <glyph glyph-name="yen" unicode="&#xa5;" 
d="M120 200h124v42h-124v54h121l-201 325h-62v79h237v-79h-62l143 -255l141 255h-55v79h220v-79h-60l-202 -325h124v-54h-126v-42h126v-54h-126v-67h70v-79h-234v79h70v67h-124v54z" />
    <glyph glyph-name="brokenbar" unicode="&#xa6;" horiz-adv-x="478" 
d="M208 206h62v-430h-62v430zM270 399h-62v430h62v-430z" />
    <glyph glyph-name="section" unicode="&#xa7;" horiz-adv-x="579" 
d="M94 -123v155h84q-3 -41 24 -75.5t76 -34.5q50 0 71 22t21 54q0 14 -3.5 26t-12 22t-16 16.5t-23.5 15t-25 12.5t-31 12.5t-32 12.5q-33 13 -56.5 27t-50.5 37t-41.5 57.5t-14.5 77.5q0 67 33 106.5t86 52.5q-53 40 -53 117q0 56 42 93.5t119 37.5t111 -52v31h72v-147h-81
q-3 102 -103 102q-75 0 -75 -67q0 -18 7 -33t15 -25t26.5 -20.5t29.5 -15.5t36.5 -15t36.5 -15q75 -32 112 -76t37 -114q0 -39 -13.5 -69.5t-35 -48t-38.5 -27t-35 -14.5q61 -31 61 -111q0 -49 -21 -81.5t-54.5 -45.5t-56 -17t-43.5 -4q-84 0 -113 48v-27h-72zM332 150
q38 10 68 41.5t30 86.5q0 52 -38.5 85.5t-147.5 72.5q-96 -27 -96 -117q0 -15 2.5 -27.5t5.5 -22.5t11.5 -20.5t13 -17t18.5 -16t20 -13.5t25 -13t26 -12t30.5 -13.5t31.5 -13.5z" />
    <glyph glyph-name="dieresis" unicode="&#xa8;" horiz-adv-x="386" 
d="M50 608v92h88v-92h-88zM248 608v92h88v-92h-88z" />
    <glyph glyph-name="copyright" unicode="&#xa9;" horiz-adv-x="820" 
d="M60 350q0 145 102 247.5t248 102.5t248 -102.5t102 -247.5t-102 -247.5t-248 -102.5t-248 102.5t-102 247.5zM126 350q0 -124 82.5 -210.5t201.5 -86.5t201.5 86.5t82.5 210.5t-82.5 210.5t-201.5 86.5t-201.5 -86.5t-82.5 -210.5zM548 420h-62q-9 69 -76 69
q-94 0 -94 -138q0 -25 6 -51t30 -52t63 -26q40 0 57 23.5t20 51.5h66q-22 -125 -144 -125q-48 0 -83 18t-52 47t-24 57t-7 57q0 102 48.5 145t111.5 43q62 0 92 -48v38h48v-109z" />
    <glyph glyph-name="ordfeminine" unicode="&#xaa;" horiz-adv-x="368" 
d="M106 619h-50q0 41 28.5 71.5t101.5 30.5q34 0 58.5 -9t35.5 -20t17.5 -28t7 -25.5t0.5 -20.5v-177h32v-39h-83v44q-35 -54 -101 -54q-108 0 -108 92q0 29 13.5 48t39.5 28.5t43 12.5t44 6h3.5t3.5 0.5t3 0.5q22 2 28 2.5t16 4.5t12.5 12t2.5 23q0 8 -1 14.5t-6.5 19.5
t-21 20.5t-39.5 7.5q-77 0 -80 -65zM253 534l1 26q-4 -4 -8.5 -5.5t-9.5 -2.5t-20 -3t-29 -4q-3 0 -15 -2t-15 -3t-13 -3t-13 -4t-10 -5t-9 -6.5t-6 -9t-5 -12t-1 -14.5q0 -27 16 -42t43 -15q36 0 64 24t30 81zM37 319v37h299v-37h-299z" />
    <glyph glyph-name="guillemotleft" unicode="&#xab;" horiz-adv-x="462" 
d="M105 272l106 -90v-82l-149 131v82l149 131v-82zM281 272l106 -90v-82l-149 131v82l149 131v-82z" />
    <glyph glyph-name="logicalnot" unicode="&#xac;" horiz-adv-x="600" 
d="M50 386h500v-202h-62v140h-438v62z" />
    <glyph glyph-name="uni00AD" unicode="&#xad;" horiz-adv-x="371" 
d="M50 230v79h271v-79h-271z" />
    <glyph glyph-name="registered" unicode="&#xae;" horiz-adv-x="648" 
d="M60 436q0 110 77 187t187 77t187 -77t77 -187t-77 -187t-187 -77t-187 77t-77 187zM374 320l-49 96h-42v-59h24v-37h-104v37h29v170h-29v37h151q32 0 57 -18t25 -55q0 -23 -17 -44.5t-43 -26.5l38 -63h32v-37h-72zM283 527v-73h46q49 0 49 36q0 37 -54 37h-41zM123 435
q0 -84 58 -143.5t142 -59.5q83 0 142 60t59 143q0 84 -59 144.5t-142 60.5t-141.5 -60.5t-58.5 -144.5z" />
    <glyph glyph-name="overscore" unicode="&#xaf;" horiz-adv-x="416" 
d="M50 613v60h316v-60h-316z" />
    <glyph glyph-name="degree" unicode="&#xb0;" horiz-adv-x="266" 
d="M37 605q0 40 28 68t68 28t68 -28t28 -68t-28 -68t-68 -28t-68 28t-28 68zM83 605q0 -20 15 -35t35 -15t35 15t15 35t-15 35t-35 15t-35 -15t-15 -35z" />
    <glyph glyph-name="plusminus" unicode="&#xb1;" horiz-adv-x="600" 
d="M50 451h219v199h62v-199h219v-62h-219v-179h-62v179h-219v62zM50 142h500v-62h-500v62z" />
    <glyph glyph-name="twosuperior" unicode="&#xb2;" horiz-adv-x="360" 
d="M186 419q-45 -28 -63.5 -48.5t-22.5 -42.5h183v88h48v-136h-294q1 48 20.5 83.5t44 55.5t75.5 52q44 27 66 51t22 63q0 31 -19 55.5t-65 24.5q-42 0 -64.5 -22t-22.5 -61v-16h-56v13q0 11 2 24t10.5 34t22.5 36.5t42.5 27.5t66.5 12q65 0 103 -33t38 -95q0 -17 -4 -32
t-8 -26.5t-15 -24t-17 -19.5t-22 -18.5t-22 -15t-25.5 -15.5t-23.5 -15z" />
    <glyph glyph-name="threesuperior" unicode="&#xb3;" horiz-adv-x="360" 
d="M34 408h54q0 -51 29.5 -72t60.5 -21q9 0 18 1t23.5 6t24.5 13.5t18 25.5t8 40q0 35 -20 54.5t-54 19.5h-43v48h17q90 0 90 72q0 27 -18.5 48.5t-62.5 21.5q-77 0 -82 -93h-52q0 57 30.5 99t105.5 42q61 0 97 -31t36 -85q0 -71 -69 -93v-3q35 -6 58 -32.5t23 -71.5
q0 -60 -39.5 -95t-105.5 -35q-43 0 -73 13.5t-45 37t-21.5 45t-7.5 45.5z" />
    <glyph glyph-name="acute" unicode="&#xb4;" horiz-adv-x="312" 
d="M164 700h106l-96 -132h-80z" />
    <glyph glyph-name="mu" unicode="&#xb5;" horiz-adv-x="641" 
d="M535 508v-446h66v-62h-154v72h-2q-19 -49 -62 -70.5t-73 -21.5q-77 0 -116 64v-229h-88v631h-66v62h154v-271q0 -93 30 -144t90 -51q22 0 40 5.5t31 13.5t23 21.5t16.5 26t11.5 30t7 30t3 30t1 26v22v14.5v185h-66v62h154z" />
    <glyph glyph-name="mu" unicode="&#x3bc;" horiz-adv-x="641" 
d="M535 508v-446h66v-62h-154v72h-2q-19 -49 -62 -70.5t-73 -21.5q-77 0 -116 64v-229h-88v631h-66v62h154v-271q0 -93 30 -144t90 -51q22 0 40 5.5t31 13.5t23 21.5t16.5 26t11.5 30t7 30t3 30t1 26v22v14.5v185h-66v62h154z" />
    <glyph glyph-name="paragraph" unicode="&#xb6;" horiz-adv-x="491" 
d="M362 -185v832h-95v-832h-62v555q-70 2 -117.5 48.5t-47.5 116.5q0 69 48.5 117t116.5 48h293v-53h-74v-832h-62z" />
    <glyph glyph-name="middot" unicode="&#xb7;" horiz-adv-x="250" 
d="M76 213v110h99v-110h-99z" />
    <glyph glyph-name="cedilla" unicode="&#xb8;" horiz-adv-x="298" 
d="M43 -232l17 56q22 -8 62 -8q63 0 63 37t-59 37h-27h-17l15 52h32q133 0 133 -88q0 -35 -28.5 -64.5t-99.5 -29.5q-37 0 -91 8z" />
    <glyph glyph-name="onesuperior" unicode="&#xb9;" horiz-adv-x="360" 
d="M78 652v48h139v-372h83v-48h-222v48h83v324h-83z" />
    <glyph glyph-name="ordmasculine" unicode="&#xba;" horiz-adv-x="385" 
d="M43 557q0 41 11.5 75.5t47 61.5t90.5 27q81 0 115.5 -49t34.5 -115q0 -30 -7 -56.5t-22.5 -52.5t-46.5 -41t-74 -15q-42 0 -72.5 15t-46.5 40.5t-23 52.5t-7 57zM99 557q0 -128 93 -128q26 0 44.5 11.5t28 26t14.5 35.5t6 32t1 23q0 127 -94 127q-93 0 -93 -127zM43 319
v37h299v-37h-299z" />
    <glyph glyph-name="guillemotright" unicode="&#xbb;" horiz-adv-x="462" 
d="M357 272l-106 90v82l149 -131v-82l-149 -131v82zM181 272l-106 90v82l149 -131v-82l-149 -131v82z" />
    <glyph glyph-name="onequarter" unicode="&#xbc;" horiz-adv-x="833" 
d="M522 145h144v201zM78 652v48h139v-372h83v-48h-222v48h83v324h-83zM180 0l454 700h58l-454 -700h-58zM613 0v48h53v49h-198v48l197 275h57v-275h66v-48h-66v-49h53v-48h-162z" />
    <glyph glyph-name="onehalf" unicode="&#xbd;" horiz-adv-x="860" 
d="M78 652v48h139v-372h83v-48h-222v48h83v324h-83zM180 0l454 700h58l-454 -700h-58zM677 139q-45 -28 -63.5 -48.5t-22.5 -42.5h183v88h48v-136h-294q1 48 20.5 83.5t44 55.5t75.5 52q44 27 66 51t22 63q0 31 -19 55.5t-65 24.5q-42 0 -64.5 -22t-22.5 -61v-16h-56v13
q0 11 2 24t10.5 34t22.5 36.5t42.5 27.5t66.5 12q65 0 103 -33t38 -95q0 -17 -4 -32t-8 -26.5t-15 -24t-17 -19.5t-22 -18.5t-22 -15t-25.5 -15.5t-23.5 -15z" />
    <glyph glyph-name="threequarters" unicode="&#xbe;" horiz-adv-x="849" 
d="M538 145h144v201zM34 408h54q0 -51 29.5 -72t60.5 -21q9 0 18 1t23.5 6t24.5 13.5t18 25.5t8 40q0 35 -20 54.5t-54 19.5h-43v48h17q90 0 90 72q0 27 -18.5 48.5t-62.5 21.5q-77 0 -82 -93h-52q0 57 30.5 99t105.5 42q61 0 97 -31t36 -85q0 -71 -69 -93v-3
q35 -6 58 -32.5t23 -71.5q0 -60 -39.5 -95t-105.5 -35q-43 0 -73 13.5t-45 37t-21.5 45t-7.5 45.5zM194 0l454 700h58l-454 -700h-58zM629 0v48h53v49h-198v48l197 275h57v-275h66v-48h-66v-49h53v-48h-162z" />
    <glyph glyph-name="questiondown" unicode="&#xbf;" horiz-adv-x="548" 
d="M328 508v-109h-99v109h99zM408 19h87q2 -46 -7.5 -84.5t-33.5 -72t-71 -52.5t-113 -19q-100 0 -158.5 47.5t-58.5 133.5q0 56 23.5 94t79.5 85q27 22 42 36.5t29 41t14 55.5v21h73q11 -96 -45 -152q-14 -16 -41 -39.5t-43.5 -39.5t-30.5 -42.5t-14 -55.5q0 -42 31 -77.5
t100 -35.5q21 0 39 4t44 17.5t41 48t13 86.5z" />
    <glyph glyph-name="Agrave" unicode="&#xc0;" horiz-adv-x="706" 
d="M471 0v79h65l-37 102h-296l-37 -102h64v-79h-230v79h70l205 542h-78v79h208l235 -621h66v-79h-235zM229 260h244l-122 346zM327 900l75 -140h-84l-103 140h112z" />
    <glyph glyph-name="Aacute" unicode="&#xc1;" horiz-adv-x="706" 
d="M471 0v79h65l-37 102h-296l-37 -102h64v-79h-230v79h70l205 542h-78v79h208l235 -621h66v-79h-235zM229 260h244l-122 346zM372 900h112l-102 -140h-84z" />
    <glyph glyph-name="Acircumflex" unicode="&#xc2;" horiz-adv-x="706" 
d="M471 0v79h65l-37 102h-296l-37 -102h64v-79h-230v79h70l205 542h-78v79h208l235 -621h66v-79h-235zM229 260h244l-122 346zM139 760l125 140h142l125 -140h-94l-102 105l-102 -105h-94z" />
    <glyph glyph-name="Atilde" unicode="&#xc3;" horiz-adv-x="706" 
d="M471 0v79h65l-37 102h-296l-37 -102h64v-79h-230v79h70l205 542h-78v79h208l235 -621h66v-79h-235zM229 260h244l-122 346zM476 875h65q-7 -48 -38 -81.5t-85 -33.5q-30 0 -84.5 27.5t-82.5 27.5q-48 0 -59 -44h-66q6 46 40 79t85 33q41 0 89.5 -27.5t75.5 -27.5
q49 0 60 47z" />
    <glyph glyph-name="Adieresis" unicode="&#xc4;" horiz-adv-x="706" 
d="M471 0v79h65l-37 102h-296l-37 -102h64v-79h-230v79h70l205 542h-78v79h208l235 -621h66v-79h-235zM229 260h244l-122 346zM176 772v79h94v-79h-94zM392 772v79h94v-79h-94z" />
    <glyph glyph-name="Aring" unicode="&#xc5;" horiz-adv-x="706" 
d="M471 0v79h65l-37 102h-296l-37 -102h64v-79h-230v79h70l205 542h-78v79h208l235 -621h66v-79h-235zM229 260h244l-122 346zM239 828q0 42 28 70t70 28t70 -28t28 -70t-28 -70t-70 -28t-70 28t-28 70zM281 828q0 -23 16.5 -39.5t39.5 -16.5t39.5 16.5t16.5 39.5
t-16.5 39.5t-39.5 16.5t-39.5 -16.5t-16.5 -39.5z" />
    <glyph glyph-name="AE" unicode="&#xc6;" horiz-adv-x="1034" 
d="M993 490h-79v131h-326v-220h279v-79h-279v-243h337v141h79v-220h-580v79h70v102h-264l-56 -102h60v-79h-234v79h73l302 542h-66v79h684v-210zM494 260v361h-27l-195 -361h222z" />
    <glyph glyph-name="Ccedilla" unicode="&#xc7;" horiz-adv-x="712" 
d="M652 490h-79q-2 23 -12 46t-31.5 48.5t-63 41.5t-98.5 16q-63 0 -108.5 -25t-69.5 -69t-34.5 -94.5t-10.5 -111.5q0 -125 64 -204.5t173 -79.5q83 0 138.5 49t59.5 125h94q-4 -34 -13.5 -65t-31.5 -66.5t-53 -61.5t-82.5 -43t-115.5 -17q-156 0 -244.5 95.5t-88.5 263.5
q0 76 15 138t37 101t54.5 68t60.5 43t61.5 22t51.5 9.5t37 1.5q142 0 216 -93v72h74v-210zM234 -248l19 61q22 -8 67 -8q69 0 69 40t-65 40h-29h-18l16 57h35q145 0 145 -97q0 -38 -31 -69.5t-108 -31.5q-42 0 -100 8z" />
    <glyph glyph-name="Egrave" unicode="&#xc8;" horiz-adv-x="665" 
d="M624 490h-79v131h-326v-220h279v-79h-279v-243h337v141h79v-220h-580v79h70v542h-70v79h569v-210zM338 900l75 -140h-84l-103 140h112z" />
    <glyph glyph-name="Eacute" unicode="&#xc9;" horiz-adv-x="665" 
d="M624 490h-79v131h-326v-220h279v-79h-279v-243h337v141h79v-220h-580v79h70v542h-70v79h569v-210zM359 900h112l-102 -140h-84z" />
    <glyph glyph-name="Ecircumflex" unicode="&#xca;" horiz-adv-x="665" 
d="M624 490h-79v131h-326v-220h279v-79h-279v-243h337v141h79v-220h-580v79h70v542h-70v79h569v-210zM154 760l125 140h142l125 -140h-94l-102 105l-102 -105h-94z" />
    <glyph glyph-name="Edieresis" unicode="&#xcb;" horiz-adv-x="665" 
d="M624 490h-79v131h-326v-220h279v-79h-279v-243h337v141h79v-220h-580v79h70v542h-70v79h569v-210zM191 772v79h94v-79h-94zM407 772v79h94v-79h-94z" />
    <glyph glyph-name="Igrave" unicode="&#xcc;" horiz-adv-x="344" 
d="M55 621v79h234v-79h-70v-542h70v-79h-234v79h70v542h-70zM147 900l75 -140h-84l-103 140h112z" />
    <glyph glyph-name="Iacute" unicode="&#xcd;" horiz-adv-x="344" 
d="M55 621v79h234v-79h-70v-542h70v-79h-234v79h70v542h-70zM200 900h112l-102 -140h-84z" />
    <glyph glyph-name="Icircumflex" unicode="&#xce;" horiz-adv-x="344" 
d="M55 621v79h234v-79h-70v-542h70v-79h-234v79h70v542h-70zM-23 760l125 140h142l125 -140h-94l-102 105l-102 -105h-94z" />
    <glyph glyph-name="Idieresis" unicode="&#xcf;" horiz-adv-x="344" 
d="M55 621v79h234v-79h-70v-542h70v-79h-234v79h70v542h-70zM18 772v79h94v-79h-94zM234 772v79h94v-79h-94z" />
    <glyph glyph-name="Eth" unicode="&#xd0;" horiz-adv-x="756" 
d="M55 621v79h322q22 0 42 -1.5t56 -9t66 -20.5t64 -39t57 -61.5t38.5 -91.5t15.5 -125q0 -70 -15 -126.5t-37.5 -92.5t-57.5 -62t-66 -39.5t-72.5 -21t-67 -9t-58.5 -1.5h-287v79h70v257h-94v62h94v223h-70zM219 621v-223h198v-62h-198v-257h126q136 0 203.5 67t67.5 204
q0 75 -21 129.5t-57 84.5t-77 43.5t-89 13.5h-153z" />
    <glyph glyph-name="Ntilde" unicode="&#xd1;" horiz-adv-x="816" 
d="M527 621v79h234v-79h-70v-621h-103l-369 560v-481h70v-79h-234v79h70v542h-70v79h174l368 -560v481h-70zM547 875h65q-7 -48 -38 -81.5t-85 -33.5q-30 0 -84.5 27.5t-82.5 27.5q-48 0 -59 -44h-66q6 46 40 79t85 33q41 0 89.5 -27.5t75.5 -27.5q49 0 60 47z" />
    <glyph glyph-name="Ograve" unicode="&#xd2;" horiz-adv-x="758" 
d="M45 350q0 179 91.5 275t242.5 96q49 0 94.5 -11t90 -38t77 -68t52.5 -106.5t20 -147.5q0 -75 -17 -135.5t-41.5 -98.5t-60 -65.5t-65.5 -41t-65.5 -21t-52 -8.5t-32.5 -1q-17 0 -33.5 1t-52 8.5t-65.5 21t-65.5 41t-60 65.5t-41 98.5t-16.5 135.5zM145 350q0 -39 5 -74.5
t20 -76.5t40 -71t68.5 -50t100.5 -20q15 0 28.5 1t38.5 7.5t45.5 17.5t44 33t39.5 51.5t27 76.5t11 105q0 131 -59 211.5t-175 80.5q-61 0 -106.5 -24t-69 -56.5t-37.5 -76.5t-17.5 -74.5t-3.5 -60.5zM364 900l75 -140h-84l-103 140h112z" />
    <glyph glyph-name="Oacute" unicode="&#xd3;" horiz-adv-x="758" 
d="M45 350q0 179 91.5 275t242.5 96q49 0 94.5 -11t90 -38t77 -68t52.5 -106.5t20 -147.5q0 -75 -17 -135.5t-41.5 -98.5t-60 -65.5t-65.5 -41t-65.5 -21t-52 -8.5t-32.5 -1q-17 0 -33.5 1t-52 8.5t-65.5 21t-65.5 41t-60 65.5t-41 98.5t-16.5 135.5zM145 350q0 -39 5 -74.5
t20 -76.5t40 -71t68.5 -50t100.5 -20q15 0 28.5 1t38.5 7.5t45.5 17.5t44 33t39.5 51.5t27 76.5t11 105q0 131 -59 211.5t-175 80.5q-61 0 -106.5 -24t-69 -56.5t-37.5 -76.5t-17.5 -74.5t-3.5 -60.5zM396 900h112l-102 -140h-84z" />
    <glyph glyph-name="Ocircumflex" unicode="&#xd4;" horiz-adv-x="758" 
d="M45 350q0 179 91.5 275t242.5 96q49 0 94.5 -11t90 -38t77 -68t52.5 -106.5t20 -147.5q0 -75 -17 -135.5t-41.5 -98.5t-60 -65.5t-65.5 -41t-65.5 -21t-52 -8.5t-32.5 -1q-17 0 -33.5 1t-52 8.5t-65.5 21t-65.5 41t-60 65.5t-41 98.5t-16.5 135.5zM145 350q0 -39 5 -74.5
t20 -76.5t40 -71t68.5 -50t100.5 -20q15 0 28.5 1t38.5 7.5t45.5 17.5t44 33t39.5 51.5t27 76.5t11 105q0 131 -59 211.5t-175 80.5q-61 0 -106.5 -24t-69 -56.5t-37.5 -76.5t-17.5 -74.5t-3.5 -60.5zM183 760l125 140h142l125 -140h-94l-102 105l-102 -105h-94z" />
    <glyph glyph-name="Otilde" unicode="&#xd5;" horiz-adv-x="758" 
d="M45 350q0 179 91.5 275t242.5 96q49 0 94.5 -11t90 -38t77 -68t52.5 -106.5t20 -147.5q0 -75 -17 -135.5t-41.5 -98.5t-60 -65.5t-65.5 -41t-65.5 -21t-52 -8.5t-32.5 -1q-17 0 -33.5 1t-52 8.5t-65.5 21t-65.5 41t-60 65.5t-41 98.5t-16.5 135.5zM145 350q0 -39 5 -74.5
t20 -76.5t40 -71t68.5 -50t100.5 -20q15 0 28.5 1t38.5 7.5t45.5 17.5t44 33t39.5 51.5t27 76.5t11 105q0 131 -59 211.5t-175 80.5q-61 0 -106.5 -24t-69 -56.5t-37.5 -76.5t-17.5 -74.5t-3.5 -60.5zM521 875h65q-7 -48 -38 -81.5t-85 -33.5q-30 0 -84.5 27.5t-82.5 27.5
q-48 0 -59 -44h-66q6 46 40 79t85 33q41 0 89.5 -27.5t75.5 -27.5q49 0 60 47z" />
    <glyph glyph-name="Odieresis" unicode="&#xd6;" horiz-adv-x="758" 
d="M45 350q0 179 91.5 275t242.5 96q49 0 94.5 -11t90 -38t77 -68t52.5 -106.5t20 -147.5q0 -75 -17 -135.5t-41.5 -98.5t-60 -65.5t-65.5 -41t-65.5 -21t-52 -8.5t-32.5 -1q-17 0 -33.5 1t-52 8.5t-65.5 21t-65.5 41t-60 65.5t-41 98.5t-16.5 135.5zM145 350q0 -39 5 -74.5
t20 -76.5t40 -71t68.5 -50t100.5 -20q15 0 28.5 1t38.5 7.5t45.5 17.5t44 33t39.5 51.5t27 76.5t11 105q0 131 -59 211.5t-175 80.5q-61 0 -106.5 -24t-69 -56.5t-37.5 -76.5t-17.5 -74.5t-3.5 -60.5zM224 772v79h94v-79h-94zM440 772v79h94v-79h-94z" />
    <glyph glyph-name="multiply" unicode="&#xd7;" horiz-adv-x="600" 
d="M65 158l191 191l-191 191l44 44l191 -191l191 191l44 -44l-191 -191l191 -191l-44 -44l-191 191l-191 -191z" />
    <glyph glyph-name="Oslash" unicode="&#xd8;" horiz-adv-x="758" 
d="M720 716l-88 -105q81 -100 81 -261q0 -75 -17 -135.5t-41.5 -98.5t-60 -65.5t-65.5 -41t-65.5 -21t-52 -8.5t-32.5 -1q-141 0 -218 71l-94 -113l-45 37l99 118q-76 89 -76 258q0 179 91.5 275t242.5 96q60 0 117.5 -17.5t93.5 -50.5l81 97zM569 536l-350 -417
q55 -61 160 -61q15 0 28.5 1t38.5 7.5t45.5 17.5t44 33t39.5 51.5t27 76.5t11 105q0 106 -44 186zM184 167l349 418q-27 27 -71.5 42t-82.5 15q-28 0 -54 -5t-60.5 -23.5t-59.5 -48t-42.5 -85.5t-17.5 -130q0 -114 39 -183z" />
    <glyph glyph-name="Ugrave" unicode="&#xd9;" horiz-adv-x="772" 
d="M498 621v79h234v-79h-70v-350q0 -59 -12 -106t-29 -77t-44 -51.5t-50 -32.5t-53.5 -17t-48 -7t-39.5 -1q-73 0 -126.5 19.5t-81.5 47.5t-44 71t-20 76.5t-4 77.5v350h-70v79h234v-79h-70v-338q0 -34 2 -57.5t12 -58t28 -56t54 -37.5t86 -16q101 0 141.5 55t40.5 170v338
h-70zM368 900l75 -140h-84l-103 140h112z" />
    <glyph glyph-name="Uacute" unicode="&#xda;" horiz-adv-x="772" 
d="M498 621v79h234v-79h-70v-350q0 -59 -12 -106t-29 -77t-44 -51.5t-50 -32.5t-53.5 -17t-48 -7t-39.5 -1q-73 0 -126.5 19.5t-81.5 47.5t-44 71t-20 76.5t-4 77.5v350h-70v79h234v-79h-70v-338q0 -34 2 -57.5t12 -58t28 -56t54 -37.5t86 -16q101 0 141.5 55t40.5 170v338
h-70zM413 900h112l-102 -140h-84z" />
    <glyph glyph-name="Ucircumflex" unicode="&#xdb;" horiz-adv-x="772" 
d="M498 621v79h234v-79h-70v-350q0 -59 -12 -106t-29 -77t-44 -51.5t-50 -32.5t-53.5 -17t-48 -7t-39.5 -1q-73 0 -126.5 19.5t-81.5 47.5t-44 71t-20 76.5t-4 77.5v350h-70v79h234v-79h-70v-338q0 -34 2 -57.5t12 -58t28 -56t54 -37.5t86 -16q101 0 141.5 55t40.5 170v338
h-70zM190 760l125 140h142l125 -140h-94l-102 105l-102 -105h-94z" />
    <glyph glyph-name="Udieresis" unicode="&#xdc;" horiz-adv-x="772" 
d="M498 621v79h234v-79h-70v-350q0 -59 -12 -106t-29 -77t-44 -51.5t-50 -32.5t-53.5 -17t-48 -7t-39.5 -1q-73 0 -126.5 19.5t-81.5 47.5t-44 71t-20 76.5t-4 77.5v350h-70v79h234v-79h-70v-338q0 -34 2 -57.5t12 -58t28 -56t54 -37.5t86 -16q101 0 141.5 55t40.5 170v338
h-70zM231 772v79h94v-79h-94zM447 772v79h94v-79h-94z" />
    <glyph glyph-name="Yacute" unicode="&#xdd;" horiz-adv-x="634" 
d="M0 621v79h237v-79h-62l148 -245l146 245h-55v79h220v-79h-60l-209 -329v-213h70v-79h-234v79h70v213l-209 329h-62zM354 900h112l-102 -140h-84z" />
    <glyph glyph-name="Thorn" unicode="&#xde;" horiz-adv-x="679" 
d="M55 621v79h234v-79h-70v-56h173q114 0 184.5 -51t70.5 -152q0 -98 -67 -158t-198 -60h-163v-65h70v-79h-234v79h70v542h-70zM219 486v-263h159q84 0 128.5 36.5t44.5 102.5q0 60 -45.5 92t-127.5 32h-159z" />
    <glyph glyph-name="germandbls" unicode="&#xdf;" horiz-adv-x="600" 
d="M40 0v62h65v393q0 41 2.5 70t14.5 66.5t33.5 60.5t63 39.5t98.5 16.5q92 0 140.5 -47t48.5 -123q0 -49 -26 -88.5t-67 -49.5v-3q64 -12 104 -62.5t40 -128.5q0 -49 -13 -87.5t-36 -60.5t-45.5 -36.5t-50.5 -20t-42 -7t-28 -1.5q-35 0 -75 7v65q24 -9 59 -9q12 0 25 1.5
t35.5 10.5t38.5 24t28.5 45t12.5 71q0 150 -174 150h-25v61l31 -1q120 0 120 114q0 46 -23.5 80t-78.5 34q-29 0 -48.5 -5.5t-38 -23t-27.5 -54.5t-9 -95v-468h-153z" />
    <glyph glyph-name="agrave" unicode="&#xe0;" horiz-adv-x="569" 
d="M390 0v72q-25 -46 -72 -69t-102 -23q-84 0 -131.5 38t-47.5 115q0 71 52 109.5t197 51.5q66 4 80 13q19 14 19 57q0 102 -114 102q-135 0 -132 -108h-84q0 29 9 56t31 54t67 43.5t109 16.5q36 0 67.5 -6.5t64.5 -23t52 -53t18 -88.5v-295h64v-62h-147zM385 224v36
q-9 -7 -21.5 -11t-22.5 -5.5t-31.5 -4t-36.5 -4.5q-6 -1 -22.5 -3.5t-22.5 -3.5t-20.5 -4t-20 -5.5t-16 -7t-15 -9t-11.5 -11t-9.5 -14.5t-5 -18.5t-2.5 -22.5q0 -44 27 -69t71 -25q62 0 110.5 44.5t48.5 137.5zM268 700l70 -132h-80l-96 132h106z" />
    <glyph glyph-name="aacute" unicode="&#xe1;" horiz-adv-x="569" 
d="M390 0v72q-25 -46 -72 -69t-102 -23q-84 0 -131.5 38t-47.5 115q0 71 52 109.5t197 51.5q66 4 80 13q19 14 19 57q0 102 -114 102q-135 0 -132 -108h-84q0 29 9 56t31 54t67 43.5t109 16.5q36 0 67.5 -6.5t64.5 -23t52 -53t18 -88.5v-295h64v-62h-147zM385 224v36
q-9 -7 -21.5 -11t-22.5 -5.5t-31.5 -4t-36.5 -4.5q-6 -1 -22.5 -3.5t-22.5 -3.5t-20.5 -4t-20 -5.5t-16 -7t-15 -9t-11.5 -11t-9.5 -14.5t-5 -18.5t-2.5 -22.5q0 -44 27 -69t71 -25q62 0 110.5 44.5t48.5 137.5zM284 700h106l-96 -132h-80z" />
    <glyph glyph-name="acircumflex" unicode="&#xe2;" horiz-adv-x="569" 
d="M390 0v72q-25 -46 -72 -69t-102 -23q-84 0 -131.5 38t-47.5 115q0 71 52 109.5t197 51.5q66 4 80 13q19 14 19 57q0 102 -114 102q-135 0 -132 -108h-84q0 29 9 56t31 54t67 43.5t109 16.5q36 0 67.5 -6.5t64.5 -23t52 -53t18 -88.5v-295h64v-62h-147zM385 224v36
q-9 -7 -21.5 -11t-22.5 -5.5t-31.5 -4t-36.5 -4.5q-6 -1 -22.5 -3.5t-22.5 -3.5t-20.5 -4t-20 -5.5t-16 -7t-15 -9t-11.5 -11t-9.5 -14.5t-5 -18.5t-2.5 -22.5q0 -44 27 -69t71 -25q62 0 110.5 44.5t48.5 137.5zM81 568l119 132h132l119 -132h-88l-97 99l-97 -99h-88z" />
    <glyph glyph-name="atilde" unicode="&#xe3;" horiz-adv-x="569" 
d="M390 0v72q-25 -46 -72 -69t-102 -23q-84 0 -131.5 38t-47.5 115q0 71 52 109.5t197 51.5q66 4 80 13q19 14 19 57q0 102 -114 102q-135 0 -132 -108h-84q0 29 9 56t31 54t67 43.5t109 16.5q36 0 67.5 -6.5t64.5 -23t52 -53t18 -88.5v-295h64v-62h-147zM385 224v36
q-9 -7 -21.5 -11t-22.5 -5.5t-31.5 -4t-36.5 -4.5q-6 -1 -22.5 -3.5t-22.5 -3.5t-20.5 -4t-20 -5.5t-16 -7t-15 -9t-11.5 -11t-9.5 -14.5t-5 -18.5t-2.5 -22.5q0 -44 27 -69t71 -25q62 0 110.5 44.5t48.5 137.5zM393 700h58q-8 -40 -34 -71t-77 -31q-32 0 -82 26
q-46 24 -67 24q-47 0 -51 -40h-59q7 42 36.5 71t74.5 29q36 0 74 -22q48 -28 74 -28q18 0 33 12t20 30z" />
    <glyph glyph-name="adieresis" unicode="&#xe4;" horiz-adv-x="569" 
d="M390 0v72q-25 -46 -72 -69t-102 -23q-84 0 -131.5 38t-47.5 115q0 71 52 109.5t197 51.5q66 4 80 13q19 14 19 57q0 102 -114 102q-135 0 -132 -108h-84q0 29 9 56t31 54t67 43.5t109 16.5q36 0 67.5 -6.5t64.5 -23t52 -53t18 -88.5v-295h64v-62h-147zM385 224v36
q-9 -7 -21.5 -11t-22.5 -5.5t-31.5 -4t-36.5 -4.5q-6 -1 -22.5 -3.5t-22.5 -3.5t-20.5 -4t-20 -5.5t-16 -7t-15 -9t-11.5 -11t-9.5 -14.5t-5 -18.5t-2.5 -22.5q0 -44 27 -69t71 -25q62 0 110.5 44.5t48.5 137.5zM133 608v92h88v-92h-88zM331 608v92h88v-92h-88z" />
    <glyph glyph-name="aring" unicode="&#xe5;" horiz-adv-x="569" 
d="M390 0v72q-25 -46 -72 -69t-102 -23q-84 0 -131.5 38t-47.5 115q0 71 52 109.5t197 51.5q66 4 80 13q19 14 19 57q0 102 -114 102q-135 0 -132 -108h-84q0 29 9 56t31 54t67 43.5t109 16.5q36 0 67.5 -6.5t64.5 -23t52 -53t18 -88.5v-295h64v-62h-147zM385 224v36
q-9 -7 -21.5 -11t-22.5 -5.5t-31.5 -4t-36.5 -4.5q-6 -1 -22.5 -3.5t-22.5 -3.5t-20.5 -4t-20 -5.5t-16 -7t-15 -9t-11.5 -11t-9.5 -14.5t-5 -18.5t-2.5 -22.5q0 -44 27 -69t71 -25q62 0 110.5 44.5t48.5 137.5zM173 643q0 39 27 66t66 27t66 -27t27 -66t-27 -66t-66 -27
t-66 27t-27 66zM214 643q0 -22 15 -37t37 -15t37 15t15 37t-15 37t-37 15t-37 -15t-15 -37z" />
    <glyph glyph-name="ae" unicode="&#xe6;" horiz-adv-x="914" 
d="M144 358h-84q-2 73 52.5 121.5t162.5 48.5q140 0 174 -86q55 86 183 86q32 0 60.5 -4.5t62.5 -21.5t58.5 -45t41 -79t16.5 -119v-25h-393q0 -32 8 -63t25 -61.5t50 -49t77 -18.5q110 0 140 105h84q-5 -30 -18.5 -57t-37.5 -53t-66 -41.5t-96 -15.5q-31 0 -54 3
t-54.5 12.5t-58 33.5t-46.5 61q-63 -110 -198 -110q-196 0 -196 153q0 46 19 76.5t76 53.5t157 31q67 4 82 13q19 13 19 57q0 102 -114 102q-135 0 -132 -108zM390 217v43q-10 -7 -22.5 -11t-22 -5.5t-32 -4t-37.5 -4.5q-5 -1 -25 -4t-25.5 -4t-22 -4.5t-22 -6.5t-17 -8.5
t-16 -12t-10.5 -15t-8 -19.5t-2 -25q0 -38 25.5 -66t77.5 -28q47 0 80.5 18.5t49.5 47.5t22.5 56t6.5 53zM478 296h302q1 28 -5 55.5t-21 54.5t-45.5 43.5t-73.5 16.5q-77 0 -117 -49.5t-40 -120.5z" />
    <glyph glyph-name="ccedilla" unicode="&#xe7;" horiz-adv-x="552" 
d="M496 348h-67q-20 118 -144 118q-77 0 -113 -57t-36 -151t39 -155t118 -61q67 0 99.5 43t35.5 96h84q-2 -22 -7.5 -44.5t-21 -52t-38 -51.5t-63 -37.5t-91.5 -15.5q-16 0 -30 1t-41 7t-48.5 16t-46.5 31t-42 49.5t-28.5 73t-11.5 100.5q0 39 6 74t22.5 72t42 63.5
t69.5 43.5t100 17q103 0 148 -66h3v46h62v-160zM168 -232l17 56q22 -8 62 -8q63 0 63 37t-59 37h-27h-17l15 52h32q133 0 133 -88q0 -35 -28.5 -64.5t-99.5 -29.5q-37 0 -91 8z" />
    <glyph glyph-name="egrave" unicode="&#xe8;" horiz-adv-x="570" 
d="M438 147h84q-12 -67 -64.5 -117t-157.5 -50q-52 0 -93.5 13t-67.5 32.5t-45.5 47.5t-29 52t-14.5 53t-6 44t-1 30q0 29 3 56.5t17 70t38.5 73t73.5 53.5t116 23q58 0 101.5 -18t67.5 -44t39 -65.5t20 -71t7 -70.5q0 -4 0.5 -12.5t0.5 -12.5h-391q0 -75 40.5 -133.5
t120.5 -58.5q60 0 96 29.5t45 75.5zM136 296h298q-1 30 -7.5 56t-20.5 53.5t-43 44t-70 16.5q-46 0 -79 -17t-49 -44.5t-22.5 -54t-6.5 -54.5zM277 700l70 -132h-80l-96 132h106z" />
    <glyph glyph-name="eacute" unicode="&#xe9;" horiz-adv-x="570" 
d="M438 147h84q-12 -67 -64.5 -117t-157.5 -50q-52 0 -93.5 13t-67.5 32.5t-45.5 47.5t-29 52t-14.5 53t-6 44t-1 30q0 29 3 56.5t17 70t38.5 73t73.5 53.5t116 23q58 0 101.5 -18t67.5 -44t39 -65.5t20 -71t7 -70.5q0 -4 0.5 -12.5t0.5 -12.5h-391q0 -75 40.5 -133.5
t120.5 -58.5q60 0 96 29.5t45 75.5zM136 296h298q-1 30 -7.5 56t-20.5 53.5t-43 44t-70 16.5q-46 0 -79 -17t-49 -44.5t-22.5 -54t-6.5 -54.5zM293 700h106l-96 -132h-80z" />
    <glyph glyph-name="ecircumflex" unicode="&#xea;" horiz-adv-x="570" 
d="M438 147h84q-12 -67 -64.5 -117t-157.5 -50q-52 0 -93.5 13t-67.5 32.5t-45.5 47.5t-29 52t-14.5 53t-6 44t-1 30q0 29 3 56.5t17 70t38.5 73t73.5 53.5t116 23q58 0 101.5 -18t67.5 -44t39 -65.5t20 -71t7 -70.5q0 -4 0.5 -12.5t0.5 -12.5h-391q0 -75 40.5 -133.5
t120.5 -58.5q60 0 96 29.5t45 75.5zM136 296h298q-1 30 -7.5 56t-20.5 53.5t-43 44t-70 16.5q-46 0 -79 -17t-49 -44.5t-22.5 -54t-6.5 -54.5zM100 568l119 132h132l119 -132h-88l-97 99l-97 -99h-88z" />
    <glyph glyph-name="edieresis" unicode="&#xeb;" horiz-adv-x="570" 
d="M438 147h84q-12 -67 -64.5 -117t-157.5 -50q-52 0 -93.5 13t-67.5 32.5t-45.5 47.5t-29 52t-14.5 53t-6 44t-1 30q0 29 3 56.5t17 70t38.5 73t73.5 53.5t116 23q58 0 101.5 -18t67.5 -44t39 -65.5t20 -71t7 -70.5q0 -4 0.5 -12.5t0.5 -12.5h-391q0 -75 40.5 -133.5
t120.5 -58.5q60 0 96 29.5t45 75.5zM136 296h298q-1 30 -7.5 56t-20.5 53.5t-43 44t-70 16.5q-46 0 -79 -17t-49 -44.5t-22.5 -54t-6.5 -54.5zM142 608v92h88v-92h-88zM340 608v92h88v-92h-88z" />
    <glyph glyph-name="igrave" unicode="&#xec;" horiz-adv-x="300" 
d="M40 446v62h154v-446h66v-62h-220v62h66v384h-66zM110 700l70 -132h-80l-96 132h106z" />
    <glyph glyph-name="iacute" unicode="&#xed;" horiz-adv-x="300" 
d="M40 446v62h154v-446h66v-62h-220v62h66v384h-66zM156 700h106l-96 -132h-80z" />
    <glyph glyph-name="icircumflex" unicode="&#xee;" horiz-adv-x="300" 
d="M40 446v62h154v-446h66v-62h-220v62h66v384h-66zM-51 568l119 132h132l119 -132h-88l-97 99l-97 -99h-88z" />
    <glyph glyph-name="idieresis" unicode="&#xef;" horiz-adv-x="300" 
d="M40 446v62h154v-446h66v-62h-220v62h66v384h-66zM-16 608v92h88v-92h-88zM182 608v92h88v-92h-88z" />
    <glyph glyph-name="eth" unicode="&#xf0;" horiz-adv-x="592" 
d="M142 671l14 62q95 -16 179 -54l85 51l22 -34l-63 -38q100 -59 138 -138t38 -197q0 -85 -18 -149.5t-45 -100t-65 -57.5t-70.5 -29t-69.5 -7q-112 0 -178 68.5t-66 187.5t59.5 195.5t183.5 76.5q145 0 197 -115h3q-7 59 -50 120.5t-121 98.5l-138 -88l-23 36l115 72
q-47 22 -127 39zM456 247q0 21 -2 41t-11.5 50.5t-25.5 52.5t-47.5 38.5t-74.5 16.5q-42 0 -73 -17t-47 -40.5t-25.5 -56.5t-11.5 -55.5t-2 -46.5q0 -188 159 -188q18 0 34 2.5t41 14t42.5 32t30.5 61t13 95.5z" />
    <glyph glyph-name="ntilde" unicode="&#xf1;" horiz-adv-x="641" 
d="M381 0v62h66v249q0 25 -0.5 38t-6 39t-15.5 40t-32 26t-53 12q-23 0 -44 -6.5t-46 -24.5t-40.5 -58.5t-15.5 -99.5v-215h66v-62h-220v62h66v384h-66v62h154v-71q62 91 174 91q167 0 167 -190v-276h66v-62h-220zM447 700h58q-8 -40 -34 -71t-77 -31q-32 0 -82 26
q-46 24 -67 24q-47 0 -51 -40h-59q7 42 36.5 71t74.5 29q35 0 74 -22q48 -28 74 -28q18 0 33 12t20 30z" />
    <glyph glyph-name="ograve" unicode="&#xf2;" horiz-adv-x="586" 
d="M43 254q0 53 13.5 100t41.5 87t78 63.5t117 23.5t117 -23.5t78 -63.5t41.5 -87t13.5 -100t-13.5 -100t-41.5 -87t-78 -63.5t-117 -23.5t-117 23.5t-78 63.5t-41.5 87t-13.5 100zM136 255q0 -58 13 -100.5t30.5 -63t42 -33t39.5 -14.5t32 -2t32 2t39.5 14.5t42 33t30.5 63
t13 100.5t-13 100.5t-30.5 63t-42 33t-39.5 14.5t-32 2t-32 -2t-39.5 -14.5t-42 -33t-30.5 -63t-13 -100.5zM285 700l70 -132h-80l-96 132h106z" />
    <glyph glyph-name="oacute" unicode="&#xf3;" horiz-adv-x="586" 
d="M43 254q0 53 13.5 100t41.5 87t78 63.5t117 23.5t117 -23.5t78 -63.5t41.5 -87t13.5 -100t-13.5 -100t-41.5 -87t-78 -63.5t-117 -23.5t-117 23.5t-78 63.5t-41.5 87t-13.5 100zM136 255q0 -58 13 -100.5t30.5 -63t42 -33t39.5 -14.5t32 -2t32 2t39.5 14.5t42 33t30.5 63
t13 100.5t-13 100.5t-30.5 63t-42 33t-39.5 14.5t-32 2t-32 -2t-39.5 -14.5t-42 -33t-30.5 -63t-13 -100.5zM301 700h106l-96 -132h-80z" />
    <glyph glyph-name="ocircumflex" unicode="&#xf4;" horiz-adv-x="586" 
d="M43 254q0 53 13.5 100t41.5 87t78 63.5t117 23.5t117 -23.5t78 -63.5t41.5 -87t13.5 -100t-13.5 -100t-41.5 -87t-78 -63.5t-117 -23.5t-117 23.5t-78 63.5t-41.5 87t-13.5 100zM136 255q0 -58 13 -100.5t30.5 -63t42 -33t39.5 -14.5t32 -2t32 2t39.5 14.5t42 33t30.5 63
t13 100.5t-13 100.5t-30.5 63t-42 33t-39.5 14.5t-32 2t-32 -2t-39.5 -14.5t-42 -33t-30.5 -63t-13 -100.5zM108 568l119 132h132l119 -132h-88l-97 99l-97 -99h-88z" />
    <glyph glyph-name="otilde" unicode="&#xf5;" horiz-adv-x="586" 
d="M43 254q0 53 13.5 100t41.5 87t78 63.5t117 23.5t117 -23.5t78 -63.5t41.5 -87t13.5 -100t-13.5 -100t-41.5 -87t-78 -63.5t-117 -23.5t-117 23.5t-78 63.5t-41.5 87t-13.5 100zM136 255q0 -58 13 -100.5t30.5 -63t42 -33t39.5 -14.5t32 -2t32 2t39.5 14.5t42 33t30.5 63
t13 100.5t-13 100.5t-30.5 63t-42 33t-39.5 14.5t-32 2t-32 -2t-39.5 -14.5t-42 -33t-30.5 -63t-13 -100.5zM420 700h58q-8 -40 -34 -71t-77 -31q-32 0 -82 26q-46 24 -67 24q-47 0 -51 -40h-59q7 42 36.5 71t74.5 29q35 0 74 -22q48 -28 74 -28q18 0 33 12t20 30z" />
    <glyph glyph-name="odieresis" unicode="&#xf6;" horiz-adv-x="586" 
d="M43 254q0 53 13.5 100t41.5 87t78 63.5t117 23.5t117 -23.5t78 -63.5t41.5 -87t13.5 -100t-13.5 -100t-41.5 -87t-78 -63.5t-117 -23.5t-117 23.5t-78 63.5t-41.5 87t-13.5 100zM136 255q0 -58 13 -100.5t30.5 -63t42 -33t39.5 -14.5t32 -2t32 2t39.5 14.5t42 33t30.5 63
t13 100.5t-13 100.5t-30.5 63t-42 33t-39.5 14.5t-32 2t-32 -2t-39.5 -14.5t-42 -33t-30.5 -63t-13 -100.5zM150 608v92h88v-92h-88zM348 608v92h88v-92h-88z" />
    <glyph glyph-name="divide" unicode="&#xf7;" horiz-adv-x="600" 
d="M240 529q0 23 15 41.5t45 18.5t45 -18.5t15 -41.5t-15 -41.5t-45 -18.5t-45 18.5t-15 41.5zM240 181q0 23 15 41.5t45 18.5t45 -18.5t15 -41.5t-15 -41.5t-45 -18.5t-45 18.5t-15 41.5zM50 324v62h500v-62h-500z" />
    <glyph glyph-name="oslash" unicode="&#xf8;" horiz-adv-x="586" 
d="M43 0l56 66q-56 76 -56 189q0 124 63 198.5t186 74.5q101 0 156 -47l55 65l44 -38l-58 -69q52 -82 52 -184q0 -49 -11.5 -94t-38 -87.5t-77.5 -68t-122 -25.5q-97 0 -151 45l-53 -63zM156 134l243 289q-38 43 -107 43q-39 0 -68.5 -15t-45.5 -37t-26 -52t-13 -55t-3 -52
q0 -81 20 -121zM431 371l-242 -288q25 -25 48 -33t55 -8q16 0 31 2t39.5 14.5t42 33t30.5 63t13 100.5q0 80 -17 116z" />
    <glyph glyph-name="ugrave" unicode="&#xf9;" horiz-adv-x="641" 
d="M535 508v-446h66v-62h-154v72h-2q-23 -40 -64.5 -62.5t-65 -26t-42.5 -3.5q-167 0 -167 191v275h-66v62h154v-311q0 -89 27 -122t80 -33q146 0 146 189v215h-66v62h154zM312 700l70 -132h-80l-96 132h106z" />
    <glyph glyph-name="uacute" unicode="&#xfa;" horiz-adv-x="641" 
d="M535 508v-446h66v-62h-154v72h-2q-23 -40 -64.5 -62.5t-65 -26t-42.5 -3.5q-167 0 -167 191v275h-66v62h154v-311q0 -89 27 -122t80 -33q146 0 146 189v215h-66v62h154zM328 700h106l-96 -132h-80z" />
    <glyph glyph-name="ucircumflex" unicode="&#xfb;" horiz-adv-x="641" 
d="M535 508v-446h66v-62h-154v72h-2q-23 -40 -64.5 -62.5t-65 -26t-42.5 -3.5q-167 0 -167 191v275h-66v62h154v-311q0 -89 27 -122t80 -33q146 0 146 189v215h-66v62h154zM125 568l119 132h132l119 -132h-88l-97 99l-97 -99h-88z" />
    <glyph glyph-name="udieresis" unicode="&#xfc;" horiz-adv-x="641" 
d="M535 508v-446h66v-62h-154v72h-2q-23 -40 -64.5 -62.5t-65 -26t-42.5 -3.5q-167 0 -167 191v275h-66v62h154v-311q0 -89 27 -122t80 -33q146 0 146 189v215h-66v62h154zM167 608v92h88v-92h-88zM365 608v92h88v-92h-88z" />
    <glyph glyph-name="yacute" unicode="&#xfd;" horiz-adv-x="558" 
d="M-10 446v62h231v-62h-62l139 -349l114 349h-64v62h220v-62h-69l-236 -631h-140v62h87l43 123l-196 446h-67zM300 700h106l-96 -132h-80z" />
    <glyph glyph-name="thorn" unicode="&#xfe;" horiz-adv-x="631" 
d="M40 -123h66v761h-66v62h154v-262q23 42 68 66t97 24q110 0 169.5 -75.5t59.5 -198.5q0 -138 -65.5 -206t-161.5 -68q-13 0 -29.5 2.5t-43.5 10.5t-52.5 28.5t-41.5 51.5v-196h66v-62h-220v62zM188 252q0 -107 48.5 -158.5t108.5 -51.5q62 0 106 50.5t44 161.5
q0 100 -40.5 156t-114.5 56q-17 0 -33.5 -3.5t-39 -17t-39 -35t-28.5 -62.5t-12 -96z" />
    <glyph glyph-name="ydieresis" unicode="&#xff;" horiz-adv-x="558" 
d="M-10 446v62h231v-62h-62l139 -349l114 349h-64v62h220v-62h-69l-236 -631h-140v62h87l43 123l-196 446h-67zM143 608v92h88v-92h-88zM341 608v92h88v-92h-88z" />
    <glyph glyph-name="Amacron" unicode="&#x100;" horiz-adv-x="706" 
d="M471 0v79h65l-37 102h-296l-37 -102h64v-79h-230v79h70l205 542h-78v79h208l235 -621h66v-79h-235zM229 260h244l-122 346zM166 772v60h316v-60h-316z" />
    <glyph glyph-name="amacron" unicode="&#x101;" horiz-adv-x="569" 
d="M390 0v72q-25 -46 -72 -69t-102 -23q-84 0 -131.5 38t-47.5 115q0 71 52 109.5t197 51.5q66 4 80 13q19 14 19 57q0 102 -114 102q-135 0 -132 -108h-84q0 29 9 56t31 54t67 43.5t109 16.5q36 0 67.5 -6.5t64.5 -23t52 -53t18 -88.5v-295h64v-62h-147zM385 224v36
q-9 -7 -21.5 -11t-22.5 -5.5t-31.5 -4t-36.5 -4.5q-6 -1 -22.5 -3.5t-22.5 -3.5t-20.5 -4t-20 -5.5t-16 -7t-15 -9t-11.5 -11t-9.5 -14.5t-5 -18.5t-2.5 -22.5q0 -44 27 -69t71 -25q62 0 110.5 44.5t48.5 137.5zM118 613v60h316v-60h-316z" />
    <glyph glyph-name="Abreve" unicode="&#x102;" horiz-adv-x="706" 
d="M471 0v79h65l-37 102h-296l-37 -102h64v-79h-230v79h70l205 542h-78v79h208l235 -621h66v-79h-235zM229 260h244l-122 346zM144 900h86q13 -78 101 -78t101 78h86q-11 -75 -63.5 -107.5t-123.5 -32.5t-123.5 32.5t-63.5 107.5z" />
    <glyph glyph-name="abreve" unicode="&#x103;" horiz-adv-x="569" 
d="M390 0v72q-25 -46 -72 -69t-102 -23q-84 0 -131.5 38t-47.5 115q0 71 52 109.5t197 51.5q66 4 80 13q19 14 19 57q0 102 -114 102q-135 0 -132 -108h-84q0 29 9 56t31 54t67 43.5t109 16.5q36 0 67.5 -6.5t64.5 -23t52 -53t18 -88.5v-295h64v-62h-147zM385 224v36
q-9 -7 -21.5 -11t-22.5 -5.5t-31.5 -4t-36.5 -4.5q-6 -1 -22.5 -3.5t-22.5 -3.5t-20.5 -4t-20 -5.5t-16 -7t-15 -9t-11.5 -11t-9.5 -14.5t-5 -18.5t-2.5 -22.5q0 -44 27 -69t71 -25q62 0 110.5 44.5t48.5 137.5zM266 623q85 0 96 77h78q-11 -64 -55.5 -99t-118.5 -35
t-118.5 35t-55.5 99h78q11 -77 96 -77z" />
    <glyph glyph-name="Aogonek" unicode="&#x104;" horiz-adv-x="706" 
d="M471 0v79h65l-37 102h-296l-37 -102h64v-79h-230v79h70l205 542h-78v79h208l235 -621h66v-79h-31q-29 -17 -46.5 -46t-17.5 -57q0 -25 11.5 -42t34.5 -17q22 0 33 16.5t11 35.5h74q-3 -46 -34.5 -80t-88.5 -34q-58 0 -94.5 27.5t-36.5 74.5q0 69 69 122h-119zM229 260
h244l-122 346z" />
    <glyph glyph-name="aogonek" unicode="&#x105;" horiz-adv-x="569" 
d="M390 0v72q-25 -46 -72 -69t-102 -23q-84 0 -131.5 38t-47.5 115q0 71 52 109.5t197 51.5q66 4 80 13q19 14 19 57q0 102 -114 102q-135 0 -132 -108h-84q0 29 9 56t31 54t67 43.5t109 16.5q36 0 67.5 -6.5t64.5 -23t52 -53t18 -88.5v-295h64v-62h-15q-29 -17 -45.5 -44
t-16.5 -55q0 -25 11.5 -40.5t33.5 -15.5t32 15.5t10 33.5h71q-3 -43 -33.5 -76t-84.5 -33q-56 0 -91 26.5t-35 71.5q0 63 66 117h-50zM385 224v36q-9 -7 -21.5 -11t-22.5 -5.5t-31.5 -4t-36.5 -4.5q-6 -1 -22.5 -3.5t-22.5 -3.5t-20.5 -4t-20 -5.5t-16 -7t-15 -9t-11.5 -11
t-9.5 -14.5t-5 -18.5t-2.5 -22.5q0 -44 27 -69t71 -25q62 0 110.5 44.5t48.5 137.5z" />
    <glyph glyph-name="Cacute" unicode="&#x106;" horiz-adv-x="712" 
d="M652 490h-79q-2 23 -12 46t-31.5 48.5t-63 41.5t-98.5 16q-63 0 -108.5 -25t-69.5 -69t-34.5 -94.5t-10.5 -111.5q0 -125 64 -204.5t173 -79.5q83 0 138.5 49t59.5 125h94q-4 -34 -13.5 -65t-31.5 -66.5t-53 -61.5t-82.5 -43t-115.5 -17q-156 0 -244.5 95.5t-88.5 263.5
q0 76 15 138t37 101t54.5 68t60.5 43t61.5 22t51.5 9.5t37 1.5q142 0 216 -93v72h74v-210zM389 900h112l-102 -140h-84z" />
    <glyph glyph-name="cacute" unicode="&#x107;" horiz-adv-x="552" 
d="M496 348h-67q-20 118 -144 118q-77 0 -113 -57t-36 -151t39 -155t118 -61q67 0 99.5 43t35.5 96h84q-2 -22 -7.5 -44.5t-21 -52t-38 -51.5t-63 -37.5t-91.5 -15.5q-16 0 -30 1t-41 7t-48.5 16t-46.5 31t-42 49.5t-28.5 73t-11.5 100.5q0 39 6 74t22.5 72t42 63.5
t69.5 43.5t100 17q103 0 148 -66h3v46h62v-160zM292 700h106l-96 -132h-80z" />
    <glyph glyph-name="Ccircumflex" unicode="&#x108;" horiz-adv-x="712" 
d="M652 490h-79q-2 23 -12 46t-31.5 48.5t-63 41.5t-98.5 16q-63 0 -108.5 -25t-69.5 -69t-34.5 -94.5t-10.5 -111.5q0 -125 64 -204.5t173 -79.5q83 0 138.5 49t59.5 125h94q-4 -34 -13.5 -65t-31.5 -66.5t-53 -61.5t-82.5 -43t-115.5 -17q-156 0 -244.5 95.5t-88.5 263.5
q0 76 15 138t37 101t54.5 68t60.5 43t61.5 22t51.5 9.5t37 1.5q142 0 216 -93v72h74v-210zM177 760l125 140h142l125 -140h-94l-102 105l-102 -105h-94z" />
    <glyph glyph-name="ccircumflex" unicode="&#x109;" horiz-adv-x="552" 
d="M496 348h-67q-20 118 -144 118q-77 0 -113 -57t-36 -151t39 -155t118 -61q67 0 99.5 43t35.5 96h84q-2 -22 -7.5 -44.5t-21 -52t-38 -51.5t-63 -37.5t-91.5 -15.5q-16 0 -30 1t-41 7t-48.5 16t-46.5 31t-42 49.5t-28.5 73t-11.5 100.5q0 39 6 74t22.5 72t42 63.5
t69.5 43.5t100 17q103 0 148 -66h3v46h62v-160zM89 568l119 132h132l119 -132h-88l-97 99l-97 -99h-88z" />
    <glyph glyph-name="Cdotaccent" unicode="&#x10a;" horiz-adv-x="712" 
d="M652 490h-79q-2 23 -12 46t-31.5 48.5t-63 41.5t-98.5 16q-63 0 -108.5 -25t-69.5 -69t-34.5 -94.5t-10.5 -111.5q0 -125 64 -204.5t173 -79.5q83 0 138.5 49t59.5 125h94q-4 -34 -13.5 -65t-31.5 -66.5t-53 -61.5t-82.5 -43t-115.5 -17q-156 0 -244.5 95.5t-88.5 263.5
q0 76 15 138t37 101t54.5 68t60.5 43t61.5 22t51.5 9.5t37 1.5q142 0 216 -93v72h74v-210zM327 772v79h94v-79h-94z" />
    <glyph glyph-name="cdotaccent" unicode="&#x10b;" horiz-adv-x="552" 
d="M496 348h-67q-20 118 -144 118q-77 0 -113 -57t-36 -151t39 -155t118 -61q67 0 99.5 43t35.5 96h84q-2 -22 -7.5 -44.5t-21 -52t-38 -51.5t-63 -37.5t-91.5 -15.5q-16 0 -30 1t-41 7t-48.5 16t-46.5 31t-42 49.5t-28.5 73t-11.5 100.5q0 39 6 74t22.5 72t42 63.5
t69.5 43.5t100 17q103 0 148 -66h3v46h62v-160zM230 608v92h92v-92h-92z" />
    <glyph glyph-name="Ccaron" unicode="&#x10c;" horiz-adv-x="712" 
d="M652 490h-79q-2 23 -12 46t-31.5 48.5t-63 41.5t-98.5 16q-63 0 -108.5 -25t-69.5 -69t-34.5 -94.5t-10.5 -111.5q0 -125 64 -204.5t173 -79.5q83 0 138.5 49t59.5 125h94q-4 -34 -13.5 -65t-31.5 -66.5t-53 -61.5t-82.5 -43t-115.5 -17q-156 0 -244.5 95.5t-88.5 263.5
q0 76 15 138t37 101t54.5 68t60.5 43t61.5 22t51.5 9.5t37 1.5q142 0 216 -93v72h74v-210zM445 760h-142l-125 140h94l102 -105l102 105h94z" />
    <glyph glyph-name="ccaron" unicode="&#x10d;" horiz-adv-x="552" 
d="M496 348h-67q-20 118 -144 118q-77 0 -113 -57t-36 -151t39 -155t118 -61q67 0 99.5 43t35.5 96h84q-2 -22 -7.5 -44.5t-21 -52t-38 -51.5t-63 -37.5t-91.5 -15.5q-16 0 -30 1t-41 7t-48.5 16t-46.5 31t-42 49.5t-28.5 73t-11.5 100.5q0 39 6 74t22.5 72t42 63.5
t69.5 43.5t100 17q103 0 148 -66h3v46h62v-160zM350 568h-132l-119 132h88l97 -99l97 99h88z" />
    <glyph glyph-name="Dcaron" unicode="&#x10e;" horiz-adv-x="756" 
d="M55 621v79h322q22 0 42 -1.5t56 -9t66 -20.5t64 -39t57 -61.5t38.5 -91.5t15.5 -125q0 -70 -15 -126.5t-37.5 -92.5t-57.5 -62t-66 -39.5t-72.5 -21t-67 -9t-58.5 -1.5h-287v79h70v542h-70zM219 621v-542h126q136 0 203.5 67t67.5 204q0 75 -21 129.5t-57 84.5t-77 43.5
t-89 13.5h-153zM420 760h-142l-125 140h94l102 -105l102 105h94z" />
    <glyph glyph-name="dcaron" unicode="&#x10f;" horiz-adv-x="704" 
d="M373 638v62h154v-638h66v-62h-148v70h-3q-46 -90 -168 -90q-109 0 -170 75t-61 200q0 36 4.5 69.5t19.5 72t39.5 66.5t67 46.5t98.5 18.5q116 0 167 -86v196h-66zM136 255q0 -55 12 -96t28.5 -62.5t39.5 -34.5t40.5 -16.5t36.5 -3.5q64 0 108 52.5t44 162.5
q0 104 -44.5 156.5t-112.5 52.5t-110 -52.5t-42 -158.5zM605 700h99v-140q0 -53 -30.5 -81t-68.5 -36v55q21 2 35.5 20.5t14.5 41.5v31h-50v109z" />
    <glyph glyph-name="Dcroat" unicode="&#x110;" horiz-adv-x="756" 
d="M55 621v79h322q22 0 42 -1.5t56 -9t66 -20.5t64 -39t57 -61.5t38.5 -91.5t15.5 -125q0 -70 -15 -126.5t-37.5 -92.5t-57.5 -62t-66 -39.5t-72.5 -21t-67 -9t-58.5 -1.5h-287v79h70v257h-94v62h94v223h-70zM219 621v-223h198v-62h-198v-257h126q136 0 203.5 67t67.5 204
q0 75 -21 129.5t-57 84.5t-77 43.5t-89 13.5h-153z" />
    <glyph glyph-name="dslash" unicode="&#x111;" horiz-adv-x="630" 
d="M373 638v62h154v-92h81v-54h-81v-492h66v-62h-148v70h-3q-46 -90 -168 -90q-109 0 -170 75t-61 200q0 36 4.5 69.5t19.5 72t39.5 66.5t67 46.5t98.5 18.5q116 0 167 -86v112h-188v54h188v30h-66zM136 255q0 -55 12 -96t28.5 -62.5t39.5 -34.5t40.5 -16.5t36.5 -3.5
q64 0 108 52.5t44 162.5q0 104 -44.5 156.5t-112.5 52.5t-110 -52.5t-42 -158.5z" />
    <glyph glyph-name="Emacron" unicode="&#x112;" horiz-adv-x="665" 
d="M624 490h-79v131h-326v-220h279v-79h-279v-243h337v141h79v-220h-580v79h70v542h-70v79h569v-210zM188 772v60h316v-60h-316z" />
    <glyph glyph-name="emacron" unicode="&#x113;" horiz-adv-x="570" 
d="M438 147h84q-12 -67 -64.5 -117t-157.5 -50q-52 0 -93.5 13t-67.5 32.5t-45.5 47.5t-29 52t-14.5 53t-6 44t-1 30q0 29 3 56.5t17 70t38.5 73t73.5 53.5t116 23q58 0 101.5 -18t67.5 -44t39 -65.5t20 -71t7 -70.5q0 -4 0.5 -12.5t0.5 -12.5h-391q0 -75 40.5 -133.5
t120.5 -58.5q60 0 96 29.5t45 75.5zM136 296h298q-1 30 -7.5 56t-20.5 53.5t-43 44t-70 16.5q-46 0 -79 -17t-49 -44.5t-22.5 -54t-6.5 -54.5zM127 613v60h316v-60h-316z" />
    <glyph glyph-name="Edotaccent" unicode="&#x116;" horiz-adv-x="665" 
d="M624 490h-79v131h-326v-220h279v-79h-279v-243h337v141h79v-220h-580v79h70v542h-70v79h569v-210zM299 772v79h94v-79h-94z" />
    <glyph glyph-name="edotaccent" unicode="&#x117;" horiz-adv-x="570" 
d="M438 147h84q-12 -67 -64.5 -117t-157.5 -50q-52 0 -93.5 13t-67.5 32.5t-45.5 47.5t-29 52t-14.5 53t-6 44t-1 30q0 29 3 56.5t17 70t38.5 73t73.5 53.5t116 23q58 0 101.5 -18t67.5 -44t39 -65.5t20 -71t7 -70.5q0 -4 0.5 -12.5t0.5 -12.5h-391q0 -75 40.5 -133.5
t120.5 -58.5q60 0 96 29.5t45 75.5zM136 296h298q-1 30 -7.5 56t-20.5 53.5t-43 44t-70 16.5q-46 0 -79 -17t-49 -44.5t-22.5 -54t-6.5 -54.5zM239 608v92h92v-92h-92z" />
    <glyph glyph-name="Eogonek" unicode="&#x118;" horiz-adv-x="665" 
d="M500 0h-445v79h70v542h-70v79h569v-210h-79v131h-326v-220h279v-79h-279v-243h337v141h79v-220h-50q-29 -17 -46.5 -46t-17.5 -57q0 -25 11.5 -42t34.5 -17q22 0 33 16.5t11 35.5h74q-3 -46 -34.5 -80t-88.5 -34q-58 0 -94.5 27.5t-36.5 74.5q0 69 69 122z" />
    <glyph glyph-name="eogonek" unicode="&#x119;" horiz-adv-x="570" 
d="M438 147h84q-23 -114 -124 -151q-55 -36 -55 -95q0 -25 11.5 -40.5t33.5 -15.5t32 15.5t10 33.5h71q-3 -43 -33.5 -76t-84.5 -33q-56 0 -91 26.5t-35 71.5q0 53 44 97h-1q-52 0 -93.5 13t-67.5 32.5t-45.5 47.5t-29 52t-14.5 53t-6 44t-1 30q0 29 3 56.5t17 70t38.5 73
t73.5 53.5t116 23q58 0 101.5 -18t67.5 -44t39 -65.5t20 -71t7 -70.5q0 -4 0.5 -12.5t0.5 -12.5h-391q0 -75 40.5 -133.5t120.5 -58.5q60 0 96 29.5t45 75.5zM136 296h298q-1 30 -7.5 56t-20.5 53.5t-43 44t-70 16.5q-46 0 -79 -17t-49 -44.5t-22.5 -54t-6.5 -54.5z" />
    <glyph glyph-name="Ecaron" unicode="&#x11a;" horiz-adv-x="665" 
d="M624 490h-79v131h-326v-220h279v-79h-279v-243h337v141h79v-220h-580v79h70v542h-70v79h569v-210zM417 760h-142l-125 140h94l102 -105l102 105h94z" />
    <glyph glyph-name="ecaron" unicode="&#x11b;" horiz-adv-x="570" 
d="M438 147h84q-12 -67 -64.5 -117t-157.5 -50q-52 0 -93.5 13t-67.5 32.5t-45.5 47.5t-29 52t-14.5 53t-6 44t-1 30q0 29 3 56.5t17 70t38.5 73t73.5 53.5t116 23q58 0 101.5 -18t67.5 -44t39 -65.5t20 -71t7 -70.5q0 -4 0.5 -12.5t0.5 -12.5h-391q0 -75 40.5 -133.5
t120.5 -58.5q60 0 96 29.5t45 75.5zM136 296h298q-1 30 -7.5 56t-20.5 53.5t-43 44t-70 16.5q-46 0 -79 -17t-49 -44.5t-22.5 -54t-6.5 -54.5zM351 568h-132l-119 132h88l97 -99l97 99h88z" />
    <glyph glyph-name="Gcircumflex" unicode="&#x11c;" horiz-adv-x="787" 
d="M400 286v79h357v-79h-75v-286h-73v113h-2q-30 -64 -90 -99t-143 -35q-66 0 -122.5 20t-104 62.5t-75 118.5t-27.5 177q0 175 90 269.5t248 94.5q142 0 209 -93v72h73v-210h-79q-5 58 -54 105t-147 47q-63 0 -109.5 -23.5t-70.5 -55.5t-38.5 -76t-18 -73.5t-3.5 -59.5
q0 -15 1.5 -33t7 -48t15 -57.5t27.5 -57t42.5 -51t62 -35.5t83.5 -14q61 0 105 23t66 59.5t31.5 72.5t9.5 73h-196zM174 760l125 140h142l125 -140h-94l-102 105l-102 -105h-94z" />
    <glyph glyph-name="gcircumflex" unicode="&#x11d;" horiz-adv-x="627" 
d="M78 -57h84q20 -73 134 -73q33 0 58 9.5t39.5 26t24 33t13 37t4.5 31t1 21.5v55q-35 -57 -71.5 -80t-92.5 -23q-98 0 -163.5 70t-65.5 208q0 21 1.5 37.5t6.5 52.5t19.5 63.5t37 56t63 44.5t92.5 16q127 0 176 -90h3v70h145v-62h-63v-433q0 -55 -19.5 -96t-46 -61t-62 -32
t-57.5 -14.5t-43 -2.5h-26.5t-32 2.5t-38 7.5t-37 15t-36 24t-28 36.5t-20.5 50.5zM292 42q13 0 28.5 3.5t38 17t40 35.5t30.5 64.5t13 97.5q0 98 -40.5 152t-117.5 54q-148 0 -148 -205q0 -58 12.5 -101t30 -65t41.5 -34.5t39.5 -15.5t32.5 -3zM111 568l119 132h132
l119 -132h-88l-97 99l-97 -99h-88z" />
    <glyph glyph-name="Gbreve" unicode="&#x11e;" horiz-adv-x="787" 
d="M400 286v79h357v-79h-75v-286h-73v113h-2q-30 -64 -90 -99t-143 -35q-66 0 -122.5 20t-104 62.5t-75 118.5t-27.5 177q0 175 90 269.5t248 94.5q142 0 209 -93v72h73v-210h-79q-5 58 -54 105t-147 47q-63 0 -109.5 -23.5t-70.5 -55.5t-38.5 -76t-18 -73.5t-3.5 -59.5
q0 -15 1.5 -33t7 -48t15 -57.5t27.5 -57t42.5 -51t62 -35.5t83.5 -14q61 0 105 23t66 59.5t31.5 72.5t9.5 73h-196zM184 900h86q13 -78 101 -78t101 78h86q-11 -75 -63.5 -107.5t-123.5 -32.5t-123.5 32.5t-63.5 107.5z" />
    <glyph glyph-name="gbreve" unicode="&#x11f;" horiz-adv-x="627" 
d="M78 -57h84q20 -73 134 -73q33 0 58 9.5t39.5 26t24 33t13 37t4.5 31t1 21.5v55q-35 -57 -71.5 -80t-92.5 -23q-98 0 -163.5 70t-65.5 208q0 21 1.5 37.5t6.5 52.5t19.5 63.5t37 56t63 44.5t92.5 16q127 0 176 -90h3v70h145v-62h-63v-433q0 -55 -19.5 -96t-46 -61t-62 -32
t-57.5 -14.5t-43 -2.5h-26.5t-32 2.5t-38 7.5t-37 15t-36 24t-28 36.5t-20.5 50.5zM292 42q13 0 28.5 3.5t38 17t40 35.5t30.5 64.5t13 97.5q0 98 -40.5 152t-117.5 54q-148 0 -148 -205q0 -58 12.5 -101t30 -65t41.5 -34.5t39.5 -15.5t32.5 -3zM276 623q85 0 96 77h78
q-11 -64 -55.5 -99t-118.5 -35t-118.5 35t-55.5 99h78q11 -77 96 -77z" />
    <glyph glyph-name="Gdotaccent" unicode="&#x120;" horiz-adv-x="787" 
d="M400 286v79h357v-79h-75v-286h-73v113h-2q-30 -64 -90 -99t-143 -35q-66 0 -122.5 20t-104 62.5t-75 118.5t-27.5 177q0 175 90 269.5t248 94.5q142 0 209 -93v72h73v-210h-79q-5 58 -54 105t-147 47q-63 0 -109.5 -23.5t-70.5 -55.5t-38.5 -76t-18 -73.5t-3.5 -59.5
q0 -15 1.5 -33t7 -48t15 -57.5t27.5 -57t42.5 -51t62 -35.5t83.5 -14q61 0 105 23t66 59.5t31.5 72.5t9.5 73h-196zM344 772v79h94v-79h-94z" />
    <glyph glyph-name="gdotaccent" unicode="&#x121;" horiz-adv-x="627" 
d="M78 -57h84q20 -73 134 -73q33 0 58 9.5t39.5 26t24 33t13 37t4.5 31t1 21.5v55q-35 -57 -71.5 -80t-92.5 -23q-98 0 -163.5 70t-65.5 208q0 21 1.5 37.5t6.5 52.5t19.5 63.5t37 56t63 44.5t92.5 16q127 0 176 -90h3v70h145v-62h-63v-433q0 -55 -19.5 -96t-46 -61t-62 -32
t-57.5 -14.5t-43 -2.5h-26.5t-32 2.5t-38 7.5t-37 15t-36 24t-28 36.5t-20.5 50.5zM292 42q13 0 28.5 3.5t38 17t40 35.5t30.5 64.5t13 97.5q0 98 -40.5 152t-117.5 54q-148 0 -148 -205q0 -58 12.5 -101t30 -65t41.5 -34.5t39.5 -15.5t32.5 -3zM245 608v92h92v-92h-92z" />
    <glyph glyph-name="Gcommaaccent" unicode="&#x122;" horiz-adv-x="787" 
d="M400 286v79h357v-79h-75v-286h-73v113h-2q-30 -64 -90 -99t-143 -35q-66 0 -122.5 20t-104 62.5t-75 118.5t-27.5 177q0 175 90 269.5t248 94.5q142 0 209 -93v72h73v-210h-79q-5 58 -54 105t-147 47q-63 0 -109.5 -23.5t-70.5 -55.5t-38.5 -76t-18 -73.5t-3.5 -59.5
q0 -15 1.5 -33t7 -48t15 -57.5t27.5 -57t42.5 -51t62 -35.5t83.5 -14q61 0 105 23t66 59.5t31.5 72.5t9.5 73h-196zM316 -60h107v-109q0 -86 -107 -107v59q24 3 39 16.5t15 31.5v12h-54v97z" />
    <glyph glyph-name="gcommaaccent" unicode="&#x123;" horiz-adv-x="627" 
d="M78 -57h84q20 -73 134 -73q33 0 58 9.5t39.5 26t24 33t13 37t4.5 31t1 21.5v55q-35 -57 -71.5 -80t-92.5 -23q-98 0 -163.5 70t-65.5 208q0 21 1.5 37.5t6.5 52.5t19.5 63.5t37 56t63 44.5t92.5 16q127 0 176 -90h3v70h145v-62h-63v-433q0 -55 -19.5 -96t-46 -61t-62 -32
t-57.5 -14.5t-43 -2.5h-26.5t-32 2.5t-38 7.5t-37 15t-36 24t-28 36.5t-20.5 50.5zM292 42q13 0 28.5 3.5t38 17t40 35.5t30.5 64.5t13 97.5q0 98 -40.5 152t-117.5 54q-148 0 -148 -205q0 -58 12.5 -101t30 -65t41.5 -34.5t39.5 -15.5t32.5 -3zM343 599h-99v101q0 78 99 99
v-55q-21 -2 -35.5 -14.5t-14.5 -29.5v-11h50v-90z" />
    <glyph glyph-name="Hcircumflex" unicode="&#x124;" horiz-adv-x="797" 
d="M508 0v79h70v250h-359v-250h70v-79h-234v79h70v542h-70v79h234v-79h-70v-213h359v213h-70v79h234v-79h-70v-542h70v-79h-234zM199 760l125 140h142l125 -140h-94l-102 105l-102 -105h-94z" />
    <glyph glyph-name="hcircumflex" unicode="&#x125;" horiz-adv-x="640" 
d="M380 0v62h66v249q0 27 -0.5 39.5t-5.5 39t-15.5 40t-32 25t-52.5 11.5q-23 0 -44 -6.5t-46 -24.5t-40.5 -58.5t-15.5 -99.5v-215h66v-62h-220v62h66v576h-66v62h154v-263q67 91 174 91q166 0 166 -190v-276h66v-62h-220zM-51 780l119 132h132l119 -132h-88l-97 99
l-97 -99h-88z" />
    <glyph glyph-name="Hbar" unicode="&#x126;" horiz-adv-x="797" 
d="M508 0v79h70v250h-359v-250h70v-79h-234v79h70v413h-69v62h69v67h-70v79h234v-79h-70v-67h359v67h-70v79h234v-79h-70v-67h70v-62h-70v-413h70v-79h-234zM219 408h359v84h-359v-84z" />
    <glyph glyph-name="hbar" unicode="&#x127;" horiz-adv-x="614" 
d="M354 0v62h66v229q0 27 -0.5 39.5t-5.5 39t-15.5 40t-32 25t-52.5 11.5q-23 0 -44 -6.5t-46 -24.5t-40.5 -58.5t-15.5 -99.5v-195h66v-62h-220v62h66v482h-80v54h80v40h-66v62h154v-102h210v-54h-210v-127q67 91 174 91q166 0 166 -190v-256h66v-62h-220z" />
    <glyph glyph-name="Imacron" unicode="&#x12a;" horiz-adv-x="344" 
d="M55 621v79h234v-79h-70v-542h70v-79h-234v79h70v542h-70zM15 772v60h316v-60h-316z" />
    <glyph glyph-name="imacron" unicode="&#x12b;" horiz-adv-x="300" 
d="M40 446v62h154v-446h66v-62h-220v62h66v384h-66zM-24 613v60h316v-60h-316z" />
    <glyph glyph-name="Iogonek" unicode="&#x12e;" horiz-adv-x="344" 
d="M162 0h-107v79h70v542h-70v79h234v-79h-70v-542h70v-79h-42q-29 -17 -46.5 -46t-17.5 -57q0 -25 11.5 -42t34.5 -17q22 0 33 16.5t11 35.5h74q-3 -46 -34.5 -80t-88.5 -34q-58 0 -94.5 27.5t-36.5 74.5q0 69 69 122z" />
    <glyph glyph-name="iogonek" unicode="&#x12f;" horiz-adv-x="300" 
d="M109 0h-69v62h66v384h-66v62h154v-446h66v-62h-69q-29 -17 -45.5 -44t-16.5 -55q0 -25 11.5 -40.5t33.5 -15.5t32 15.5t10 33.5h71q-3 -43 -33.5 -76t-84.5 -33q-56 0 -91 26.5t-35 71.5q0 63 66 117zM106 608v92h88v-92h-88z" />
    <glyph glyph-name="Idot" unicode="&#x130;" horiz-adv-x="344" 
d="M55 621v79h234v-79h-70v-542h70v-79h-234v79h70v542h-70zM125 772v79h94v-79h-94z" />
    <glyph glyph-name="dotlessi" unicode="&#x131;" horiz-adv-x="300" 
d="M40 446v62h154v-446h66v-62h-220v62h66v384h-66z" />
    <glyph glyph-name="Jcircumflex" unicode="&#x134;" horiz-adv-x="553" 
d="M279 621v79h239v-79h-70v-379q0 -139 -48.5 -201t-162.5 -62q-214 0 -214 217v36h94q0 -88 27 -131t94 -43q69 0 92.5 44t23.5 131v388h-75zM204 760l125 140h142l125 -140h-94l-102 105l-102 -105h-94z" />
    <glyph glyph-name="jcircumflex" unicode="&#x135;" horiz-adv-x="262" 
d="M38 446v62h154v-555q0 -72 -26.5 -107t-93.5 -35q-9 0 -57 4v62q19 3 30.5 5t22.5 6.5t16 5t10 8t6.5 9t2.5 14t1 16.5v23v482h-66zM-60 568l119 132h132l119 -132h-88l-97 99l-97 -99h-88z" />
    <glyph glyph-name="Kcommaaccent" unicode="&#x136;" horiz-adv-x="655" 
d="M249 360l218 261h-52v79h217v-79h-58l-214 -256l228 -286h62v-79h-229v79h52zM219 621v-542h70v-79h-234v79h70v542h-70v79h234v-79h-70zM299 -60h107v-109q0 -86 -107 -107v59q24 3 39 16.5t15 31.5v12h-54v97z" />
    <glyph glyph-name="kcommaaccent" unicode="&#x137;" horiz-adv-x="543" 
d="M40 638v62h154v-638h66v-62h-220v62h66v576h-66zM219 266l152 180h-49v62h198v-62h-58l-152 -177l166 -207h67v-62h-116zM232 -60h99v-101q0 -78 -99 -99v55q21 2 35.5 14.5t14.5 29.5v11h-50v90z" />
    <glyph glyph-name="Lacute" unicode="&#x139;" horiz-adv-x="600" 
d="M55 621v79h234v-79h-70v-542h282v156h79v-235h-525v79h70v542h-70zM211 900h112l-102 -140h-84z" />
    <glyph glyph-name="lacute" unicode="&#x13a;" horiz-adv-x="300" 
d="M40 638v62h154v-638h66v-62h-220v62h66v576h-66zM178 883h106l-96 -132h-80z" />
    <glyph glyph-name="Lcommaaccent" unicode="&#x13b;" horiz-adv-x="600" 
d="M55 621v79h234v-79h-70v-542h282v156h79v-235h-525v79h70v542h-70zM278 -60h107v-109q0 -86 -107 -107v59q24 3 39 16.5t15 31.5v12h-54v97z" />
    <glyph glyph-name="lcommaaccent" unicode="&#x13c;" horiz-adv-x="300" 
d="M40 638v62h154v-638h66v-62h-220v62h66v576h-66zM101 -60h99v-101q0 -78 -99 -99v55q21 2 35.5 14.5t14.5 29.5v11h-50v90z" />
    <glyph glyph-name="Lcaron" unicode="&#x13d;" horiz-adv-x="600" 
d="M55 621v79h234v-79h-70v-542h282v156h79v-235h-525v79h70v542h-70zM357 700h99v-140q0 -53 -30.5 -81t-68.5 -36v55q21 2 35.5 20.5t14.5 41.5v31h-50v109z" />
    <glyph glyph-name="lcaron" unicode="&#x13e;" horiz-adv-x="371" 
d="M40 638v62h154v-638h66v-62h-220v62h66v576h-66zM272 700h99v-140q0 -53 -30.5 -81t-68.5 -36v55q21 2 35.5 20.5t14.5 41.5v31h-50v109z" />
    <glyph glyph-name="Ldot" unicode="&#x13f;" horiz-adv-x="600" 
d="M55 621v79h234v-79h-70v-542h282v156h79v-235h-525v79h70v542h-70zM402 323v110h99v-110h-99z" />
    <glyph glyph-name="ldot" unicode="&#x140;" horiz-adv-x="359" 
d="M40 638v62h154v-638h66v-62h-220v62h66v576h-66zM275 272v110h99v-110h-99z" />
    <glyph glyph-name="Lslash" unicode="&#x141;" horiz-adv-x="600" 
d="M55 621v79h234v-79h-70v-241l182 172v-84l-182 -172v-217h282v156h79v-235h-525v79h70v128l-95 -89v84l95 89v330h-70z" />
    <glyph glyph-name="lslash" unicode="&#x142;" horiz-adv-x="300" 
d="M40 638v62h154v-263l123 82v-70l-123 -82v-305h66v-62h-220v62h66v247l-123 -81v70l123 81v259h-66z" />
    <glyph glyph-name="Nacute" unicode="&#x143;" horiz-adv-x="816" 
d="M527 621v79h234v-79h-70v-621h-103l-369 560v-481h70v-79h-234v79h70v542h-70v79h174l368 -560v481h-70zM417 900h112l-102 -140h-84z" />
    <glyph glyph-name="nacute" unicode="&#x144;" horiz-adv-x="641" 
d="M381 0v62h66v249q0 25 -0.5 38t-6 39t-15.5 40t-32 26t-53 12q-23 0 -44 -6.5t-46 -24.5t-40.5 -58.5t-15.5 -99.5v-215h66v-62h-220v62h66v384h-66v62h154v-71q62 91 174 91q167 0 167 -190v-276h66v-62h-220zM328 700h106l-96 -132h-80z" />
    <glyph glyph-name="Ncommaaccent" unicode="&#x145;" horiz-adv-x="816" 
d="M527 621v79h234v-79h-70v-621h-103l-369 560v-481h70v-79h-234v79h70v542h-70v79h174l368 -560v481h-70zM356 -60h107v-109q0 -86 -107 -107v59q24 3 39 16.5t15 31.5v12h-54v97z" />
    <glyph glyph-name="ncommaaccent" unicode="&#x146;" horiz-adv-x="641" 
d="M381 0v62h66v249q0 25 -0.5 38t-6 39t-15.5 40t-32 26t-53 12q-23 0 -44 -6.5t-46 -24.5t-40.5 -58.5t-15.5 -99.5v-215h66v-62h-220v62h66v384h-66v62h154v-71q62 91 174 91q167 0 167 -190v-276h66v-62h-220zM237 -60h99v-101q0 -78 -99 -99v55q21 2 35.5 14.5
t14.5 29.5v11h-50v90z" />
    <glyph glyph-name="Ncaron" unicode="&#x147;" horiz-adv-x="816" 
d="M527 621v79h234v-79h-70v-621h-103l-369 560v-481h70v-79h-234v79h70v542h-70v79h174l368 -560v481h-70zM481 760h-142l-125 140h94l102 -105l102 105h94z" />
    <glyph glyph-name="ncaron" unicode="&#x148;" horiz-adv-x="641" 
d="M381 0v62h66v249q0 25 -0.5 38t-6 39t-15.5 40t-32 26t-53 12q-23 0 -44 -6.5t-46 -24.5t-40.5 -58.5t-15.5 -99.5v-215h66v-62h-220v62h66v384h-66v62h154v-71q62 91 174 91q167 0 167 -190v-276h66v-62h-220zM386 568h-132l-119 132h88l97 -99l97 99h88z" />
    <glyph glyph-name="Omacron" unicode="&#x14c;" horiz-adv-x="758" 
d="M45 350q0 179 91.5 275t242.5 96q49 0 94.5 -11t90 -38t77 -68t52.5 -106.5t20 -147.5q0 -75 -17 -135.5t-41.5 -98.5t-60 -65.5t-65.5 -41t-65.5 -21t-52 -8.5t-32.5 -1q-17 0 -33.5 1t-52 8.5t-65.5 21t-65.5 41t-60 65.5t-41 98.5t-16.5 135.5zM145 350q0 -39 5 -74.5
t20 -76.5t40 -71t68.5 -50t100.5 -20q15 0 28.5 1t38.5 7.5t45.5 17.5t44 33t39.5 51.5t27 76.5t11 105q0 131 -59 211.5t-175 80.5q-61 0 -106.5 -24t-69 -56.5t-37.5 -76.5t-17.5 -74.5t-3.5 -60.5zM221 772v60h316v-60h-316z" />
    <glyph glyph-name="omacron" unicode="&#x14d;" horiz-adv-x="586" 
d="M43 254q0 53 13.5 100t41.5 87t78 63.5t117 23.5t117 -23.5t78 -63.5t41.5 -87t13.5 -100t-13.5 -100t-41.5 -87t-78 -63.5t-117 -23.5t-117 23.5t-78 63.5t-41.5 87t-13.5 100zM136 255q0 -58 13 -100.5t30.5 -63t42 -33t39.5 -14.5t32 -2t32 2t39.5 14.5t42 33t30.5 63
t13 100.5t-13 100.5t-30.5 63t-42 33t-39.5 14.5t-32 2t-32 -2t-39.5 -14.5t-42 -33t-30.5 -63t-13 -100.5zM135 613v60h316v-60h-316z" />
    <glyph glyph-name="Ohungarumlaut" unicode="&#x150;" horiz-adv-x="758" 
d="M45 350q0 179 91.5 275t242.5 96q49 0 94.5 -11t90 -38t77 -68t52.5 -106.5t20 -147.5q0 -75 -17 -135.5t-41.5 -98.5t-60 -65.5t-65.5 -41t-65.5 -21t-52 -8.5t-32.5 -1q-17 0 -33.5 1t-52 8.5t-65.5 21t-65.5 41t-60 65.5t-41 98.5t-16.5 135.5zM145 350q0 -39 5 -74.5
t20 -76.5t40 -71t68.5 -50t100.5 -20q15 0 28.5 1t38.5 7.5t45.5 17.5t44 33t39.5 51.5t27 76.5t11 105q0 131 -59 211.5t-175 80.5q-61 0 -106.5 -24t-69 -56.5t-37.5 -76.5t-17.5 -74.5t-3.5 -60.5zM324 900h106l-96 -140h-80zM477 900h106l-96 -140h-80z" />
    <glyph glyph-name="ohungarumlaut" unicode="&#x151;" horiz-adv-x="586" 
d="M43 254q0 53 13.5 100t41.5 87t78 63.5t117 23.5t117 -23.5t78 -63.5t41.5 -87t13.5 -100t-13.5 -100t-41.5 -87t-78 -63.5t-117 -23.5t-117 23.5t-78 63.5t-41.5 87t-13.5 100zM136 255q0 -58 13 -100.5t30.5 -63t42 -33t39.5 -14.5t32 -2t32 2t39.5 14.5t42 33t30.5 63
t13 100.5t-13 100.5t-30.5 63t-42 33t-39.5 14.5t-32 2t-32 -2t-39.5 -14.5t-42 -33t-30.5 -63t-13 -100.5zM238 700h106l-96 -132h-80zM391 700h106l-96 -132h-80z" />
    <glyph glyph-name="OE" unicode="&#x152;" horiz-adv-x="1093" 
d="M1052 490h-79v131h-326v-220h279v-79h-279v-243h337v141h79v-220h-510q-67 -21 -174 -21q-17 0 -33.5 1t-52 8.5t-65.5 21t-65.5 41t-60 65.5t-41 98.5t-16.5 135.5q0 179 91.5 275t242.5 96q105 0 174 -21h499v-210zM379 58q112 0 174 34v516q-69 34 -174 34
q-61 0 -106.5 -24t-69 -56.5t-37.5 -76.5t-17.5 -74.5t-3.5 -60.5q0 -39 5 -74.5t20 -76.5t40 -71t68.5 -50t100.5 -20z" />
    <glyph glyph-name="oe" unicode="&#x153;" horiz-adv-x="972" 
d="M840 148h84q-40 -168 -225 -168q-29 0 -50 2.5t-52.5 11.5t-58 31.5t-46.5 58.5q-55 -104 -200 -104q-123 0 -186 76.5t-63 199.5q0 30 3.5 59t19 70t41 70.5t74.5 51t115 21.5q138 0 196 -100q65 100 199 100q47 0 85 -11.5t62.5 -29t42.5 -43.5t27 -49t14 -51.5t6 -46
t1 -37.5v-25h-393q0 -48 15 -90t52.5 -72.5t92.5 -30.5q61 0 97 30.5t47 75.5zM136 256q0 -58 13 -100.5t30.5 -63.5t42 -33t39.5 -14.5t31 -2.5q39 0 68 15t45.5 37.5t26.5 53t13 56t3 52.5q0 26 -3 51t-13 55t-26.5 52t-45.5 37t-68 15q-16 0 -31 -2.5t-39.5 -14.5
t-42 -32.5t-30.5 -62t-13 -98.5zM536 297h300q-10 89 -41 129t-102 40q-46 0 -78 -16.5t-48 -44.5t-23 -54t-8 -54z" />
    <glyph glyph-name="Racute" unicode="&#x154;" horiz-adv-x="731" 
d="M539 0l-106 297h-214v-218h70v-79h-234v79h70v542h-70v79h365q29 0 57 -3.5t64.5 -15.5t63 -32.5t45 -58.5t18.5 -88q0 -58 -36.5 -112t-102.5 -79l74 -232h88v-79h-152zM219 621v-245h201q20 0 42 5t47.5 17t42 39t16.5 65q0 119 -162 119h-187zM387 900h112l-102 -140
h-84z" />
    <glyph glyph-name="racute" unicode="&#x155;" horiz-adv-x="403" 
d="M40 446v62h154v-98h2q17 54 64 84.5t104 32.5l26 1v-62q-93 -4 -141 -45t-54 -133q-1 -9 -1 -27v-199h66v-62h-220v62h66v384h-66zM246 700h106l-96 -132h-80z" />
    <glyph glyph-name="Rcommaaccent" unicode="&#x156;" horiz-adv-x="731" 
d="M539 0l-106 297h-214v-218h70v-79h-234v79h70v542h-70v79h365q29 0 57 -3.5t64.5 -15.5t63 -32.5t45 -58.5t18.5 -88q0 -58 -36.5 -112t-102.5 -79l74 -232h88v-79h-152zM219 621v-245h201q20 0 42 5t47.5 17t42 39t16.5 65q0 119 -162 119h-187zM327 -60h107v-109
q0 -86 -107 -107v59q24 3 39 16.5t15 31.5v12h-54v97z" />
    <glyph glyph-name="rcommaaccent" unicode="&#x157;" horiz-adv-x="403" 
d="M40 446v62h154v-98h2q17 54 64 84.5t104 32.5l26 1v-62q-93 -4 -141 -45t-54 -133q-1 -9 -1 -27v-199h66v-62h-220v62h66v384h-66zM100 -60h99v-101q0 -78 -99 -99v55q21 2 35.5 14.5t14.5 29.5v11h-50v90z" />
    <glyph glyph-name="Rcaron" unicode="&#x158;" horiz-adv-x="731" 
d="M539 0l-106 297h-214v-218h70v-79h-234v79h70v542h-70v79h365q29 0 57 -3.5t64.5 -15.5t63 -32.5t45 -58.5t18.5 -88q0 -58 -36.5 -112t-102.5 -79l74 -232h88v-79h-152zM219 621v-245h201q20 0 42 5t47.5 17t42 39t16.5 65q0 119 -162 119h-187zM451 760h-142l-125 140
h94l102 -105l102 105h94z" />
    <glyph glyph-name="rcaron" unicode="&#x159;" horiz-adv-x="403" 
d="M40 446v62h154v-98h2q17 54 64 84.5t104 32.5l26 1v-62q-93 -4 -141 -45t-54 -133q-1 -9 -1 -27v-199h66v-62h-220v62h66v384h-66zM286 568h-132l-119 132h88l97 -99l97 99h88z" />
    <glyph glyph-name="Sacute" unicode="&#x15a;" horiz-adv-x="656" 
d="M578 500h-79q-4 63 -59 102.5t-121 39.5q-72 0 -111 -31t-39 -86q0 -21 5.5 -37t20.5 -27.5t26 -19t38 -14.5t39 -9.5t46 -9.5q46 -9 76.5 -16.5t70.5 -24.5t63 -38.5t40 -57t17 -81.5q0 -57 -21.5 -98.5t-50 -62.5t-67.5 -33t-63.5 -14.5t-49.5 -2.5q-63 0 -127.5 20.5
t-97.5 72.5v-72h-74v235h79q2 -70 57 -123.5t143 -53.5q87 0 129.5 37.5t42.5 92.5q0 31 -12 53.5t-35 35.5t-43.5 20.5t-50.5 13.5q-10 2 -46.5 10t-47 10.5t-41.5 10.5t-41 12.5t-33.5 15t-32.5 19.5l-23.5 23.5t-20 30t-10.5 36t-5 44.5q0 97 66 147.5t183 50.5
q57 0 107.5 -22.5t80.5 -61.5v63h72v-200zM345 900h112l-102 -140h-84z" />
    <glyph glyph-name="sacute" unicode="&#x15b;" horiz-adv-x="524" 
d="M390 508h59v-140h-62q-2 11 -8 25t-19 32t-39 29.5t-60 11.5q-11 0 -22 -1.5t-32.5 -7.5t-35 -24.5t-13.5 -46.5q0 -13 3.5 -24t7.5 -18.5t14.5 -14.5t16 -11t21.5 -8.5t22.5 -6t26.5 -6t26 -5.5q91 -21 134.5 -52t43.5 -100q0 -44 -17 -76t-39 -47.5t-54 -24.5
t-49.5 -10.5t-36.5 -1.5q-45 0 -88.5 17t-67.5 53h-3v-50h-62v175h62q6 -60 46.5 -96.5t98.5 -36.5q119 0 119 89q0 21 -4.5 34t-29 29.5t-70.5 27.5l-54 12q-77 17 -117.5 47.5t-40.5 100.5q0 75 52.5 110.5t130.5 35.5q44 0 81.5 -16.5t55.5 -43.5h3v40zM271 700h106
l-96 -132h-80z" />
    <glyph glyph-name="Scircumflex" unicode="&#x15c;" horiz-adv-x="656" 
d="M578 500h-79q-4 63 -59 102.5t-121 39.5q-72 0 -111 -31t-39 -86q0 -21 5.5 -37t20.5 -27.5t26 -19t38 -14.5t39 -9.5t46 -9.5q46 -9 76.5 -16.5t70.5 -24.5t63 -38.5t40 -57t17 -81.5q0 -57 -21.5 -98.5t-50 -62.5t-67.5 -33t-63.5 -14.5t-49.5 -2.5q-63 0 -127.5 20.5
t-97.5 72.5v-72h-74v235h79q2 -70 57 -123.5t143 -53.5q87 0 129.5 37.5t42.5 92.5q0 31 -12 53.5t-35 35.5t-43.5 20.5t-50.5 13.5q-10 2 -46.5 10t-47 10.5t-41.5 10.5t-41 12.5t-33.5 15t-32.5 19.5l-23.5 23.5t-20 30t-10.5 36t-5 44.5q0 97 66 147.5t183 50.5
q57 0 107.5 -22.5t80.5 -61.5v63h72v-200zM132 760l125 140h142l125 -140h-94l-102 105l-102 -105h-94z" />
    <glyph glyph-name="scircumflex" unicode="&#x15d;" horiz-adv-x="524" 
d="M390 508h59v-140h-62q-2 11 -8 25t-19 32t-39 29.5t-60 11.5q-11 0 -22 -1.5t-32.5 -7.5t-35 -24.5t-13.5 -46.5q0 -13 3.5 -24t7.5 -18.5t14.5 -14.5t16 -11t21.5 -8.5t22.5 -6t26.5 -6t26 -5.5q91 -21 134.5 -52t43.5 -100q0 -44 -17 -76t-39 -47.5t-54 -24.5
t-49.5 -10.5t-36.5 -1.5q-45 0 -88.5 17t-67.5 53h-3v-50h-62v175h62q6 -60 46.5 -96.5t98.5 -36.5q119 0 119 89q0 21 -4.5 34t-29 29.5t-70.5 27.5l-54 12q-77 17 -117.5 47.5t-40.5 100.5q0 75 52.5 110.5t130.5 35.5q44 0 81.5 -16.5t55.5 -43.5h3v40zM63 568l119 132
h132l119 -132h-88l-97 99l-97 -99h-88z" />
    <glyph glyph-name="Scedilla" unicode="&#x15e;" horiz-adv-x="656" 
d="M578 500h-79q-4 63 -59 102.5t-121 39.5q-72 0 -111 -31t-39 -86q0 -21 5.5 -37t20.5 -27.5t26 -19t38 -14.5t39 -9.5t46 -9.5q46 -9 76.5 -16.5t70.5 -24.5t63 -38.5t40 -57t17 -81.5q0 -57 -21.5 -98.5t-50 -62.5t-67.5 -33t-63.5 -14.5t-49.5 -2.5q-63 0 -127.5 20.5
t-97.5 72.5v-72h-74v235h79q2 -70 57 -123.5t143 -53.5q87 0 129.5 37.5t42.5 92.5q0 31 -12 53.5t-35 35.5t-43.5 20.5t-50.5 13.5q-10 2 -46.5 10t-47 10.5t-41.5 10.5t-41 12.5t-33.5 15t-32.5 19.5l-23.5 23.5t-20 30t-10.5 36t-5 44.5q0 97 66 147.5t183 50.5
q57 0 107.5 -22.5t80.5 -61.5v63h72v-200zM222 -232l17 56q22 -8 62 -8q63 0 63 37t-59 37h-27h-17l15 52h32q133 0 133 -88q0 -35 -28.5 -64.5t-99.5 -29.5q-37 0 -91 8z" />
    <glyph glyph-name="scedilla" unicode="&#x15f;" horiz-adv-x="524" 
d="M390 508h59v-140h-62q-2 11 -8 25t-19 32t-39 29.5t-60 11.5q-11 0 -22 -1.5t-32.5 -7.5t-35 -24.5t-13.5 -46.5q0 -13 3.5 -24t7.5 -18.5t14.5 -14.5t16 -11t21.5 -8.5t22.5 -6t26.5 -6t26 -5.5q91 -21 134.5 -52t43.5 -100q0 -44 -17 -76t-39 -47.5t-54 -24.5
t-49.5 -10.5t-36.5 -1.5q-45 0 -88.5 17t-67.5 53h-3v-50h-62v175h62q6 -60 46.5 -96.5t98.5 -36.5q119 0 119 89q0 21 -4.5 34t-29 29.5t-70.5 27.5l-54 12q-77 17 -117.5 47.5t-40.5 100.5q0 75 52.5 110.5t130.5 35.5q44 0 81.5 -16.5t55.5 -43.5h3v40zM142 -232l17 56
q22 -8 62 -8q63 0 63 37t-59 37h-27h-17l15 52h32q133 0 133 -88q0 -35 -28.5 -64.5t-99.5 -29.5q-37 0 -91 8z" />
    <glyph glyph-name="Scaron" unicode="&#x160;" horiz-adv-x="656" 
d="M578 500h-79q-4 63 -59 102.5t-121 39.5q-72 0 -111 -31t-39 -86q0 -21 5.5 -37t20.5 -27.5t26 -19t38 -14.5t39 -9.5t46 -9.5q46 -9 76.5 -16.5t70.5 -24.5t63 -38.5t40 -57t17 -81.5q0 -57 -21.5 -98.5t-50 -62.5t-67.5 -33t-63.5 -14.5t-49.5 -2.5q-63 0 -127.5 20.5
t-97.5 72.5v-72h-74v235h79q2 -70 57 -123.5t143 -53.5q87 0 129.5 37.5t42.5 92.5q0 31 -12 53.5t-35 35.5t-43.5 20.5t-50.5 13.5q-10 2 -46.5 10t-47 10.5t-41.5 10.5t-41 12.5t-33.5 15t-32.5 19.5l-23.5 23.5t-20 30t-10.5 36t-5 44.5q0 97 66 147.5t183 50.5
q57 0 107.5 -22.5t80.5 -61.5v63h72v-200zM399 760h-142l-125 140h94l102 -105l102 105h94z" />
    <glyph glyph-name="scaron" unicode="&#x161;" horiz-adv-x="524" 
d="M390 508h59v-140h-62q-2 11 -8 25t-19 32t-39 29.5t-60 11.5q-11 0 -22 -1.5t-32.5 -7.5t-35 -24.5t-13.5 -46.5q0 -13 3.5 -24t7.5 -18.5t14.5 -14.5t16 -11t21.5 -8.5t22.5 -6t26.5 -6t26 -5.5q91 -21 134.5 -52t43.5 -100q0 -44 -17 -76t-39 -47.5t-54 -24.5
t-49.5 -10.5t-36.5 -1.5q-45 0 -88.5 17t-67.5 53h-3v-50h-62v175h62q6 -60 46.5 -96.5t98.5 -36.5q119 0 119 89q0 21 -4.5 34t-29 29.5t-70.5 27.5l-54 12q-77 17 -117.5 47.5t-40.5 100.5q0 75 52.5 110.5t130.5 35.5q44 0 81.5 -16.5t55.5 -43.5h3v40zM314 568h-132
l-119 132h88l97 -99l97 99h88z" />
    <glyph glyph-name="Tcedilla" unicode="&#x162;" horiz-adv-x="638" 
d="M202 0v79h70v542h-183v-171h-79v250h618v-250h-79v171h-183v-542h70v-79h-234zM213 -248l19 61q22 -8 67 -8q69 0 69 40t-65 40h-29h-18l16 57h35q145 0 145 -97q0 -38 -31 -69.5t-108 -31.5q-42 0 -100 8z" />
    <glyph glyph-name="tcedilla" unicode="&#x163;" horiz-adv-x="320" 
d="M13 508h91v152h88v-152h108v-62h-108v-323v-5q0 -23 1.5 -34t14 -21t37.5 -10q24 0 55 9v-62q-47 -20 -92 -20q-30 0 -51 8.5t-31 19.5t-15.5 31t-6 31.5t-0.5 34.5v341h-91v62zM83 -232l17 56q22 -8 62 -8q63 0 63 37t-59 37h-27h-17l15 52h32q133 0 133 -88
q0 -35 -28.5 -64.5t-99.5 -29.5q-37 0 -91 8z" />
    <glyph glyph-name="Tcaron" unicode="&#x164;" horiz-adv-x="638" 
d="M202 0v79h70v542h-183v-171h-79v250h618v-250h-79v171h-183v-542h70v-79h-234zM389 760h-142l-125 140h94l102 -105l102 105h94z" />
    <glyph glyph-name="tcaron" unicode="&#x165;" horiz-adv-x="435" 
d="M13 508h91v152h88v-152h108v-62h-108v-323v-5q0 -23 1.5 -34t14 -21t37.5 -10q24 0 55 9v-62q-47 -20 -92 -20q-30 0 -51 8.5t-31 19.5t-15.5 31t-6 31.5t-0.5 34.5v341h-91v62zM336 700h99v-140q0 -53 -30.5 -81t-68.5 -36v55q21 2 35.5 20.5t14.5 41.5v31h-50v109z" />
    <glyph glyph-name="Umacron" unicode="&#x16a;" horiz-adv-x="772" 
d="M498 621v79h234v-79h-70v-350q0 -59 -12 -106t-29 -77t-44 -51.5t-50 -32.5t-53.5 -17t-48 -7t-39.5 -1q-73 0 -126.5 19.5t-81.5 47.5t-44 71t-20 76.5t-4 77.5v350h-70v79h234v-79h-70v-338q0 -34 2 -57.5t12 -58t28 -56t54 -37.5t86 -16q101 0 141.5 55t40.5 170v338
h-70zM228 772v60h316v-60h-316z" />
    <glyph glyph-name="umacron" unicode="&#x16b;" horiz-adv-x="641" 
d="M535 508v-446h66v-62h-154v72h-2q-23 -40 -64.5 -62.5t-65 -26t-42.5 -3.5q-167 0 -167 191v275h-66v62h154v-311q0 -89 27 -122t80 -33q146 0 146 189v215h-66v62h154zM152 613v60h316v-60h-316z" />
    <glyph glyph-name="Ubreve" unicode="&#x16c;" horiz-adv-x="772" 
d="M498 621v79h234v-79h-70v-350q0 -59 -12 -106t-29 -77t-44 -51.5t-50 -32.5t-53.5 -17t-48 -7t-39.5 -1q-73 0 -126.5 19.5t-81.5 47.5t-44 71t-20 76.5t-4 77.5v350h-70v79h234v-79h-70v-338q0 -34 2 -57.5t12 -58t28 -56t54 -37.5t86 -16q101 0 141.5 55t40.5 170v338
h-70zM199 900h86q13 -78 101 -78t101 78h86q-11 -75 -63.5 -107.5t-123.5 -32.5t-123.5 32.5t-63.5 107.5z" />
    <glyph glyph-name="ubreve" unicode="&#x16d;" horiz-adv-x="641" 
d="M535 508v-446h66v-62h-154v72h-2q-23 -40 -64.5 -62.5t-65 -26t-42.5 -3.5q-167 0 -167 191v275h-66v62h154v-311q0 -89 27 -122t80 -33q146 0 146 189v215h-66v62h154zM310 623q85 0 96 77h78q-11 -64 -55.5 -99t-118.5 -35t-118.5 35t-55.5 99h78q11 -77 96 -77z" />
    <glyph glyph-name="Uring" unicode="&#x16e;" horiz-adv-x="772" 
d="M498 621v79h234v-79h-70v-350q0 -59 -12 -106t-29 -77t-44 -51.5t-50 -32.5t-53.5 -17t-48 -7t-39.5 -1q-73 0 -126.5 19.5t-81.5 47.5t-44 71t-20 76.5t-4 77.5v350h-70v79h234v-79h-70v-338q0 -34 2 -57.5t12 -58t28 -56t54 -37.5t86 -16q101 0 141.5 55t40.5 170v338
h-70zM288 828q0 42 28 70t70 28t70 -28t28 -70t-28 -70t-70 -28t-70 28t-28 70zM330 828q0 -23 16.5 -39.5t39.5 -16.5t39.5 16.5t16.5 39.5t-16.5 39.5t-39.5 16.5t-39.5 -16.5t-16.5 -39.5z" />
    <glyph glyph-name="uring" unicode="&#x16f;" horiz-adv-x="641" 
d="M535 508v-446h66v-62h-154v72h-2q-23 -40 -64.5 -62.5t-65 -26t-42.5 -3.5q-167 0 -167 191v275h-66v62h154v-311q0 -89 27 -122t80 -33q146 0 146 189v215h-66v62h154zM227 643q0 39 27 66t66 27t66 -27t27 -66t-27 -66t-66 -27t-66 27t-27 66zM268 643q0 -22 15 -37
t37 -15t37 15t15 37t-15 37t-37 15t-37 -15t-15 -37z" />
    <glyph glyph-name="Uhungarumlaut" unicode="&#x170;" horiz-adv-x="772" 
d="M498 621v79h234v-79h-70v-350q0 -59 -12 -106t-29 -77t-44 -51.5t-50 -32.5t-53.5 -17t-48 -7t-39.5 -1q-73 0 -126.5 19.5t-81.5 47.5t-44 71t-20 76.5t-4 77.5v350h-70v79h234v-79h-70v-338q0 -34 2 -57.5t12 -58t28 -56t54 -37.5t86 -16q101 0 141.5 55t40.5 170v338
h-70zM321 900h106l-96 -140h-80zM474 900h106l-96 -140h-80z" />
    <glyph glyph-name="uhungarumlaut" unicode="&#x171;" horiz-adv-x="641" 
d="M535 508v-446h66v-62h-154v72h-2q-23 -40 -64.5 -62.5t-65 -26t-42.5 -3.5q-167 0 -167 191v275h-66v62h154v-311q0 -89 27 -122t80 -33q146 0 146 189v215h-66v62h154zM256 700h106l-96 -132h-80zM409 700h106l-96 -132h-80z" />
    <glyph glyph-name="Uogonek" unicode="&#x172;" horiz-adv-x="772" 
d="M498 621v79h234v-79h-70v-350q0 -75 -19.5 -131t-45.5 -85t-65 -47t-66 -22.5t-60 -6.5q-37 -37 -37 -82q0 -25 11.5 -42t34.5 -17q22 0 33 16.5t11 35.5h74q-3 -46 -34.5 -80t-88.5 -34q-58 0 -94.5 27.5t-36.5 74.5q0 56 49 105q-57 7 -99 29.5t-64.5 50t-35.5 67
t-16 71t-3 70.5v350h-70v79h234v-79h-70v-338q0 -34 2 -57.5t12 -58t28 -56t54 -37.5t86 -16q101 0 141.5 55t40.5 170v338h-70z" />
    <glyph glyph-name="uogonek" unicode="&#x173;" horiz-adv-x="641" 
d="M477 0h-30v72h-2q-23 -40 -64.5 -62.5t-65 -26t-42.5 -3.5q-167 0 -167 191v275h-66v62h154v-311q0 -89 27 -122t80 -33q146 0 146 189v215h-66v62h154v-446h66v-62h-42q-29 -17 -45.5 -44t-16.5 -55q0 -25 11.5 -40.5t33.5 -15.5t32 15.5t10 33.5h71q-3 -43 -33.5 -76
t-84.5 -33q-56 0 -91 26.5t-35 71.5q0 63 66 117z" />
    <glyph glyph-name="Ydieresis" unicode="&#x178;" horiz-adv-x="634" 
d="M0 621v79h237v-79h-62l148 -245l146 245h-55v79h220v-79h-60l-209 -329v-213h70v-79h-234v79h70v213l-209 329h-62zM162 772v79h94v-79h-94zM378 772v79h94v-79h-94z" />
    <glyph glyph-name="Zacute" unicode="&#x179;" horiz-adv-x="614" 
d="M132 490h-79v210h506v-75l-409 -546h350v156h79v-235h-544v86l414 535h-317v-131zM312 900h112l-102 -140h-84z" />
    <glyph glyph-name="zacute" unicode="&#x17a;" horiz-adv-x="470" 
d="M382 175h62v-175h-418v62l304 384h-221v-98h-62v160h380v-62l-295 -384h250v113zM250 700h106l-96 -132h-80z" />
    <glyph glyph-name="Zdotaccent" unicode="&#x17b;" horiz-adv-x="614" 
d="M132 490h-79v210h506v-75l-409 -546h350v156h79v-235h-544v86l414 535h-317v-131zM258 772v79h94v-79h-94z" />
    <glyph glyph-name="zdotaccent" unicode="&#x17c;" horiz-adv-x="470" 
d="M382 175h62v-175h-418v62l304 384h-221v-98h-62v160h380v-62l-295 -384h250v113zM190 608v92h92v-92h-92z" />
    <glyph glyph-name="uni018F" unicode="&#x18f;" horiz-adv-x="759" 
d="M372 642q-88 0 -148 -47.5t-69 -104.5h-79v210h75v-82q33 47 96.5 75t134.5 28q151 0 241.5 -96t90.5 -275q0 -75 -17 -135.5t-41.5 -98.5t-60 -65.5t-65.5 -41t-65.5 -21t-52 -8.5t-32.5 -1q-77 0 -138 25t-97.5 64t-60 91t-31.5 102t-7 100h568q-1 69 -19 121.5t-43 82
t-59.5 48t-63 24t-57.5 5.5zM611 278h-463q3 -26 10.5 -52.5t25 -58t42 -54.5t64.5 -39t90 -16q105 0 164.5 65t66.5 155z" />
    <glyph glyph-name="florin" unicode="&#x192;" 
d="M465 508l-13 -62h-109l-103 -490q-17 -69 -37 -96q-38 -49 -114 -49q-27 0 -55 4l14 65q3 -1 14 -1q42 0 61 18t29 65l102 484h-93l13 62h93l15 69q27 123 162 123q35 0 62 -7l-12 -60q-25 5 -62 5q-50 0 -63 -69l-13 -61h109z" />
    <glyph glyph-name="uni01DD" unicode="&#x1dd;" horiz-adv-x="566" 
d="M429 212h-299q1 -46 14.5 -80t30 -50.5t39 -26.5t34.5 -11.5t24 -1.5q149 0 157 170zM276 528q51 0 91.5 -13t66 -31.5t43.5 -47t26.5 -51t13 -53.5t5 -44t0.5 -32q0 -55 -12 -100t-30 -73t-44 -49t-48 -31t-48 -15.5t-39.5 -6.5t-26.5 -1q-242 0 -236 294h391
q0 24 -4 48t-15 50.5t-27.5 47t-44.5 33.5t-63 13q-67 0 -106.5 -32.5t-46.5 -85.5h-67v160h64v-48h3q31 36 75.5 52t78.5 16z" />
    <glyph glyph-name="Scommaaccent" unicode="&#x218;" horiz-adv-x="656" 
d="M578 500h-79q-4 63 -59 102.5t-121 39.5q-72 0 -111 -31t-39 -86q0 -21 5.5 -37t20.5 -27.5t26 -19t38 -14.5t39 -9.5t46 -9.5q46 -9 76.5 -16.5t70.5 -24.5t63 -38.5t40 -57t17 -81.5q0 -57 -21.5 -98.5t-50 -62.5t-67.5 -33t-63.5 -14.5t-49.5 -2.5q-63 0 -127.5 20.5
t-97.5 72.5v-72h-74v235h79q2 -70 57 -123.5t143 -53.5q87 0 129.5 37.5t42.5 92.5q0 31 -12 53.5t-35 35.5t-43.5 20.5t-50.5 13.5q-10 2 -46.5 10t-47 10.5t-41.5 10.5t-41 12.5t-33.5 15t-32.5 19.5l-23.5 23.5t-20 30t-10.5 36t-5 44.5q0 97 66 147.5t183 50.5
q57 0 107.5 -22.5t80.5 -61.5v63h72v-200zM284 -60h107v-109q0 -86 -107 -107v59q24 3 39 16.5t15 31.5v12h-54v97z" />
    <glyph glyph-name="scommaaccent" unicode="&#x219;" horiz-adv-x="524" 
d="M390 508h59v-140h-62q-2 11 -8 25t-19 32t-39 29.5t-60 11.5q-11 0 -22 -1.5t-32.5 -7.5t-35 -24.5t-13.5 -46.5q0 -13 3.5 -24t7.5 -18.5t14.5 -14.5t16 -11t21.5 -8.5t22.5 -6t26.5 -6t26 -5.5q91 -21 134.5 -52t43.5 -100q0 -44 -17 -76t-39 -47.5t-54 -24.5
t-49.5 -10.5t-36.5 -1.5q-45 0 -88.5 17t-67.5 53h-3v-50h-62v175h62q6 -60 46.5 -96.5t98.5 -36.5q119 0 119 89q0 21 -4.5 34t-29 29.5t-70.5 27.5l-54 12q-77 17 -117.5 47.5t-40.5 100.5q0 75 52.5 110.5t130.5 35.5q44 0 81.5 -16.5t55.5 -43.5h3v40zM209 -60h99v-101
q0 -78 -99 -99v55q21 2 35.5 14.5t14.5 29.5v11h-50v90z" />
    <glyph glyph-name="Tcommaaccent" unicode="&#x21a;" horiz-adv-x="638" 
d="M202 0v79h70v542h-183v-171h-79v250h618v-250h-79v171h-183v-542h70v-79h-234zM265 -60h107v-109q0 -86 -107 -107v59q24 3 39 16.5t15 31.5v12h-54v97z" />
    <glyph glyph-name="tcommaaccent" unicode="&#x21b;" horiz-adv-x="320" 
d="M13 508h91v152h88v-152h108v-62h-108v-323v-5q0 -23 1.5 -34t14 -21t37.5 -10q24 0 55 9v-62q-47 -20 -92 -20q-30 0 -51 8.5t-31 19.5t-15.5 31t-6 31.5t-0.5 34.5v341h-91v62zM154 -60h99v-101q0 -78 -99 -99v55q21 2 35.5 14.5t14.5 29.5v11h-50v90z" />
    <glyph glyph-name="uni0259" unicode="&#x259;" horiz-adv-x="566" 
d="M429 212h-299q1 -46 14.5 -80t30 -50.5t39 -26.5t34.5 -11.5t24 -1.5q149 0 157 170zM276 528q51 0 91.5 -13t66 -31.5t43.5 -47t26.5 -51t13 -53.5t5 -44t0.5 -32q0 -55 -12 -100t-30 -73t-44 -49t-48 -31t-48 -15.5t-39.5 -6.5t-26.5 -1q-242 0 -236 294h391
q0 24 -4 48t-15 50.5t-27.5 47t-44.5 33.5t-63 13q-67 0 -106.5 -32.5t-46.5 -85.5h-67v160h64v-48h3q31 36 75.5 52t78.5 16z" />
    <glyph glyph-name="afii57929" unicode="&#x2bc;" horiz-adv-x="199" 
d="M50 700h99v-140q0 -53 -30.5 -81t-68.5 -36v55q21 2 35.5 20.5t14.5 41.5v31h-50v109z" />
    <glyph glyph-name="circumflex" unicode="&#x2c6;" horiz-adv-x="470" 
d="M50 568l119 132h132l119 -132h-88l-97 99l-97 -99h-88z" />
    <glyph glyph-name="caron" unicode="&#x2c7;" horiz-adv-x="470" 
d="M301 568h-132l-119 132h88l97 -99l97 99h88z" />
    <glyph glyph-name="breve" unicode="&#x2d8;" horiz-adv-x="444" 
d="M222 623q85 0 96 77h78q-11 -64 -55.5 -99t-118.5 -35t-118.5 35t-55.5 99h78q11 -77 96 -77z" />
    <glyph glyph-name="dotaccent" unicode="&#x2d9;" horiz-adv-x="192" 
d="M50 608v92h92v-92h-92z" />
    <glyph glyph-name="ring" unicode="&#x2da;" horiz-adv-x="284" 
d="M49 643q0 39 27 66t66 27t66 -27t27 -66t-27 -66t-66 -27t-66 27t-27 66zM90 643q0 -22 15 -37t37 -15t37 15t15 37t-15 37t-37 15t-37 -15t-15 -37z" />
    <glyph glyph-name="ogonek" unicode="&#x2db;" horiz-adv-x="350" 
d="M123 0h82q-29 -17 -45.5 -44t-16.5 -55q0 -25 11.5 -40.5t33.5 -15.5t32 15.5t10 33.5h71q-3 -43 -33.5 -76t-84.5 -33q-56 0 -91 26.5t-35 71.5q0 63 66 117z" />
    <glyph glyph-name="tilde" unicode="&#x2dc;" horiz-adv-x="470" 
d="M362 700h58q-8 -40 -34 -71t-77 -31q-32 0 -82 26q-46 24 -67 24q-47 0 -51 -40h-59q7 42 36.5 71t74.5 29q35 0 74 -22q48 -28 74 -28q18 0 33 12t20 30z" />
    <glyph glyph-name="hungarumlaut" unicode="&#x2dd;" horiz-adv-x="429" 
d="M120 700h106l-96 -132h-80zM273 700h106l-96 -132h-80z" />
    <glyph glyph-name="gravecomb" unicode="&#x300;" horiz-adv-x="2" 
d="M-322 700l70 -132h-80l-96 132h106z" />
    <glyph glyph-name="acutecomb" unicode="&#x301;" horiz-adv-x="2" 
d="M-267 700h106l-96 -132h-80z" />
    <glyph glyph-name="uni0394" unicode="&#x394;" horiz-adv-x="663" 
d="M329 602l-195 -523h390zM10 0l273 700h97l273 -700h-643z" />
    <glyph glyph-name="uni0394" unicode="&#x2206;" horiz-adv-x="663" 
d="M329 602l-195 -523h390zM10 0l273 700h97l273 -700h-643z" />
    <glyph glyph-name="uni03A9" unicode="&#x3a9;" horiz-adv-x="772" 
d="M30 155h79v-76h135v38q-86 22 -138 97t-52 189q0 137 85 227.5t252 90.5t252 -90.5t85 -227.5q0 -114 -52 -189t-138 -97v-38h125v76h79v-155h-283v167q169 34 169 236q0 116 -65.5 177.5t-171.5 61.5t-171.5 -61.5t-65.5 -177.5q0 -202 169 -236v-167h-293v155z" />
    <glyph glyph-name="uni03A9" unicode="&#x2126;" horiz-adv-x="772" 
d="M30 155h79v-76h135v38q-86 22 -138 97t-52 189q0 137 85 227.5t252 90.5t252 -90.5t85 -227.5q0 -114 -52 -189t-138 -97v-38h125v76h79v-155h-283v167q169 34 169 236q0 116 -65.5 177.5t-171.5 61.5t-171.5 -61.5t-65.5 -177.5q0 -202 169 -236v-167h-293v155z" />
    <glyph glyph-name="pi" unicode="&#x3c0;" horiz-adv-x="621" 
d="M59 62h66v384h-13q-46 0 -77 -20v62q36 20 95 20h451v-62h-66v-446h-88v446h-214v-446h-154v62z" />
    <glyph glyph-name="afii10023" unicode="&#x401;" horiz-adv-x="665" 
d="M624 490h-79v131h-326v-220h279v-79h-279v-243h337v141h79v-220h-580v79h70v542h-70v79h569v-210zM191 772v79h94v-79h-94zM407 772v79h94v-79h-94z" />
    <glyph glyph-name="afii10051" unicode="&#x402;" horiz-adv-x="797" 
d="M202 0v79h69v542h-182v-171h-79v250h618v-230h-79v151h-183v-225q79 7 152 7q75 0 127 -19t76.5 -52t34 -64.5t9.5 -68.5q0 -100 -56.5 -156t-156.5 -56q-42 0 -79 13v79q43 -13 71 -13q16 0 30.5 2t32.5 10t31 21t22 37t9 56q0 62 -36 97t-133 35q-66 0 -134 -7v-238h50
v-79h-214z" />
    <glyph glyph-name="afii10052" unicode="&#x403;" horiz-adv-x="576" 
d="M55 621v79h511v-250h-79v171h-268v-542h70v-79h-234v79h70v542h-70zM339 900h112l-102 -140h-84z" />
    <glyph glyph-name="afii10053" unicode="&#x404;" horiz-adv-x="712" 
d="M652 490h-79q-2 23 -12 46t-31.5 48.5t-63 41.5t-98.5 16q-106 0 -159 -67.5t-62 -174.5h343v-79h-345q6 -117 69.5 -190t167.5 -73q83 0 138.5 49t59.5 125h94q-4 -34 -13.5 -65t-31.5 -66.5t-53 -61.5t-82.5 -43t-115.5 -17q-156 0 -244.5 95.5t-88.5 263.5
q0 76 15 138t37 101t54.5 68t60.5 43t61.5 22t51.5 9.5t37 1.5q142 0 216 -93v72h74v-210z" />
    <glyph glyph-name="afii10054" unicode="&#x405;" horiz-adv-x="656" 
d="M578 500h-79q-4 63 -59 102.5t-121 39.5q-72 0 -111 -31t-39 -86q0 -21 5.5 -37t20.5 -27.5t26 -19t38 -14.5t39 -9.5t46 -9.5q46 -9 76.5 -16.5t70.5 -24.5t63 -38.5t40 -57t17 -81.5q0 -57 -21.5 -98.5t-50 -62.5t-67.5 -33t-63.5 -14.5t-49.5 -2.5q-63 0 -127.5 20.5
t-97.5 72.5v-72h-74v235h79q2 -70 57 -123.5t143 -53.5q87 0 129.5 37.5t42.5 92.5q0 31 -12 53.5t-35 35.5t-43.5 20.5t-50.5 13.5q-10 2 -46.5 10t-47 10.5t-41.5 10.5t-41 12.5t-33.5 15t-32.5 19.5l-23.5 23.5t-20 30t-10.5 36t-5 44.5q0 97 66 147.5t183 50.5
q57 0 107.5 -22.5t80.5 -61.5v63h72v-200z" />
    <glyph glyph-name="afii10055" unicode="&#x406;" horiz-adv-x="344" 
d="M55 621v79h234v-79h-70v-542h70v-79h-234v79h70v542h-70z" />
    <glyph glyph-name="afii10056" unicode="&#x407;" horiz-adv-x="344" 
d="M47 772v79h94v-79h-94zM203 772v79h94v-79h-94zM55 621v79h234v-79h-70v-542h70v-79h-234v79h70v542h-70z" />
    <glyph glyph-name="afii10057" unicode="&#x408;" horiz-adv-x="553" 
d="M279 621v79h239v-79h-70v-379q0 -139 -48.5 -201t-162.5 -62q-214 0 -214 217v36h94q0 -88 27 -131t94 -43q69 0 92.5 44t23.5 131v388h-75z" />
    <glyph glyph-name="afii10058" unicode="&#x409;" horiz-adv-x="1060" 
d="M441 0v79h70v542h-236v-178q0 -239 -74 -350.5t-196 -92.5v82q82 -10 129 80.5t47 286.5v172h-81v79h575v-79h-70v-206h178q30 0 58.5 -4t65 -17t62.5 -34.5t44.5 -60.5t18.5 -90q0 -52 -19 -91.5t-46.5 -61t-63.5 -35t-64 -17.5t-54 -4h-344zM605 336v-257h176
q11 0 24.5 1.5t38.5 9t44 20t33.5 38.5t14.5 61q0 59 -42 93t-126 34h-163z" />
    <glyph glyph-name="afii10059" unicode="&#x40a;" horiz-adv-x="1127" 
d="M508 0v79h70v256h-359v-256h70v-79h-234v79h70v542h-70v79h234v-79h-70v-206h359v206h-70v79h234v-79h-70v-206h178q30 0 58.5 -4t65 -17t62.5 -34.5t44.5 -60.5t18.5 -90q0 -52 -19 -91.5t-46.5 -61t-63.5 -35t-64 -17.5t-54 -4h-344zM672 336v-257h176q11 0 24.5 1.5
t38.5 9t44 20t33.5 38.5t14.5 61q0 59 -42 93t-126 34h-163z" />
    <glyph glyph-name="afii10060" unicode="&#x40b;" horiz-adv-x="876" 
d="M628 700v-230h-79v151h-183v-227q51 9 141 9q124 0 181.5 -46.5t57.5 -152.5v-125h70v-79h-164v192q0 73 -38 102.5t-125 29.5q-42 0 -123 -9v-236h70v-79h-234v79h70v542h-183v-171h-79v250h618z" />
    <glyph glyph-name="afii10061" unicode="&#x40c;" horiz-adv-x="655" 
d="M249 360l218 261h-52v79h217v-79h-58l-214 -256l228 -286h62v-79h-229v79h52zM219 621v-542h70v-79h-234v79h70v542h-70v79h234v-79h-70zM380 900h112l-102 -140h-84z" />
    <glyph glyph-name="afii10062" unicode="&#x40e;" horiz-adv-x="651" 
d="M5 621v79h232v-79h-57l170 -342l130 342h-59v79h225v-79h-68l-263 -621h-160v79h110l37 95l-234 447h-63zM126 900h86q13 -78 101 -78t101 78h86q-11 -75 -63.5 -107.5t-123.5 -32.5t-123.5 32.5t-63.5 107.5z" />
    <glyph glyph-name="afii10145" unicode="&#x40f;" horiz-adv-x="790" 
d="M501 621v79h234v-79h-70v-542h70v-79h-295v-189h-90v189h-295v79h70v542h-70v79h234v-79h-70v-542h352v542h-70z" />
    <glyph glyph-name="afii10017" unicode="&#x410;" horiz-adv-x="706" 
d="M471 0v79h65l-37 102h-296l-37 -102h64v-79h-230v79h70l205 542h-78v79h208l235 -621h66v-79h-235zM229 260h244l-122 346z" />
    <glyph glyph-name="afii10018" unicode="&#x411;" horiz-adv-x="713" 
d="M55 621v79h567v-210h-79v131h-324v-210h196q29 0 54 -2t64.5 -14t66.5 -32t47.5 -60.5t20.5 -96.5q0 -37 -13.5 -71.5t-41 -66t-78.5 -50t-118 -18.5h-362v79h70v542h-70zM219 332v-253h192q66 0 113.5 31t47.5 98q0 124 -166 124h-187z" />
    <glyph glyph-name="afii10019" unicode="&#x412;" horiz-adv-x="711" 
d="M55 621v79h377q61 0 104 -15.5t64.5 -43t31 -56.5t9.5 -63q0 -56 -34 -99t-83 -51v-3q25 -4 48 -14t46.5 -29t38 -53t14.5 -78q0 -195 -250 -195h-366v79h70v542h-70zM219 324v-245h195q24 0 42.5 2t42 9t39 20t26.5 36.5t11 56.5q0 121 -161 121h-195zM219 621v-218h189
q72 0 104.5 30.5t32.5 78.5q0 18 -5 34.5t-18 34.5t-41.5 29t-69.5 11h-192z" />
    <glyph glyph-name="afii10020" unicode="&#x413;" horiz-adv-x="576" 
d="M55 621v79h511v-250h-79v171h-268v-542h70v-79h-234v79h70v542h-70z" />
    <glyph glyph-name="afii10021" unicode="&#x414;" horiz-adv-x="770" 
d="M114 621v79h585v-79h-70v-542h101l-9 -237h-82v158h-539v-158h-82l-8 237h63q133 166 133 477v65h-92zM300 621v-87q0 -145 -25.5 -252t-90.5 -203h351v542h-235z" />
    <glyph glyph-name="afii10022" unicode="&#x415;" horiz-adv-x="665" 
d="M624 490h-79v131h-326v-220h279v-79h-279v-243h337v141h79v-220h-580v79h70v542h-70v79h569v-210z" />
    <glyph glyph-name="afii10024" unicode="&#x416;" horiz-adv-x="969" 
d="M439 79v542h-62v79h215v-79h-62v-542h62v-79h-215v79h62zM560 366l188 255h-56v79h226v-79h-63l-195 -249l222 -293h82v-79h-136zM221 621l188 -255l-268 -366h-136v79h82l222 293l-195 249h-63v79h226v-79h-56z" />
    <glyph glyph-name="afii10025" unicode="&#x417;" horiz-adv-x="649" 
d="M45 215h94q12 -157 199 -157q94 0 134.5 41.5t40.5 97.5q0 132 -160 132h-92v79h83q19 0 36.5 2.5t44.5 12t43.5 34t16.5 62.5q0 42 -19.5 69.5t-51.5 37.5t-51 13t-39 3q-16 0 -36.5 -4.5t-50 -17t-53.5 -44t-33 -76.5h-79v200h77v-69q64 90 195 90q114 0 175.5 -51
t61.5 -145q0 -58 -32.5 -100t-86.5 -52v-2q147 -34 147 -183q0 -38 -12 -72.5t-40 -66.5t-82.5 -51t-130.5 -19q-288 0 -299 236z" />
    <glyph glyph-name="afii10026" unicode="&#x418;" horiz-adv-x="811" 
d="M55 621v79h234v-79h-70v-484l373 563h164v-79h-70v-542h70v-79h-234v79h70v488l-373 -567h-164v79h70v542h-70z" />
    <glyph glyph-name="afii10027" unicode="&#x419;" horiz-adv-x="811" 
d="M55 621v79h234v-79h-70v-484l373 563h164v-79h-70v-542h70v-79h-234v79h70v488l-373 -567h-164v79h70v542h-70zM218 900h86q13 -78 101 -78t101 78h86q-11 -75 -63.5 -107.5t-123.5 -32.5t-123.5 32.5t-63.5 107.5z" />
    <glyph glyph-name="afii10028" unicode="&#x41a;" horiz-adv-x="655" 
d="M249 360l218 261h-52v79h217v-79h-58l-214 -256l228 -286h62v-79h-229v79h52zM219 621v-542h70v-79h-234v79h70v542h-70v79h234v-79h-70z" />
    <glyph glyph-name="afii10029" unicode="&#x41b;" horiz-adv-x="730" 
d="M441 0v79h70v542h-236v-178q0 -239 -74 -350.5t-196 -92.5v82q82 -10 129 80.5t47 286.5v172h-81v79h575v-79h-70v-542h70v-79h-234z" />
    <glyph glyph-name="afii10030" unicode="&#x41c;" horiz-adv-x="990" 
d="M701 0v79h70v485l2 27h-3l-237 -591h-76l-238 591h-2l2 -27v-485h70v-79h-234v79h70v542h-70v79h214l229 -581l229 581h208v-79h-70v-542h70v-79h-234z" />
    <glyph glyph-name="afii10031" unicode="&#x41d;" horiz-adv-x="797" 
d="M508 0v79h70v250h-359v-250h70v-79h-234v79h70v542h-70v79h234v-79h-70v-213h359v213h-70v79h234v-79h-70v-542h70v-79h-234z" />
    <glyph glyph-name="afii10032" unicode="&#x41e;" horiz-adv-x="758" 
d="M45 350q0 179 91.5 275t242.5 96q49 0 94.5 -11t90 -38t77 -68t52.5 -106.5t20 -147.5q0 -75 -17 -135.5t-41.5 -98.5t-60 -65.5t-65.5 -41t-65.5 -21t-52 -8.5t-32.5 -1q-17 0 -33.5 1t-52 8.5t-65.5 21t-65.5 41t-60 65.5t-41 98.5t-16.5 135.5zM145 350q0 -39 5 -74.5
t20 -76.5t40 -71t68.5 -50t100.5 -20q15 0 28.5 1t38.5 7.5t45.5 17.5t44 33t39.5 51.5t27 76.5t11 105q0 131 -59 211.5t-175 80.5q-61 0 -106.5 -24t-69 -56.5t-37.5 -76.5t-17.5 -74.5t-3.5 -60.5z" />
    <glyph glyph-name="afii10033" unicode="&#x41f;" horiz-adv-x="790" 
d="M501 0v79h70v542h-352v-542h70v-79h-234v79h70v542h-70v79h680v-79h-70v-542h70v-79h-234z" />
    <glyph glyph-name="afii10034" unicode="&#x420;" horiz-adv-x="675" 
d="M55 621v79h337q114 0 184.5 -51t70.5 -152q0 -98 -67 -158t-198 -60h-163v-200h70v-79h-234v79h70v542h-70zM219 621v-263h159q84 0 128.5 36.5t44.5 102.5q0 60 -45.5 92t-127.5 32h-159z" />
    <glyph glyph-name="afii10035" unicode="&#x421;" horiz-adv-x="712" 
d="M652 490h-79q-2 23 -12 46t-31.5 48.5t-63 41.5t-98.5 16q-63 0 -108.5 -25t-69.5 -69t-34.5 -94.5t-10.5 -111.5q0 -125 64 -204.5t173 -79.5q83 0 138.5 49t59.5 125h94q-4 -34 -13.5 -65t-31.5 -66.5t-53 -61.5t-82.5 -43t-115.5 -17q-156 0 -244.5 95.5t-88.5 263.5
q0 76 15 138t37 101t54.5 68t60.5 43t61.5 22t51.5 9.5t37 1.5q142 0 216 -93v72h74v-210z" />
    <glyph glyph-name="afii10036" unicode="&#x422;" horiz-adv-x="638" 
d="M202 0v79h70v542h-183v-171h-79v250h618v-250h-79v171h-183v-542h70v-79h-234z" />
    <glyph glyph-name="afii10037" unicode="&#x423;" horiz-adv-x="651" 
d="M5 621v79h232v-79h-57l170 -342l130 342h-59v79h225v-79h-68l-263 -621h-160v79h110l37 95l-234 447h-63z" />
    <glyph glyph-name="afii10038" unicode="&#x424;" horiz-adv-x="886" 
d="M326 668v72h234v-72h-70v-41h39q42 0 80 -5t83 -22.5t77.5 -45.5t54.5 -79t22 -118q0 -51 -13 -93t-34 -69.5t-50 -48.5t-57.5 -32t-61 -17.5t-55.5 -8.5t-46 -2h-39v-42h70v-71h-234v71h70v42h-39q-20 0 -37 1t-51.5 6.5t-62 15.5t-60 30t-54.5 47.5t-37 71.5t-15 99
q0 25 3.5 50.5t21.5 68t49.5 73.5t94.5 54.5t148 23.5h39v41h-70zM490 157h27q229 0 229 200q0 199 -229 199h-27v-399zM396 157v399h-26q-64 0 -110.5 -17t-69 -38.5t-34.5 -53.5t-14 -50t-2 -40q0 -23 2 -42t14.5 -50.5t35 -53t68.5 -38t110 -16.5h26z" />
    <glyph glyph-name="afii10039" unicode="&#x425;" horiz-adv-x="672" 
d="M20 621v79h231v-79h-55l139 -196l138 196h-55v79h232v-79h-63l-192 -263l209 -279h63v-79h-234v79h54l-152 212l-148 -212h52v-79h-234v79h65l205 279l-193 263h-62z" />
    <glyph glyph-name="afii10040" unicode="&#x426;" horiz-adv-x="806" 
d="M55 621v79h234v-79h-70v-542h355v542h-70v79h234v-79h-70v-542h98l-7 -237h-82v158h-622v79h70v542h-70z" />
    <glyph glyph-name="afii10041" unicode="&#x427;" horiz-adv-x="708" 
d="M419 0v79h70v227q-72 -9 -160 -9q-124 0 -181.5 46.5t-57.5 152.5v125h-70v79h234v-79h-70v-113q0 -73 38 -102.5t125 -29.5q61 0 142 9v236h-70v79h234v-79h-70v-542h70v-79h-234z" />
    <glyph glyph-name="afii10042" unicode="&#x428;" horiz-adv-x="1098" 
d="M55 621v79h230v-79h-66v-542h283v542h-66v79h226v-79h-66v-542h283v542h-66v79h230v-79h-70v-542h70v-79h-988v79h70v542h-70z" />
    <glyph glyph-name="afii10043" unicode="&#x429;" horiz-adv-x="1117" 
d="M813 621v79h230v-79h-70v-542h104l-9 -237h-82v158h-931v79h70v542h-70v79h230v-79h-66v-542h283v542h-66v79h226v-79h-66v-542h283v542h-66z" />
    <glyph glyph-name="afii10044" unicode="&#x42a;" horiz-adv-x="783" 
d="M164 0v79h70v542h-145v-171h-79v250h388v-79h-70v-206h178q30 0 58.5 -4t65 -17t62.5 -34.5t44.5 -60.5t18.5 -90q0 -52 -19 -91.5t-46.5 -61t-63.5 -35t-64 -17.5t-54 -4h-344zM328 336v-257h176q11 0 24.5 1.5t38.5 9t44 20t33.5 38.5t14.5 61q0 59 -42 93t-126 34
h-163z" />
    <glyph glyph-name="afii10045" unicode="&#x42b;" horiz-adv-x="958" 
d="M669 621v79h234v-79h-70v-542h70v-79h-229v79h65v542h-70zM55 621v79h234v-79h-70v-206h172q30 0 58.5 -4t65 -17t62.5 -34.5t44.5 -60.5t18.5 -90q0 -52 -19 -91.5t-46.5 -61t-63.5 -35t-64 -17.5t-54 -4h-338v79h70v542h-70zM219 336v-257h170q11 0 24.5 1.5t38.5 9
t44 20t33.5 38.5t14.5 61q0 59 -42 93t-126 34h-157z" />
    <glyph glyph-name="afii10046" unicode="&#x42c;" horiz-adv-x="674" 
d="M55 621v79h234v-79h-70v-206h178q30 0 58.5 -4t65 -17t62.5 -34.5t44.5 -60.5t18.5 -90q0 -52 -19 -91.5t-46.5 -61t-63.5 -35t-64 -17.5t-54 -4h-344v79h70v542h-70zM219 336v-257h176q11 0 24.5 1.5t38.5 9t44 20t33.5 38.5t14.5 61q0 59 -42 93t-126 34h-163z" />
    <glyph glyph-name="afii10047" unicode="&#x42d;" horiz-adv-x="719" 
d="M244 401h330q0 22 -3 46.5t-16.5 61t-35.5 64.5t-65 48.5t-100 20.5q-85 0 -140.5 -47t-64.5 -105h-79v210h75v-82q33 48 91 75.5t128 27.5q310 0 310 -363q0 -49 -6 -93.5t-27 -99t-55.5 -93.5t-96.5 -66t-145 -27q-63 0 -114 17.5t-83 44.5t-55 63.5t-33 70t-14 68.5
h94q3 -21 9 -41.5t21.5 -47.5t37 -47.5t58.5 -34.5t83 -14q52 0 93 16t64.5 40t39 56.5t21.5 60.5t8 58q2 17 0 33h-330v79z" />
    <glyph glyph-name="afii10048" unicode="&#x42e;" horiz-adv-x="1033" 
d="M55 621v79h229v-79h-65v-213h115q4 60 25 114t58.5 99.5t99.5 72.5t141 27q149 0 239.5 -96t90.5 -275q0 -79 -18.5 -144.5t-57 -117t-103.5 -80.5t-151 -29q-74 0 -132 21.5t-93 55.5t-58 81.5t-32.5 93.5t-12.5 98h-111v-250h65v-79h-229v79h70v542h-70zM659 58
q58 0 101 20t67 50t38.5 71.5t18.5 76.5t4 74q0 74 -17 130t-41.5 85.5t-58 48t-59.5 23.5t-53 5q-26 0 -52 -5t-59.5 -23t-58 -48t-42 -86t-17.5 -130q0 -60 12 -110.5t37.5 -92.5t71.5 -65.5t108 -23.5z" />
    <glyph glyph-name="afii10049" unicode="&#x42f;" horiz-adv-x="730" 
d="M441 0v79h70v199h-164l-156 -278h-152v79h88l123 210q-29 4 -56.5 14t-59.5 31t-51.5 61.5t-19.5 95.5q0 92 65.5 150.5t191.5 58.5h355v-79h-70v-542h70v-79h-234zM511 621h-191q-84 0 -122.5 -40t-38.5 -91q0 -53 40 -93t134 -40h178v264z" />
    <glyph glyph-name="afii10065" unicode="&#x430;" horiz-adv-x="569" 
d="M390 0v72q-25 -46 -72 -69t-102 -23q-84 0 -131.5 38t-47.5 115q0 71 52 109.5t197 51.5q66 4 80 13q19 14 19 57q0 102 -114 102q-135 0 -132 -108h-84q0 29 9 56t31 54t67 43.5t109 16.5q36 0 67.5 -6.5t64.5 -23t52 -53t18 -88.5v-295h64v-62h-147zM385 224v36
q-9 -7 -21.5 -11t-22.5 -5.5t-31.5 -4t-36.5 -4.5q-6 -1 -22.5 -3.5t-22.5 -3.5t-20.5 -4t-20 -5.5t-16 -7t-15 -9t-11.5 -11t-9.5 -14.5t-5 -18.5t-2.5 -22.5q0 -44 27 -69t71 -25q62 0 110.5 44.5t48.5 137.5z" />
    <glyph glyph-name="afii10066" unicode="&#x431;" horiz-adv-x="592" 
d="M449 733h75q-2 -38 -21.5 -62.5t-52 -35.5t-64.5 -15.5t-73 -8.5t-63 -10q-65 -18 -102.5 -65.5t-39.5 -144.5h2q48 129 197 129q121 0 181.5 -79.5t60.5 -194.5q0 -51 -14.5 -97.5t-43.5 -85t-78.5 -61t-113.5 -22.5q-50 0 -90.5 14t-66.5 36t-45.5 54t-29.5 62
t-15.5 66.5t-7 60t-1.5 50.5q0 97 15 164.5t44.5 105.5t62.5 57t78 29q42 10 85.5 15.5t64 7t36 8.5t20.5 23zM136 240q0 -33 7 -64t23 -63t50 -51.5t81 -19.5q77 0 118 52t41 142q0 37 -5.5 69.5t-20.5 70t-49 60t-84 22.5t-84.5 -22t-50 -58.5t-21 -69t-5.5 -68.5z" />
    <glyph glyph-name="afii10067" unicode="&#x432;" horiz-adv-x="558" 
d="M40 446v62h298q24 0 49 -4.5t55 -16t48.5 -37.5t18.5 -63q0 -87 -92 -119v-3q111 -29 111 -126q0 -38 -18 -66.5t-48 -43.5t-61.5 -22t-65.5 -7h-295v62h66v384h-66zM194 234v-172h129q114 0 114 78q0 94 -117 94h-126zM194 446v-150h122q56 0 80 23t24 55q0 72 -100 72
h-126z" />
    <glyph glyph-name="afii10068" unicode="&#x433;" horiz-adv-x="456" 
d="M40 446v62h411v-180h-62v118h-195v-384h66v-62h-220v62h66v384h-66z" />
    <glyph glyph-name="afii10069" unicode="&#x434;" horiz-adv-x="605" 
d="M76 446v62h487v-62h-66v-384h88l-7 -194h-74v132h-417v-132h-74l-8 194h64q83 122 83 361v23h-76zM234 446v-71q0 -81 -17.5 -168t-54.5 -145h247v384h-175z" />
    <glyph glyph-name="afii10070" unicode="&#x435;" horiz-adv-x="570" 
d="M438 147h84q-12 -67 -64.5 -117t-157.5 -50q-52 0 -93.5 13t-67.5 32.5t-45.5 47.5t-29 52t-14.5 53t-6 44t-1 30q0 29 3 56.5t17 70t38.5 73t73.5 53.5t116 23q58 0 101.5 -18t67.5 -44t39 -65.5t20 -71t7 -70.5q0 -4 0.5 -12.5t0.5 -12.5h-391q0 -75 40.5 -133.5
t120.5 -58.5q60 0 96 29.5t45 75.5zM136 296h298q-1 30 -7.5 56t-20.5 53.5t-43 44t-70 16.5q-46 0 -79 -17t-49 -44.5t-22.5 -54t-6.5 -54.5z" />
    <glyph glyph-name="afii10072" unicode="&#x436;" horiz-adv-x="768" 
d="M486 508v-62h-58v-384h58v-62h-204v62h58v384h-58v62h204zM450 261l143 185h-51v62h200v-62h-57l-147 -178l163 -206h67v-62h-117zM175 446l143 -185l-201 -261h-117v62h67l163 206l-147 178h-57v62h200v-62h-51z" />
    <glyph glyph-name="afii10073" unicode="&#x437;" horiz-adv-x="499" 
d="M32 156h84q0 -48 35 -81t100 -33q60 0 96 25t36 75q0 91 -115 91h-75v62h65q106 0 106 79q0 14 -3.5 26.5t-13.5 29t-35 26.5t-62 10q-54 0 -90.5 -33.5t-40.5 -74.5h-67v150h64v-41h3q52 61 147 61q106 0 153 -47q36 -36 36 -93q0 -49 -28 -80.5t-60 -38.5v-3
q44 -7 75.5 -39.5t31.5 -90.5q0 -27 -9 -52t-31 -49.5t-67 -39.5t-109 -15q-56 0 -98 13t-65 32t-38 45t-19.5 45.5t-5.5 40.5z" />
    <glyph glyph-name="afii10074" unicode="&#x438;" horiz-adv-x="658" 
d="M40 62h66v384h-66v62h220v-62h-66v-343l260 405h164v-62h-66v-384h66v-62h-220v62h66v344l-259 -406h-165v62z" />
    <glyph glyph-name="afii10075" unicode="&#x439;" horiz-adv-x="658" 
d="M40 62h66v384h-66v62h220v-62h-66v-343l260 405h164v-62h-66v-384h66v-62h-220v62h66v344l-259 -406h-165v62zM323 623q85 0 96 77h78q-11 -64 -55.5 -99t-118.5 -35t-118.5 35t-55.5 99h78q11 -77 96 -77z" />
    <glyph glyph-name="afii10076" unicode="&#x43a;" horiz-adv-x="543" 
d="M194 446v-384h66v-62h-220v62h66v384h-66v62h220v-62h-66zM219 266l152 180h-49v62h198v-62h-58l-152 -177l166 -207h67v-62h-116z" />
    <glyph glyph-name="afii10077" unicode="&#x43b;" horiz-adv-x="591" 
d="M331 0v62h66v384h-172v-99q0 -60 -4 -108t-17.5 -100t-36 -84t-62.5 -48.5t-94 -6.5v65q29 -6 51 3.5t36 32.5t23.5 50.5t14 64t6 66.5t1.5 65v99h-76v62h484v-62h-66v-384h66v-62h-220z" />
    <glyph glyph-name="afii10078" unicode="&#x43c;" horiz-adv-x="800" 
d="M760 62v-62h-212v62h58v322l3 27h-3l-172 -411h-68l-172 411h-2l2 -27v-322h58v-62h-212v62h66v384h-66v62h190l173 -413l173 413h184v-62h-66v-384h66z" />
    <glyph glyph-name="afii10079" unicode="&#x43d;" horiz-adv-x="645" 
d="M385 0v62h66v175h-257v-175h66v-62h-220v62h66v384h-66v62h220v-62h-66v-147h257v147h-66v62h220v-62h-66v-384h66v-62h-220z" />
    <glyph glyph-name="afii10080" unicode="&#x43e;" horiz-adv-x="586" 
d="M43 254q0 53 13.5 100t41.5 87t78 63.5t117 23.5t117 -23.5t78 -63.5t41.5 -87t13.5 -100t-13.5 -100t-41.5 -87t-78 -63.5t-117 -23.5t-117 23.5t-78 63.5t-41.5 87t-13.5 100zM136 255q0 -58 13 -100.5t30.5 -63t42 -33t39.5 -14.5t32 -2t32 2t39.5 14.5t42 33t30.5 63
t13 100.5t-13 100.5t-30.5 63t-42 33t-39.5 14.5t-32 2t-32 -2t-39.5 -14.5t-42 -33t-30.5 -63t-13 -100.5z" />
    <glyph glyph-name="afii10081" unicode="&#x43f;" horiz-adv-x="640" 
d="M380 0v62h66v384h-252v-384h66v-62h-220v62h66v384h-66v62h560v-62h-66v-384h66v-62h-220z" />
    <glyph glyph-name="afii10082" unicode="&#x440;" horiz-adv-x="631" 
d="M40 446v62h148v-70h3q60 90 168 90q100 0 164.5 -69t64.5 -205q0 -138 -65.5 -206t-161.5 -68q-13 0 -29.5 2.5t-43.5 10.5t-52.5 28.5t-41.5 51.5v-196h66v-62h-220v62h66v569h-66zM188 252q0 -107 48.5 -158.5t108.5 -51.5q62 0 106 50.5t44 161.5q0 100 -40.5 156
t-114.5 56q-17 0 -33.5 -3.5t-39 -17t-39 -35t-28.5 -62.5t-12 -96z" />
    <glyph glyph-name="afii10083" unicode="&#x441;" horiz-adv-x="552" 
d="M496 348h-67q-20 118 -144 118q-77 0 -113 -57t-36 -151t39 -155t118 -61q67 0 99.5 43t35.5 96h84q-2 -22 -7.5 -44.5t-21 -52t-38 -51.5t-63 -37.5t-91.5 -15.5q-16 0 -30 1t-41 7t-48.5 16t-46.5 31t-42 49.5t-28.5 73t-11.5 100.5q0 39 6 74t22.5 72t42 63.5
t69.5 43.5t100 17q103 0 148 -66h3v46h62v-160z" />
    <glyph glyph-name="afii10084" unicode="&#x442;" horiz-adv-x="490" 
d="M135 0v62h66v384h-134v-118h-62v180h480v-180h-62v118h-134v-384h66v-62h-220z" />
    <glyph glyph-name="afii10085" unicode="&#x443;" horiz-adv-x="558" 
d="M-10 446v62h231v-62h-62l139 -349l114 349h-64v62h220v-62h-69l-236 -631h-140v62h87l43 123l-196 446h-67z" />
    <glyph glyph-name="afii10086" unicode="&#x444;" horiz-adv-x="788" 
d="M284 638v62h154v-180q39 1 77.5 -4t82 -22t75.5 -44.5t53.5 -77.5t21.5 -115q0 -122 -74 -194t-236 -76v-110h66v-62h-220v62h66v110q-87 2 -149.5 24.5t-96 61.5t-49 84t-15.5 100q0 34 6 66t25.5 70.5t52 66t91 45t135.5 15.5v118h-66zM350 49v409q-37 2 -71.5 -5.5
t-69 -27.5t-55.5 -63t-21 -104q0 -52 15.5 -91.5t38.5 -61.5t54 -35t56.5 -17t52.5 -4zM438 458v-409q64 0 109.5 20t67.5 53t31 66t9 70q0 24 -4 48.5t-18.5 54.5t-37 52t-63 35t-94.5 10z" />
    <glyph glyph-name="afii10087" unicode="&#x445;" horiz-adv-x="539" 
d="M322 0v62h55l-107 149l-106 -149h55v-62h-214v62h63l152 203l-141 181h-53v62h207v-62h-56l93 -128l91 128h-52v62h203v-62h-55l-137 -181l157 -203h57v-62h-212z" />
    <glyph glyph-name="afii10088" unicode="&#x446;" horiz-adv-x="646" 
d="M40 446v62h220v-62h-66v-384h256v384h-66v62h220v-62h-66v-384h88l-7 -194h-74v132h-505v62h66v384h-66z" />
    <glyph glyph-name="afii10089" unicode="&#x447;" horiz-adv-x="576" 
d="M316 0v62h66v150q-54 -5 -118 -5q-57 0 -96 12t-57 35t-25 46t-7 53v93h-66v62h220v-62h-66v-84q0 -47 21.5 -70t93.5 -23q60 0 100 5v172h-66v62h220v-62h-66v-384h66v-62h-220z" />
    <glyph glyph-name="afii10090" unicode="&#x448;" horiz-adv-x="900" 
d="M40 446v62h216v-62h-62v-384h212v384h-62v62h212v-62h-62v-384h212v384h-62v62h216v-62h-66v-384h66v-62h-820v62h66v384h-66z" />
    <glyph glyph-name="afii10091" unicode="&#x449;" horiz-adv-x="900" 
d="M644 446v62h216v-62h-66v-384h86l-8 -194h-74v132h-758v62h66v384h-66v62h216v-62h-62v-384h212v384h-62v62h212v-62h-62v-384h212v384h-62z" />
    <glyph glyph-name="afii10092" unicode="&#x44a;" horiz-adv-x="611" 
d="M106 0v62h66v384h-105v-118h-62v180h321v-62h-66v-139h123q208 0 208 -150q0 -82 -57.5 -119.5t-132.5 -37.5h-295zM260 245v-183h119q20 0 38.5 3.5t38.5 13t32 29.5t12 49q0 88 -137 88h-103z" />
    <glyph glyph-name="afii10093" unicode="&#x44b;" horiz-adv-x="772" 
d="M512 446v62h220v-62h-66v-384h66v-62h-154v446h-66zM40 446v62h220v-62h-66v-139h109q208 0 208 -150q0 -82 -57.5 -119.5t-132.5 -37.5h-281v62h66v384h-66zM194 245v-183h105q20 0 38.5 3.5t38.5 13t32 29.5t12 49q0 88 -137 88h-89z" />
    <glyph glyph-name="afii10094" unicode="&#x44c;" horiz-adv-x="545" 
d="M40 446v62h220v-62h-66v-139h123q208 0 208 -150q0 -82 -57.5 -119.5t-132.5 -37.5h-295v62h66v384h-66zM194 245v-183h119q20 0 38.5 3.5t38.5 13t32 29.5t12 49q0 88 -137 88h-103z" />
    <glyph glyph-name="afii10095" unicode="&#x44d;" horiz-adv-x="553" 
d="M198 233v62h219q-2 55 -18.5 92.5t-41.5 52.5t-44 20.5t-38 5.5q-67 0 -106 -33t-44 -85h-67v160h64v-48h3q57 68 158 68q32 0 58.5 -4.5t59.5 -21t55.5 -45t38 -82t15.5 -125.5q0 -270 -241 -270q-27 0 -48.5 2t-54.5 13t-56 30.5t-44 58t-29 92.5h84q17 -134 148 -134
q40 0 69 16t43.5 37t23.5 50.5t10.5 48.5t1.5 39h-219z" />
    <glyph glyph-name="afii10096" unicode="&#x44e;" horiz-adv-x="815" 
d="M40 446v62h220v-62h-66v-147h87q4 44 19.5 82.5t43 72.5t74.5 54t107 20q107 0 177 -67t70 -206q0 -77 -24 -133t-53.5 -82t-70.5 -41t-60 -17t-37 -2q-68 0 -117 23.5t-75 64t-38.5 81.5t-15.5 88h-87v-175h66v-62h-220v62h66v384h-66zM374 255q0 -36 5 -67t19.5 -67
t47.5 -57.5t81 -21.5q31 0 56 10t40.5 24.5t27 36.5t16.5 40t8 42t3.5 34.5t0.5 25.5q0 14 -0.5 25.5t-3.5 35t-8.5 41t-16.5 39.5t-26.5 36t-40.5 24t-56 10q-16 0 -31 -2t-39 -14t-40.5 -32.5t-29.5 -63t-13 -99.5z" />
    <glyph glyph-name="afii10097" unicode="&#x44f;" horiz-adv-x="577" 
d="M317 0v62h66v138h-116l-126 -200h-127v62h71l93 140q-55 11 -93 48t-38 101q0 27 8.5 52t27.5 50t56.5 40t88.5 15h309v-62h-66v-384h66v-62h-220zM383 446h-123q-122 0 -122 -95q0 -38 28.5 -63.5t96.5 -25.5h120v184z" />
    <glyph glyph-name="afii10071" unicode="&#x451;" horiz-adv-x="570" 
d="M438 147h84q-12 -67 -64.5 -117t-157.5 -50q-52 0 -93.5 13t-67.5 32.5t-45.5 47.5t-29 52t-14.5 53t-6 44t-1 30q0 29 3 56.5t17 70t38.5 73t73.5 53.5t116 23q58 0 101.5 -18t67.5 -44t39 -65.5t20 -71t7 -70.5q0 -4 0.5 -12.5t0.5 -12.5h-391q0 -75 40.5 -133.5
t120.5 -58.5q60 0 96 29.5t45 75.5zM136 296h298q-1 30 -7.5 56t-20.5 53.5t-43 44t-70 16.5q-46 0 -79 -17t-49 -44.5t-22.5 -54t-6.5 -54.5zM142 608v92h88v-92h-88zM340 608v92h88v-92h-88z" />
    <glyph glyph-name="afii10099" unicode="&#x452;" horiz-adv-x="588" 
d="M26 586h80v52h-66v62h154v-114h210v-54h-210v-147q57 91 167 91q108 0 147.5 -69t39.5 -227q0 -35 -0.5 -58t-3 -56.5t-6.5 -56t-12 -51t-19.5 -47t-29 -38t-40 -31t-52.5 -19.5t-67 -8v65h22q21 0 38.5 6.5t29 21.5t20 29t13.5 41t8 43.5t4.5 52t1.5 50.5v53v56.5
t-2 48.5t-6.5 45.5t-13 34.5t-21 29.5t-31.5 15.5t-44 7q-34 0 -60.5 -12.5t-41.5 -31t-25 -43.5t-13 -47t-3 -45v-173h66v-62h-220v62h66v470h-80v54z" />
    <glyph glyph-name="afii10100" unicode="&#x453;" horiz-adv-x="456" 
d="M40 446v62h411v-180h-62v118h-195v-384h66v-62h-220v62h66v384h-66zM261 700h106l-96 -132h-80z" />
    <glyph glyph-name="afii10101" unicode="&#x454;" horiz-adv-x="552" 
d="M496 348h-67q-20 118 -144 118q-134 0 -148 -171h232v-62h-232q4 -84 43 -137.5t113 -53.5q67 0 99.5 43t35.5 96h84q-2 -22 -7.5 -44.5t-21 -52t-38 -51.5t-63 -37.5t-91.5 -15.5q-16 0 -30 1t-41 7t-48.5 16t-46.5 31t-42 49.5t-28.5 73t-11.5 100.5q0 39 6 74t22.5 72
t42 63.5t69.5 43.5t100 17q103 0 148 -66h3v46h62v-160z" />
    <glyph glyph-name="afii10102" unicode="&#x455;" horiz-adv-x="524" 
d="M390 508h59v-140h-62q-2 11 -8 25t-19 32t-39 29.5t-60 11.5q-11 0 -22 -1.5t-32.5 -7.5t-35 -24.5t-13.5 -46.5q0 -13 3.5 -24t7.5 -18.5t14.5 -14.5t16 -11t21.5 -8.5t22.5 -6t26.5 -6t26 -5.5q91 -21 134.5 -52t43.5 -100q0 -44 -17 -76t-39 -47.5t-54 -24.5
t-49.5 -10.5t-36.5 -1.5q-45 0 -88.5 17t-67.5 53h-3v-50h-62v175h62q6 -60 46.5 -96.5t98.5 -36.5q119 0 119 89q0 21 -4.5 34t-29 29.5t-70.5 27.5l-54 12q-77 17 -117.5 47.5t-40.5 100.5q0 75 52.5 110.5t130.5 35.5q44 0 81.5 -16.5t55.5 -43.5h3v40z" />
    <glyph glyph-name="afii10103" unicode="&#x456;" horiz-adv-x="300" 
d="M40 446v62h154v-446h66v-62h-220v62h66v384h-66zM106 608v92h88v-92h-88z" />
    <glyph glyph-name="afii10104" unicode="&#x457;" horiz-adv-x="300" 
d="M13 608v92h88v-92h-88zM152 608v92h88v-92h-88zM40 446v62h154v-446h66v-62h-220v62h66v384h-66z" />
    <glyph glyph-name="afii10105" unicode="&#x458;" horiz-adv-x="262" 
d="M38 446v62h154v-555q0 -72 -26.5 -107t-93.5 -35q-9 0 -57 4v62q19 3 30.5 5t22.5 6.5t16 5t10 8t6.5 9t2.5 14t1 16.5v23v482h-66zM104 608v92h88v-92h-88z" />
    <glyph glyph-name="afii10106" unicode="&#x459;" horiz-adv-x="836" 
d="M331 0v62h66v384h-172v-99q0 -60 -4 -108t-17.5 -100t-36 -84t-62.5 -48.5t-94 -6.5v65q29 -6 51 3.5t36 32.5t23.5 50.5t14 64t6 66.5t1.5 65v99h-76v62h484v-62h-66v-139h123q208 0 208 -150q0 -82 -57.5 -119.5t-132.5 -37.5h-295zM485 245v-183h119q20 0 38.5 3.5
t38.5 13t32 29.5t12 49q0 88 -137 88h-103z" />
    <glyph glyph-name="afii10107" unicode="&#x45a;" horiz-adv-x="890" 
d="M385 0v62h66v183h-257v-183h66v-62h-220v62h66v384h-66v62h220v-62h-66v-139h257v139h-66v62h220v-62h-66v-139h123q208 0 208 -150q0 -82 -57.5 -119.5t-132.5 -37.5h-295zM539 245v-183h119q20 0 38.5 3.5t38.5 13t32 29.5t12 49q0 88 -137 88h-103z" />
    <glyph glyph-name="afii10108" unicode="&#x45b;" horiz-adv-x="626" 
d="M586 0h-154v259v28t-1.5 28t-5 30.5t-10.5 25t-18 23.5t-27.5 13.5t-38.5 6.5q-16 0 -31 -3.5t-35.5 -15t-35 -31t-25 -55.5t-10.5 -84v-163h66v-62h-220v62h66v470h-80v54h80v52h-66v62h154v-114h210v-54h-210v-147q59 91 165 91q161 0 161 -190v-224h66v-62z" />
    <glyph glyph-name="afii10109" unicode="&#x45c;" horiz-adv-x="543" 
d="M194 446v-384h66v-62h-220v62h66v384h-66v62h220v-62h-66zM219 266l152 180h-49v62h198v-62h-58l-152 -177l166 -207h67v-62h-116zM316 700h106l-96 -132h-80z" />
    <glyph glyph-name="afii10110" unicode="&#x45e;" horiz-adv-x="558" 
d="M-10 446v62h231v-62h-62l139 -349l114 349h-64v62h220v-62h-69l-236 -631h-140v62h87l43 123l-196 446h-67zM283 623q85 0 96 77h78q-11 -64 -55.5 -99t-118.5 -35t-118.5 35t-55.5 99h78q11 -77 96 -77z" />
    <glyph glyph-name="afii10193" unicode="&#x45f;" horiz-adv-x="640" 
d="M380 446v62h220v-62h-66v-384h66v-62h-241v-185h-78v185h-241v62h66v384h-66v62h220v-62h-66v-384h252v384h-66z" />
    <glyph glyph-name="afii10146" unicode="&#x462;" horiz-adv-x="783" 
d="M164 631v69h230v-69h-70v-47h254v-148h-79v79h-175v-123h182q249 0 249 -195q0 -52 -19.5 -90.5t-46 -58t-64 -31.5t-63.5 -14.5t-54 -2.5h-344v79h70v436h-145v-161h-79v230h224v47h-70zM324 318v-245h180q17 0 34 2.5t49 12.5t52 38t20 71q0 121 -168 121h-167z" />
    <glyph glyph-name="afii10194" unicode="&#x463;" horiz-adv-x="612" 
d="M107 638v62h154v-192h196v-150h-62v88h-134v-139h123q208 0 208 -150q0 -82 -57.5 -119.5t-132.5 -37.5h-295v62h66v384h-106v-118h-62v180h168v130h-66zM261 245v-183h119q20 0 38.5 3.5t38.5 13t32 29.5t12 49q0 88 -137 88h-103z" />
    <glyph glyph-name="afii10147" unicode="&#x472;" horiz-adv-x="758" 
d="M45 350q0 179 91.5 275t242.5 96q49 0 94.5 -11t90 -38t77 -68t52.5 -106.5t20 -147.5q0 -75 -17 -135.5t-41.5 -98.5t-60 -65.5t-65.5 -41t-65.5 -21t-52 -8.5t-32.5 -1q-17 0 -33.5 1t-52 8.5t-65.5 21t-65.5 41t-60 65.5t-41 98.5t-16.5 135.5zM379 58q21 0 41.5 2.5
t55.5 17t61 40t48 77.5t27 123h-466q2 -47 13.5 -88.5t36.5 -82.5t72 -65t111 -24zM379 642q-53 0 -94.5 -18t-65.5 -44.5t-40.5 -63.5t-23 -67t-9.5 -62h466q-9 116 -67.5 185.5t-165.5 69.5z" />
    <glyph glyph-name="afii10195" unicode="&#x473;" horiz-adv-x="586" 
d="M43 254q0 53 13.5 100t41.5 87t78 63.5t117 23.5t117 -23.5t78 -63.5t41.5 -87t13.5 -100t-13.5 -100t-41.5 -87t-78 -63.5t-117 -23.5t-117 23.5t-78 63.5t-41.5 87t-13.5 100zM293 42q15 0 29.5 2t37.5 12.5t40 28.5t31.5 54.5t17.5 86.5h-312q3 -50 17.5 -86.5
t31 -54.5t40 -28.5t37.5 -12.5t30 -2zM293 468q-15 0 -29.5 -2t-37.5 -12.5t-40 -28t-31.5 -53.5t-17.5 -84h311q-4 48 -18 84t-31 53.5t-39.5 28t-37 12.5t-29.5 2z" />
    <glyph glyph-name="afii10148" unicode="&#x474;" horiz-adv-x="684" 
d="M289 0l-222 621h-67v79h234v-79h-63l176 -524l125 435q16 56 37.5 92.5t47.5 53t48.5 22.5t51.5 6q43 0 78 -10v-82q-32 11 -66 11q-40 0 -65.5 -21.5t-44.5 -81.5l-158 -522h-112z" />
    <glyph glyph-name="afii10196" unicode="&#x475;" horiz-adv-x="541" 
d="M273 88l82 284q23 82 57.5 111t97.5 29q26 0 53 -4v-66q-19 5 -40 5q-20 0 -32.5 -3.5t-29.5 -24t-28 -58.5l-111 -361h-102l-167 446h-63v62h215v-62h-57z" />
    <glyph glyph-name="afii10050" unicode="&#x490;" horiz-adv-x="566" 
d="M55 621v79h422v158h79v-237h-337v-542h70v-79h-234v79h70v542h-70z" />
    <glyph glyph-name="afii10098" unicode="&#x491;" horiz-adv-x="444" 
d="M40 446v62h327v133h72v-195h-245v-384h66v-62h-220v62h66v384h-66z" />
    <glyph glyph-name="uni1E9E" unicode="&#x1e9e;" horiz-adv-x="703" 
d="M601 599l-173 -199q61 0 107 -15.5t69.5 -36.5t37.5 -51.5t17.5 -52t3.5 -45.5q0 -97 -66.5 -154.5t-167.5 -57.5q-74 0 -111 13v79q37 -13 103 -13q33 0 63 9.5t56.5 42t26.5 84.5q0 61 -40 95t-142 34h-52v78l162 190q-41 43 -109 43q-40 0 -70 -10t-47.5 -30
t-28.5 -39.5t-15 -50t-5 -48t-1 -47.5v-417h-164v79h70v350q0 292 265 292q84 0 137.5 -35t73.5 -87z" />
    <glyph glyph-name="uni2010" unicode="&#x2010;" horiz-adv-x="371" 
d="M50 230v79h271v-79h-271z" />
    <glyph glyph-name="uni2011" unicode="&#x2011;" horiz-adv-x="371" 
d="M50 230v79h271v-79h-271z" />
    <glyph glyph-name="figuredash" unicode="&#x2012;" horiz-adv-x="600" 
d="M50 400h500v-79h-500v79z" />
    <glyph glyph-name="endash" unicode="&#x2013;" horiz-adv-x="600" 
d="M50 309h500v-79h-500v79z" />
    <glyph glyph-name="emdash" unicode="&#x2014;" horiz-adv-x="984" 
d="M50 230v79h884v-79h-884z" />
    <glyph glyph-name="afii00208" unicode="&#x2015;" horiz-adv-x="984" 
d="M50 230v79h884v-79h-884z" />
    <glyph glyph-name="quoteleft" unicode="&#x2018;" horiz-adv-x="311" 
d="M205 462h-99v140q0 53 30.5 81t68.5 36v-55q-21 -2 -35.5 -20.5t-14.5 -41.5v-31h50v-109z" />
    <glyph glyph-name="quoteright" unicode="&#x2019;" horiz-adv-x="311" 
d="M106 700h99v-140q0 -53 -30.5 -81t-68.5 -36v55q21 2 35.5 20.5t14.5 41.5v31h-50v109z" />
    <glyph glyph-name="quotesinglbase" unicode="&#x201a;" horiz-adv-x="311" 
d="M106 109h99v-140q0 -53 -30.5 -81t-68.5 -36v55q21 2 35.5 20.5t14.5 41.5v31h-50v109z" />
    <glyph glyph-name="quotedblleft" unicode="&#x201c;" horiz-adv-x="422" 
d="M343 462h-99v141q0 48 28.5 78t70.5 39v-54q-50 -15 -50 -63v-32h50v-109zM178 462h-99v141q0 48 28.5 78t70.5 39v-54q-50 -15 -50 -63v-32h50v-109z" />
    <glyph glyph-name="quotedblright" unicode="&#x201d;" horiz-adv-x="422" 
d="M79 700h99v-141q0 -48 -28.5 -78t-70.5 -39v54q50 15 50 63v32h-50v109zM244 700h99v-141q0 -48 -28.5 -78t-70.5 -39v54q50 15 50 63v32h-50v109z" />
    <glyph glyph-name="quotedblbase" unicode="&#x201e;" horiz-adv-x="422" 
d="M79 109h99v-140q0 -47 -23.5 -75t-75.5 -42v55q21 4 35.5 21t14.5 41v31h-50v109zM244 109h99v-140q0 -91 -99 -117v55q21 4 35.5 21t14.5 41v31h-50v109z" />
    <glyph glyph-name="dagger" unicode="&#x2020;" horiz-adv-x="500" 
d="M15 374v200h59v-66h136v133h-66v59h212v-59h-66v-133h136v66h59v-200h-59v66h-136v-625h-80v625h-136v-66h-59z" />
    <glyph glyph-name="daggerdbl" unicode="&#x2021;" horiz-adv-x="500" 
d="M15 382v192h59v-66h136v133h-66v59h212v-59h-66v-133h136v66h59v-192h-59v58h-136v-192h136v52h59v-192h-59v72h-136v-305h66v-60h-212v60h66v305h-136v-72h-59v192h59v-52h136v192h-136v-58h-59z" />
    <glyph glyph-name="bullet" unicode="&#x2022;" horiz-adv-x="600" 
d="M200 350q0 42 29 71t71 29t71 -29t29 -71t-29 -71t-71 -29q-43 0 -71.5 28.5t-28.5 71.5z" />
    <glyph glyph-name="ellipsis" unicode="&#x2026;" horiz-adv-x="931" 
d="M106 0v109h99v-109h-99zM416 0v109h99v-109h-99zM726 0v109h99v-109h-99z" />
    <glyph glyph-name="perthousand" unicode="&#x2030;" horiz-adv-x="1298" 
d="M530 192q0 27 6 56t22 64t51 57.5t85 22.5q76 0 120 -53.5t44 -146.5q0 -58 -17 -100t-44 -62.5t-52.5 -29t-50.5 -8.5q-61 0 -112.5 48t-51.5 152zM594 192q0 -75 30.5 -111t69.5 -36q41 0 70.5 36t29.5 111q0 63 -24.5 105t-75.5 42q-26 0 -45.5 -12.5t-29.5 -29
t-16 -39t-7.5 -37.5t-1.5 -29zM917 192q0 31 7.5 62.5t24 64t51 53t81.5 20.5q76 0 120 -53.5t44 -146.5q0 -58 -17 -100t-44 -62.5t-52.5 -29t-50.5 -8.5q-24 0 -49 8.5t-52.5 29t-45 62.5t-17.5 100zM981 192q0 -78 31 -112.5t69 -34.5t69 34.5t31 112.5q0 59 -24 103
t-76 44q-31 0 -52 -16t-31 -41.5t-13.5 -47t-3.5 -42.5zM53 513q0 58 17.5 100t45 62.5t52.5 29t49 8.5t49 -8.5t52.5 -29t45 -62.5t17.5 -100q0 -31 -7.5 -62.5t-24 -64t-51 -53t-81.5 -20.5t-81.5 20.5t-51 53t-24 64t-7.5 62.5zM117 513q0 -21 3.5 -43t13.5 -47t31 -41
t52 -16t52 16t31 41t13.5 47t3.5 43q0 78 -31 112.5t-69 34.5t-69 -34.5t-31 -112.5zM202 0l454 700h58l-454 -700h-58z" />
    <glyph glyph-name="guilsinglleft" unicode="&#x2039;" horiz-adv-x="286" 
d="M105 272l106 -90v-82l-149 131v82l149 131v-82z" />
    <glyph glyph-name="guilsinglright" unicode="&#x203a;" horiz-adv-x="286" 
d="M181 272l-106 90v82l149 -131v-82l-149 -131v82z" />
    <glyph glyph-name="fraction" unicode="&#x2044;" horiz-adv-x="100" 
d="M-206 0l454 700h58l-454 -700h-58z" />
    <glyph glyph-name="Euro" unicode="&#x20ac;" 
d="M339 721q40 0 83 -21t62 -58v58h74v-210h-79q-1 17 -5 35t-14 40t-24.5 38.5t-38.5 27.5t-55 11q-72 0 -117 -46q-49 -52 -54 -146h276l-24 -56h-257q-2 -34 -2 -50v-20q0 -13 1 -20h220l-24 -56h-190q3 -78 46.5 -134t125.5 -56q109 0 145 106h84q-9 -64 -60 -121
q-57 -64 -173 -64q-130 0 -199 82q-57 67 -68 187h-72l24 56h44q-1 7 -1 18v19q0 15 2 53h-69l24 56h50q9 121 85 201q67 70 180 70z" />
    <glyph glyph-name="uni20B4" unicode="&#x20b4;" 
d="M552 381h-534v59h362q55 37 55 101q0 115 -141 115q-83 0 -122 -43.5t-39 -112.5h-86v200h72v-54q26 35 75.5 55t104.5 20q28 0 53.5 -3t58 -14.5t56 -30t39.5 -52.5t16 -80q0 -62 -32 -101h62v-59zM18 332h534v-59h-381q-53 -41 -53 -105q0 -54 40 -85.5t118 -31.5
q44 0 82.5 15.5t68 59t29.5 109.5h89v-235h-74v76q-26 -47 -86.5 -72t-124.5 -25q-25 0 -50.5 3t-60 14.5t-59.5 30.5t-43 54.5t-18 83.5q0 59 34 108h-45v59z" />
    <glyph glyph-name="uni20B6" unicode="&#x20b6;" 
d="M45 357h70v264h-70v79h302q114 0 184.5 -51t70.5 -152q0 -97 -67 -155.5t-198 -58.5h-128v-52h176v-67h-176v-85h70v-79h-234v79h70v85h-70v67h70v53h-70v73zM209 621v-263h124q84 0 128.5 36.5t44.5 102.5q0 60 -45.5 92t-127.5 32h-124z" />
    <glyph glyph-name="uni20B6" unicode="&#x20cf;" 
d="M45 357h70v264h-70v79h302q114 0 184.5 -51t70.5 -152q0 -97 -67 -155.5t-198 -58.5h-128v-52h176v-67h-176v-85h70v-79h-234v79h70v85h-70v67h70v53h-70v73zM209 621v-263h124q84 0 128.5 36.5t44.5 102.5q0 60 -45.5 92t-127.5 32h-124z" />
    <glyph glyph-name="uni20B6" unicode="&#x20ce;" 
d="M45 357h70v264h-70v79h302q114 0 184.5 -51t70.5 -152q0 -97 -67 -155.5t-198 -58.5h-128v-52h176v-67h-176v-85h70v-79h-234v79h70v85h-70v67h70v53h-70v73zM209 621v-263h124q84 0 128.5 36.5t44.5 102.5q0 60 -45.5 92t-127.5 32h-124z" />
    <glyph glyph-name="uni20B6" unicode="&#x20cd;" 
d="M45 357h70v264h-70v79h302q114 0 184.5 -51t70.5 -152q0 -97 -67 -155.5t-198 -58.5h-128v-52h176v-67h-176v-85h70v-79h-234v79h70v85h-70v67h70v53h-70v73zM209 621v-263h124q84 0 128.5 36.5t44.5 102.5q0 60 -45.5 92t-127.5 32h-124z" />
    <glyph glyph-name="uni20B6" unicode="&#x20cc;" 
d="M45 357h70v264h-70v79h302q114 0 184.5 -51t70.5 -152q0 -97 -67 -155.5t-198 -58.5h-128v-52h176v-67h-176v-85h70v-79h-234v79h70v85h-70v67h70v53h-70v73zM209 621v-263h124q84 0 128.5 36.5t44.5 102.5q0 60 -45.5 92t-127.5 32h-124z" />
    <glyph glyph-name="uni20B6" unicode="&#x20cb;" 
d="M45 357h70v264h-70v79h302q114 0 184.5 -51t70.5 -152q0 -97 -67 -155.5t-198 -58.5h-128v-52h176v-67h-176v-85h70v-79h-234v79h70v85h-70v67h70v53h-70v73zM209 621v-263h124q84 0 128.5 36.5t44.5 102.5q0 60 -45.5 92t-127.5 32h-124z" />
    <glyph glyph-name="uni20B6" unicode="&#x20ca;" 
d="M45 357h70v264h-70v79h302q114 0 184.5 -51t70.5 -152q0 -97 -67 -155.5t-198 -58.5h-128v-52h176v-67h-176v-85h70v-79h-234v79h70v85h-70v67h70v53h-70v73zM209 621v-263h124q84 0 128.5 36.5t44.5 102.5q0 60 -45.5 92t-127.5 32h-124z" />
    <glyph glyph-name="uni20B6" unicode="&#x20c9;" 
d="M45 357h70v264h-70v79h302q114 0 184.5 -51t70.5 -152q0 -97 -67 -155.5t-198 -58.5h-128v-52h176v-67h-176v-85h70v-79h-234v79h70v85h-70v67h70v53h-70v73zM209 621v-263h124q84 0 128.5 36.5t44.5 102.5q0 60 -45.5 92t-127.5 32h-124z" />
    <glyph glyph-name="uni20B6" unicode="&#x20c8;" 
d="M45 357h70v264h-70v79h302q114 0 184.5 -51t70.5 -152q0 -97 -67 -155.5t-198 -58.5h-128v-52h176v-67h-176v-85h70v-79h-234v79h70v85h-70v67h70v53h-70v73zM209 621v-263h124q84 0 128.5 36.5t44.5 102.5q0 60 -45.5 92t-127.5 32h-124z" />
    <glyph glyph-name="uni20B6" unicode="&#x20c7;" 
d="M45 357h70v264h-70v79h302q114 0 184.5 -51t70.5 -152q0 -97 -67 -155.5t-198 -58.5h-128v-52h176v-67h-176v-85h70v-79h-234v79h70v85h-70v67h70v53h-70v73zM209 621v-263h124q84 0 128.5 36.5t44.5 102.5q0 60 -45.5 92t-127.5 32h-124z" />
    <glyph glyph-name="uni20B6" unicode="&#x20c6;" 
d="M45 357h70v264h-70v79h302q114 0 184.5 -51t70.5 -152q0 -97 -67 -155.5t-198 -58.5h-128v-52h176v-67h-176v-85h70v-79h-234v79h70v85h-70v67h70v53h-70v73zM209 621v-263h124q84 0 128.5 36.5t44.5 102.5q0 60 -45.5 92t-127.5 32h-124z" />
    <glyph glyph-name="uni20B6" unicode="&#x20c5;" 
d="M45 357h70v264h-70v79h302q114 0 184.5 -51t70.5 -152q0 -97 -67 -155.5t-198 -58.5h-128v-52h176v-67h-176v-85h70v-79h-234v79h70v85h-70v67h70v53h-70v73zM209 621v-263h124q84 0 128.5 36.5t44.5 102.5q0 60 -45.5 92t-127.5 32h-124z" />
    <glyph glyph-name="uni20B6" unicode="&#x20c4;" 
d="M45 357h70v264h-70v79h302q114 0 184.5 -51t70.5 -152q0 -97 -67 -155.5t-198 -58.5h-128v-52h176v-67h-176v-85h70v-79h-234v79h70v85h-70v67h70v53h-70v73zM209 621v-263h124q84 0 128.5 36.5t44.5 102.5q0 60 -45.5 92t-127.5 32h-124z" />
    <glyph glyph-name="uni20B6" unicode="&#x20c3;" 
d="M45 357h70v264h-70v79h302q114 0 184.5 -51t70.5 -152q0 -97 -67 -155.5t-198 -58.5h-128v-52h176v-67h-176v-85h70v-79h-234v79h70v85h-70v67h70v53h-70v73zM209 621v-263h124q84 0 128.5 36.5t44.5 102.5q0 60 -45.5 92t-127.5 32h-124z" />
    <glyph glyph-name="uni20B6" unicode="&#x20c2;" 
d="M45 357h70v264h-70v79h302q114 0 184.5 -51t70.5 -152q0 -97 -67 -155.5t-198 -58.5h-128v-52h176v-67h-176v-85h70v-79h-234v79h70v85h-70v67h70v53h-70v73zM209 621v-263h124q84 0 128.5 36.5t44.5 102.5q0 60 -45.5 92t-127.5 32h-124z" />
    <glyph glyph-name="uni20B6" unicode="&#x20c1;" 
d="M45 357h70v264h-70v79h302q114 0 184.5 -51t70.5 -152q0 -97 -67 -155.5t-198 -58.5h-128v-52h176v-67h-176v-85h70v-79h-234v79h70v85h-70v67h70v53h-70v73zM209 621v-263h124q84 0 128.5 36.5t44.5 102.5q0 60 -45.5 92t-127.5 32h-124z" />
    <glyph glyph-name="uni20B6" unicode="&#x20c0;" 
d="M45 357h70v264h-70v79h302q114 0 184.5 -51t70.5 -152q0 -97 -67 -155.5t-198 -58.5h-128v-52h176v-67h-176v-85h70v-79h-234v79h70v85h-70v67h70v53h-70v73zM209 621v-263h124q84 0 128.5 36.5t44.5 102.5q0 60 -45.5 92t-127.5 32h-124z" />
    <glyph glyph-name="uni20B6" unicode="&#x20bf;" 
d="M45 357h70v264h-70v79h302q114 0 184.5 -51t70.5 -152q0 -97 -67 -155.5t-198 -58.5h-128v-52h176v-67h-176v-85h70v-79h-234v79h70v85h-70v67h70v53h-70v73zM209 621v-263h124q84 0 128.5 36.5t44.5 102.5q0 60 -45.5 92t-127.5 32h-124z" />
    <glyph glyph-name="uni20B6" unicode="&#x20be;" 
d="M45 357h70v264h-70v79h302q114 0 184.5 -51t70.5 -152q0 -97 -67 -155.5t-198 -58.5h-128v-52h176v-67h-176v-85h70v-79h-234v79h70v85h-70v67h70v53h-70v73zM209 621v-263h124q84 0 128.5 36.5t44.5 102.5q0 60 -45.5 92t-127.5 32h-124z" />
    <glyph glyph-name="uni20B6" unicode="&#x20bd;" 
d="M45 357h70v264h-70v79h302q114 0 184.5 -51t70.5 -152q0 -97 -67 -155.5t-198 -58.5h-128v-52h176v-67h-176v-85h70v-79h-234v79h70v85h-70v67h70v53h-70v73zM209 621v-263h124q84 0 128.5 36.5t44.5 102.5q0 60 -45.5 92t-127.5 32h-124z" />
    <glyph glyph-name="uni20B6" unicode="&#x20bc;" 
d="M45 357h70v264h-70v79h302q114 0 184.5 -51t70.5 -152q0 -97 -67 -155.5t-198 -58.5h-128v-52h176v-67h-176v-85h70v-79h-234v79h70v85h-70v67h70v53h-70v73zM209 621v-263h124q84 0 128.5 36.5t44.5 102.5q0 60 -45.5 92t-127.5 32h-124z" />
    <glyph glyph-name="uni20B6" unicode="&#x20bb;" 
d="M45 357h70v264h-70v79h302q114 0 184.5 -51t70.5 -152q0 -97 -67 -155.5t-198 -58.5h-128v-52h176v-67h-176v-85h70v-79h-234v79h70v85h-70v67h70v53h-70v73zM209 621v-263h124q84 0 128.5 36.5t44.5 102.5q0 60 -45.5 92t-127.5 32h-124z" />
    <glyph glyph-name="uni20B6" unicode="&#x20ba;" 
d="M45 357h70v264h-70v79h302q114 0 184.5 -51t70.5 -152q0 -97 -67 -155.5t-198 -58.5h-128v-52h176v-67h-176v-85h70v-79h-234v79h70v85h-70v67h70v53h-70v73zM209 621v-263h124q84 0 128.5 36.5t44.5 102.5q0 60 -45.5 92t-127.5 32h-124z" />
    <glyph glyph-name="uni20B6" unicode="&#x20b9;" 
d="M45 357h70v264h-70v79h302q114 0 184.5 -51t70.5 -152q0 -97 -67 -155.5t-198 -58.5h-128v-52h176v-67h-176v-85h70v-79h-234v79h70v85h-70v67h70v53h-70v73zM209 621v-263h124q84 0 128.5 36.5t44.5 102.5q0 60 -45.5 92t-127.5 32h-124z" />
    <glyph glyph-name="uni20B6" unicode="&#x20b7;" 
d="M45 357h70v264h-70v79h302q114 0 184.5 -51t70.5 -152q0 -97 -67 -155.5t-198 -58.5h-128v-52h176v-67h-176v-85h70v-79h-234v79h70v85h-70v67h70v53h-70v73zM209 621v-263h124q84 0 128.5 36.5t44.5 102.5q0 60 -45.5 92t-127.5 32h-124z" />
    <glyph glyph-name="uni20B8" unicode="&#x20b8;" 
d="M173 0v79h70v417h-173v-161h-79v240h598v-240h-79v161h-173v-417h70v-79h-234zM-9 699h597v-68h-597v68z" />
    <glyph glyph-name="afii61352" unicode="&#x2116;" horiz-adv-x="1168" 
d="M795 535q0 29 7.5 58.5t24.5 59.5t51.5 49t81.5 19q76 0 120.5 -48.5t44.5 -137.5q0 -50 -15 -87t-34.5 -55t-45.5 -29t-41.5 -13t-28.5 -2q-23 0 -48 7.5t-53 26t-46 58t-18 94.5zM873 535q0 -59 24 -91t63 -32q26 0 45 13.5t27 35t11.5 39.5t3.5 35q0 23 -6 48.5
t-27 50t-54 24.5q-39 0 -63 -32t-24 -91zM808 193v74h304v-74h-304zM527 621v79h234v-79h-70v-621h-103l-369 560v-481h70v-79h-234v79h70v542h-70v79h174l368 -560v481h-70z" />
    <glyph glyph-name="trademark" unicode="&#x2122;" horiz-adv-x="1034" 
d="M808 350v55h38v168l4 45h-5l-103 -268h-52l-102 268h-5l4 -45v-168h38v-55h-171v55h58v240h-58v55h158l94 -241l9 -35h4l8 35l94 241h158v-55h-58v-240h58v-55h-171zM134 350v55h58v240h-82v-100h-55v155h349v-155h-55v100h-82v-240h58v-55h-191z" />
    <glyph glyph-name="partialdiff" unicode="&#x2202;" horiz-adv-x="595" 
d="M247 669l13 64q166 -17 243.5 -92t77.5 -190q0 -30 -2.5 -63t-10.5 -81t-21.5 -90.5t-38.5 -87t-58 -76.5t-83.5 -52.5t-111.5 -20.5q-58 0 -100 17.5t-63 40.5t-33 55t-14 50.5t-2 37.5q0 134 80.5 230.5t220.5 96.5q17 0 36 -3t46 -12t50 -32t34 -57h3q4 131 -76 195
q-35 27 -78.5 41.5t-111.5 28.5zM261 42q54 0 95.5 27t63.5 69t33 84.5t11 82.5q0 141 -125 141q-54 0 -95 -27t-63.5 -69.5t-33 -86t-10.5 -84.5q0 -44 13.5 -74t35.5 -42.5t39 -16.5t36 -4z" />
    <glyph glyph-name="product" unicode="&#x220f;" horiz-adv-x="790" 
d="M501 -185v79h70v727h-352v-727h70v-79h-234v79h70v727h-70v79h680v-79h-70v-727h70v-79h-234z" />
    <glyph glyph-name="summation" unicode="&#x2211;" horiz-adv-x="603" 
d="M55 -185v69l246 380l-230 365v71h486v-210h-79v131h-288l220 -357l-237 -370h321v141h79v-220h-518z" />
    <glyph glyph-name="minus" unicode="&#x2212;" horiz-adv-x="600" 
d="M50 386h500v-62h-500v62z" />
    <glyph glyph-name="uni2215" unicode="&#x2215;" horiz-adv-x="600" 
d="M44 0l454 700h58l-454 -700h-58z" />
    <glyph glyph-name="radical" unicode="&#x221a;" horiz-adv-x="668" 
d="M237 500l122 -427l115 756h168v-62h-118l-136 -867h-39l-162 538h-123v62h173z" />
    <glyph glyph-name="infinity" unicode="&#x221e;" horiz-adv-x="998" 
d="M460 352q-56 68 -98 95.5t-101 27.5q-60 0 -98 -32t-38 -91q0 -57 38 -91t104 -34q93 0 193 125zM499 308q-113 -143 -250 -143q-81 0 -135 52t-54 135q0 82 53 133.5t147 51.5q128 0 239 -142q111 142 238 142q93 0 146.5 -51.5t53.5 -133.5q0 -83 -54 -135t-135 -52
q-136 0 -249 143zM537 352q100 -125 193 -125q66 0 104 34t38 91q0 59 -38 91t-98 32q-59 0 -101 -27.5t-98 -95.5z" />
    <glyph glyph-name="integral" unicode="&#x222b;" horiz-adv-x="320" 
d="M-164 -98l19 58q33 -20 65 -20q44 0 65 26t30 85l86 516q14 84 45.5 129t101.5 45q51 0 101 -23l-21 -53q-28 21 -62 21q-53 0 -72.5 -29t-29.5 -90l-84 -505q-13 -88 -45.5 -133t-101.5 -45q-53 0 -97 18z" />
    <glyph glyph-name="approxequal" unicode="&#x2248;" horiz-adv-x="600" 
d="M89 388l-39 16q19 51 52 89.5t81 38.5q46 0 87 -23l103 -55q1 -1 7.5 -4t19.5 -6t25 -3q54 0 86 81l39 -16q-17 -50 -51 -89t-82 -39q-46 0 -87 23l-103 55q-28 13 -53 13q-28 0 -50.5 -23t-34.5 -58zM89 188l-39 16q19 51 52 89.5t81 38.5q46 0 87 -23l103 -55
q1 -1 7.5 -4t19.5 -6t25 -3q54 0 86 81l39 -16q-17 -50 -51 -89t-82 -39q-46 0 -87 23l-103 55q-28 13 -53 13q-28 0 -50.5 -23t-34.5 -58z" />
    <glyph glyph-name="notequal" unicode="&#x2260;" horiz-adv-x="600" 
d="M50 476h290l70 121l53 -31l-52 -90h139v-62h-174l-80 -138h254v-62h-290l-70 -121l-53 31l52 90h-139v62h174l80 138h-254v62z" />
    <glyph glyph-name="lessequal" unicode="&#x2264;" horiz-adv-x="600" 
d="M38 387v48l495 285l30 -54l-449 -255l449 -255l-30 -54zM38 227l30 54l495 -285l-30 -54z" />
    <glyph glyph-name="greaterequal" unicode="&#x2265;" horiz-adv-x="600" 
d="M562 387l-495 -285l-30 54l449 255l-449 255l30 54l495 -285v-48zM562 227l-495 -285l-30 54l495 285z" />
    <glyph glyph-name="lozenge" unicode="&#x25ca;" horiz-adv-x="420" 
d="M308 350l-98 214l-98 -214l98 -214zM370 350l-160 -350l-160 350l160 350z" />
    <glyph glyph-name="uniF400" unicode="&#xf400;" horiz-adv-x="2" 
d="M-267 700h106l-96 -132h-80z" />
    <glyph glyph-name="uniF401" unicode="&#xf401;" horiz-adv-x="2" 
d="M-360 900h112l-102 -140h-84z" />
    <glyph glyph-name="uniF406" unicode="&#xf406;" horiz-adv-x="466" 
d="M46 900h86q13 -78 101 -78t101 78h86q-11 -75 -63.5 -107.5t-123.5 -32.5t-123.5 32.5t-63.5 107.5z" />
    <glyph glyph-name="uniF407" unicode="&#xf407;" horiz-adv-x="298" 
d="M15 -248l19 61q22 -8 67 -8q69 0 69 40t-65 40h-29h-18l16 57h35q145 0 145 -97q0 -38 -31 -69.5t-108 -31.5q-42 0 -100 8z" />
    <glyph glyph-name="uniF408" unicode="&#xf408;" horiz-adv-x="492" 
d="M50 760l125 140h142l125 -140h-94l-102 105l-102 -105h-94z" />
    <glyph glyph-name="uniF409" unicode="&#xf409;" horiz-adv-x="199" 
d="M46 -60h107v-109q0 -86 -107 -107v59q24 3 39 16.5t15 31.5v12h-54v97z" />
    <glyph glyph-name="uniF40A" unicode="&#xf40a;" horiz-adv-x="199" 
d="M50 700h99v-140q0 -53 -30.5 -81t-68.5 -36v55q21 2 35.5 20.5t14.5 41.5v31h-50v109z" />
    <glyph glyph-name="uniF40B" unicode="&#xf40b;" horiz-adv-x="194" 
d="M50 772v79h94v-79h-94z" />
    <glyph glyph-name="uniF40C" unicode="&#xf40c;" horiz-adv-x="296" 
d="M50 828q0 42 28 70t70 28t70 -28t28 -70t-28 -70t-70 -28t-70 28t-28 70zM92 828q0 -23 16.5 -39.5t39.5 -16.5t39.5 16.5t16.5 39.5t-16.5 39.5t-39.5 16.5t-39.5 -16.5t-16.5 -39.5z" />
    <glyph glyph-name="uniF40D" unicode="&#xf40d;" horiz-adv-x="492" 
d="M388 875h65q-7 -48 -38 -81.5t-85 -33.5q-30 0 -84.5 27.5t-82.5 27.5q-48 0 -59 -44h-66q6 46 40 79t85 33q41 0 89.5 -27.5t75.5 -27.5q49 0 60 47z" />
    <glyph glyph-name="uniF40E" unicode="&#xf40e;" horiz-adv-x="350" 
d="M117 0h85q-29 -17 -46.5 -46t-17.5 -57q0 -25 11.5 -42t34.5 -17q22 0 33 16.5t11 35.5h74q-3 -46 -34.5 -80t-88.5 -34q-58 0 -94.5 27.5t-36.5 74.5q0 69 69 122z" />
    <glyph glyph-name="uniF410" unicode="&#xf410;" horiz-adv-x="2" 
d="M-426 900l75 -140h-84l-103 140h112z" />
    <glyph glyph-name="dollar.fitted" unicode="&#xf5f5;" horiz-adv-x="555" 
d="M20 235h89q0 -50 14.5 -87.5t38.5 -57t47 -29t47 -10.5v272q-122 28 -167.5 79t-45.5 124q0 46 15 81.5t37.5 56t52.5 33.5t56 17.5t52 4.5v58h59v-58q30 0 70.5 -19t60.5 -51v51h72v-200h-86q0 71 -32.5 111.5t-84.5 41.5v-254q71 -12 118.5 -36.5t68 -56t27.5 -57.5
t7 -57q0 -50 -17 -88.5t-41 -60.5t-56.5 -36t-57.5 -19t-49 -6v-75h-59v75q-58 2 -97 23.5t-65 70.5v-76h-74v235zM315 314v-263q60 -2 96 41.5t36 99.5q0 42 -23.5 70.5t-50.5 38.5t-58 13zM256 408v245q-45 0 -85.5 -29t-40.5 -95q0 -97 126 -121z" />
    <glyph glyph-name="Euro.fitted" unicode="&#xf5f6;" horiz-adv-x="613" 
d="M355 721q40 0 83 -21t62 -58v58h74v-210h-79q-1 17 -5 35t-14 40t-24.5 38.5t-38.5 27.5t-55 11q-72 0 -117 -46q-49 -52 -54 -146h276l-24 -56h-257q-2 -34 -2 -50v-20q0 -13 1 -20h220l-24 -56h-190q3 -78 46.5 -134t125.5 -56q109 0 145 106h84q-9 -64 -60 -121
q-57 -64 -173 -64q-130 0 -199 82q-57 67 -68 187h-72l24 56h44q-1 7 -1 18v19q0 15 2 53h-69l24 56h50q9 121 85 201q67 70 180 70z" />
    <glyph glyph-name="cent.fitted" unicode="&#xf5f7;" horiz-adv-x="500" 
d="M471 348h-67q-11 57 -42.5 83.5t-69.5 31.5v-419q55 7 81.5 48t29.5 89h84q-2 -27 -11 -54.5t-28.5 -61t-59.5 -56.5t-96 -28v-73h-59v74q-215 23 -215 276q0 47 9.5 88.5t31.5 82.5t66.5 67t107.5 31v67h59v-68q77 -11 114 -64h3v46h62v-160zM111 258q0 -82 30 -141
t92 -72v419q-122 -18 -122 -206z" />
    <glyph glyph-name="sterling.fitted" unicode="&#xf5f8;" horiz-adv-x="559" 
d="M488 106l44 -60q-33 -33 -62.5 -50t-69.5 -17q-38 0 -109 26t-97 26q-57 0 -108 -38l-45 65q101 71 101 167q0 25 -16 79h-104v61h73q-22 45 -30 73t-8 67q0 59 21.5 102.5t49 64.5t63.5 33t55 14t34 2q118 0 167 -78v57h74v-219h-89v33q0 58 -40.5 100t-100.5 42
q-67 0 -104.5 -44t-37.5 -113q0 -11 1 -20t3.5 -19.5t4.5 -16.5t7.5 -18t8 -17.5t11 -21t11.5 -21.5h141v-61h-117q9 -27 9 -62q0 -85 -65 -144l2 -6q26 11 73 11q28 0 86 -21.5t78 -21.5q48 0 85 46z" />
    <glyph glyph-name="yen.fitted" unicode="&#xf5f9;" horiz-adv-x="654" 
d="M157 200h124v42h-124v54h121l-201 325h-62v79h237v-79h-62l143 -255l141 255h-55v79h220v-79h-60l-202 -325h124v-54h-126v-42h126v-54h-126v-67h70v-79h-234v79h70v67h-124v54z" />
    <glyph glyph-name="florin.fitted" unicode="&#xf5fa;" horiz-adv-x="482" 
d="M438 508l-13 -62h-109l-103 -490q-17 -69 -37 -96q-36 -49 -114 -49q-27 0 -55 4l14 65q3 -1 14 -1q42 0 61 18t29 65l102 484h-93l13 62h93l15 69q27 123 162 123q35 0 62 -7l-12 -60q-25 5 -62 5q-50 0 -63 -69l-13 -61h109z" />
    <glyph glyph-name="uni20B4.fitted" unicode="&#xf5fb;" horiz-adv-x="588" 
d="M561 381h-534v59h362q55 37 55 101q0 115 -141 115q-83 0 -122 -43.5t-39 -112.5h-86v200h72v-54q26 35 75.5 55t104.5 20q28 0 53.5 -3t58 -14.5t56 -30t39.5 -52.5t16 -80q0 -62 -32 -101h62v-59zM27 332h534v-59h-381q-53 -41 -53 -105q0 -54 40 -85.5t118 -31.5
q44 0 82.5 15.5t68 59t29.5 109.5h89v-235h-74v76q-26 -47 -86.5 -72t-124.5 -25q-25 0 -50.5 3t-60 14.5t-59.5 30.5t-43 54.5t-18 83.5q0 59 34 108h-45v59z" />
    <glyph glyph-name="uni20B6.fitted" unicode="&#xf5fc;" horiz-adv-x="598" 
d="M32 357h70v264h-70v79h302q114 0 184.5 -51t70.5 -152q0 -97 -67 -155.5t-198 -58.5h-128v-52h176v-67h-176v-85h70v-79h-234v79h70v85h-70v67h70v53h-70v73zM196 621v-263h124q84 0 128.5 36.5t44.5 102.5q0 60 -45.5 92t-127.5 32h-124z" />
    <glyph glyph-name="uni20B8.fitted" unicode="&#xf5fd;" horiz-adv-x="626" 
d="M196 0v79h70v417h-173v-161h-79v240h598v-240h-79v161h-173v-417h70v-79h-234zM14 699h597v-68h-597v68z" />
    <glyph glyph-name="currency.fitted" unicode="&#xf5fe;" horiz-adv-x="751" 
d="M29 53l111 111q-52 75 -52 166q0 95 52 166l-111 112l66 66l110 -112q74 57 170 57q102 0 170 -57l111 112l66 -66l-111 -112q53 -72 53 -166q0 -90 -53 -166l111 -111l-66 -66l-111 111q-73 -56 -170 -56q-103 0 -170 56l-110 -111zM162 330q0 -88 62.5 -151t150.5 -63
q89 0 152 63.5t63 150.5q0 88 -63.5 151.5t-151.5 63.5q-87 0 -150 -63.5t-63 -151.5z" />
    <glyph glyph-name="numbersign.fitted" unicode="&#xf5ff;" horiz-adv-x="622" 
d="M123 10l27 179h-139l12 62h137l31 202h-139l12 62h137l28 179h61l-28 -179h150l28 179h61l-28 -179h138l-12 -62h-136l-31 -202h138l-12 -62h-136l-27 -179h-61l27 179h-150l-27 -179h-61zM252 453l-31 -202h150l31 202h-150z" />
    <glyph glyph-name="uniF639" unicode="&#xf639;" horiz-adv-x="539" 
d="M270 -21q-24 0 -46.5 3.5t-61.5 24.5t-66.5 57t-49 110.5t-21.5 175.5t21.5 175.5t49 110.5t66.5 57t61.5 24.5t46.5 3.5t46.5 -3.5t61.5 -24.5t66.5 -57t49 -110.5t21.5 -175.5t-21.5 -175.5t-49 -110.5t-66.5 -57t-61.5 -24.5t-46.5 -3.5zM270 58q79 0 115.5 81
t36.5 211t-36.5 211t-115.5 81t-115.5 -81t-36.5 -211t36.5 -211t115.5 -81z" />
    <glyph glyph-name="uniF63A" unicode="&#xf63a;" horiz-adv-x="532" 
d="M504 224v-224h-477q0 49 13 90.5t30 69.5t53 59.5t62.5 49.5t78.5 50q3 2 20 12.5t22 14t20.5 14.5t22 18t18.5 19t17 22.5t12 25t9.5 30t2.5 33.5q0 64 -38.5 99t-103.5 35q-67 0 -106 -38t-39 -101v-26h-92v21q0 23 4 47.5t19.5 57.5t40 58t70.5 42.5t106 17.5
q108 0 170 -56.5t62 -155.5q0 -40 -9 -70.5t-21.5 -53t-45 -50t-60.5 -46.5t-87 -57q-71 -45 -104 -79.5t-43 -73.5h294v145h79z" />
    <glyph glyph-name="uniF63B" unicode="&#xf63b;" horiz-adv-x="534" 
d="M22 213h90l3 -23q21 -136 146 -136q51 0 85 16t48.5 42.5t19 47t4.5 42.5q0 58 -34 92t-94 34h-70v76h25q15 0 28 1t38 7.5t42.5 18t31 36t13.5 58.5q0 50 -31.5 85.5t-105.5 35.5q-134 0 -134 -159h-87q0 25 2.5 48.5t15.5 59.5t35.5 62t67 45t105.5 19q55 0 98 -15
t66 -36t37.5 -49.5t19 -50t4.5 -41.5q0 -57 -33 -98.5t-85 -56.5v-2q57 -8 97.5 -55t40.5 -122q0 -100 -68.5 -158t-175.5 -58q-58 0 -103 16t-70.5 39.5t-42 56.5t-22.5 61.5t-7 60.5z" />
    <glyph glyph-name="uniF63C" unicode="&#xf63c;" horiz-adv-x="559" 
d="M337 162h-330v79l329 459h95v-459h110v-79h-110v-83h70v-79h-234v79h70v83zM97 241h240v336z" />
    <glyph glyph-name="uniF63D" unicode="&#xf63d;" horiz-adv-x="537" 
d="M401 621h-240l-28 -207q60 53 158 53t160 -64.5t62 -174.5t-65 -179.5t-189 -69.5q-64 0 -111 19.5t-72 51.5t-37.5 63.5t-15.5 65.5h92q2 -20 9.5 -39.5t22 -40t43.5 -33t67 -12.5q163 0 163 173q0 86 -44.5 125.5t-109.5 39.5q-38 0 -78 -16.5t-57 -44.5h-88l49 369
h388v-177h-79v98z" />
    <glyph glyph-name="uniF63E" unicode="&#xf63e;" horiz-adv-x="540" 
d="M507 546h-84q-24 100 -134 100q-170 0 -170 -259h2q54 74 171 74q99 0 162.5 -63.5t63.5 -171.5q0 -111 -64.5 -179t-176.5 -68q-61 0 -105 17.5t-78 58t-51 112t-17 174.5q0 77 12 139t29 100.5t43.5 67t49 42t51.5 21.5t44.5 9t34.5 1t36 -1.5t48.5 -11.5t55.5 -27
t46.5 -52t30.5 -83zM125 224q0 -71 40 -120.5t116 -49.5q72 0 108 50t36 123q0 68 -37.5 113.5t-108.5 45.5q-73 0 -113.5 -44t-40.5 -118z" />
    <glyph glyph-name="uniF63F" unicode="&#xf63f;" horiz-adv-x="538" 
d="M89 79h79q25 124 72 235q76 177 195 307h-330v-131h-79v210h501v-64q-121 -133 -194 -314q-49 -119 -68 -243h73v-79h-249v79z" />
    <glyph glyph-name="uniF640" unicode="&#xf640;" horiz-adv-x="518" 
d="M151 379q-47 17 -74 59.5t-27 94.5q0 31 9.5 61t31.5 60t65.5 48.5t103.5 18.5t103.5 -18.5t65.5 -48.5t31.5 -60t9.5 -61q0 -52 -27 -94.5t-74 -59.5q58 -15 92.5 -66.5t34.5 -114.5q0 -96 -60 -157.5t-176 -61.5t-176 61.5t-60 157.5q0 63 34.5 114.5t92.5 66.5z
M260 412q64 0 94 33t30 85q0 17 -4.5 34t-16 37t-38.5 32.5t-65 12.5t-65 -12.5t-38.5 -32.5t-16 -37t-4.5 -34q0 -52 30 -85t94 -33zM260 54q57 0 101.5 38t44.5 111q0 54 -34 95.5t-112 41.5t-112 -41.5t-34 -95.5q0 -73 44 -111t102 -38z" />
    <glyph glyph-name="uniF641" unicode="&#xf641;" horiz-adv-x="539" 
d="M34 154h84q24 -100 134 -100q170 0 170 259h-2q-54 -74 -171 -74q-99 0 -162 63.5t-63 171.5q0 111 64 179t176 68q41 0 73 -6.5t67 -29t58 -60.5t38 -106t15 -160q0 -380 -264 -380q-19 0 -36 1.5t-48.5 11.5t-55.5 27t-46.5 52t-30.5 83zM416 476q0 71 -40 120.5
t-116 49.5q-72 0 -109 -50t-37 -123q0 -69 38 -114t110 -45q73 0 113.5 44t40.5 118z" />
    <glyph glyph-name="uniF643" unicode="&#xf643;" 
d="M290 -20q-15 0 -29 1t-40.5 7t-48 16t-46 30.5t-41.5 48.5t-28.5 72t-11.5 99q0 75 21.5 130t49.5 81.5t67.5 42t61.5 18t45 2.5t45 -2.5t61.5 -18t67.5 -42t49.5 -81.5t21.5 -130t-21.5 -130t-49.5 -81.5t-67.5 -42t-61.5 -18t-45 -2.5zM290 55q76 0 114 51.5t38 147.5
t-38 147.5t-114 51.5t-114 -51.5t-38 -147.5t38 -147.5t114 -51.5z" />
    <glyph glyph-name="uniF644" unicode="&#xf644;" 
d="M133 429v79h204v-429h110v-79h-314v79h110v350h-110z" />
    <glyph glyph-name="uniF645" unicode="&#xf645;" 
d="M536 187v-187h-491q-1 26 7 49.5t18 40.5t32.5 36t36.5 29.5t47 27t46.5 23t50.5 22.5q82 35 108 56q36 33 37 77q0 41 -35.5 66.5t-107.5 25.5q-77 0 -112.5 -40t-35.5 -92v-16h-90v15q0 99 70 153.5t172 54.5q105 0 168.5 -41.5t63.5 -124.5q0 -70 -49.5 -113.5
t-153.5 -86.5q-109 -47 -132 -66q-10 -8 -14 -16h285v107h79z" />
    <glyph glyph-name="uniF646" unicode="&#xf646;" 
d="M45 21h90l3 -23q21 -136 146 -136q51 0 85 16t48.5 42.5t19 47t4.5 42.5q0 58 -34 92t-94 34h-70v76h25q15 0 28 1t38 7.5t42.5 18t31 36t13.5 58.5q0 50 -31.5 85.5t-105.5 35.5q-134 0 -134 -159h-87q0 25 2.5 48.5t15.5 59.5t35.5 62t67 45t105.5 19q55 0 98 -15
t66 -36t37.5 -49.5t19 -50t4.5 -41.5q0 -57 -33 -98.5t-85 -56.5v-2q57 -8 97.5 -55t40.5 -122q0 -100 -68.5 -158t-175.5 -58q-58 0 -103 16t-70.5 39.5t-42 56.5t-22.5 61.5t-7 60.5z" />
    <glyph glyph-name="uniF647" unicode="&#xf647;" 
d="M113 79h240v306zM353 0h-330v79l329 429h95v-429h110v-79h-110v-192h-94v192z" />
    <glyph glyph-name="uniF648" unicode="&#xf648;" 
d="M424 430h-240l-28 -207q60 53 158 53t160 -64.5t62 -174.5t-65 -179.5t-189 -69.5q-64 0 -111 19.5t-72 51.5t-37.5 63.5t-15.5 65.5h92q2 -20 9.5 -39.5t22 -40t43.5 -33t67 -12.5q163 0 163 173q0 86 -44.5 125.5t-109.5 39.5q-38 0 -78 -16.5t-57 -44.5h-88l49 369
h388v-177h-79v98z" />
    <glyph glyph-name="uniF649" unicode="&#xf649;" 
d="M525 546h-84q-24 100 -134 100q-170 0 -170 -259h2q54 74 171 74q99 0 162.5 -63.5t63.5 -171.5q0 -111 -64.5 -179t-176.5 -68q-61 0 -105 17.5t-78 58t-51 112t-17 174.5q0 77 12 139t29 100.5t43.5 67t49 42t51.5 21.5t44.5 9t34.5 1t36 -1.5t48.5 -11.5t55.5 -27
t46.5 -52t30.5 -83zM143 224q0 -71 40 -120.5t116 -49.5q72 0 108 50t36 123q0 68 -37.5 113.5t-108.5 45.5q-73 0 -113.5 -44t-40.5 -118z" />
    <glyph glyph-name="uniF64A" unicode="&#xf64a;" 
d="M540 508v-64q-121 -133 -194 -314q-58 -141 -77 -322h-100q21 167 84 314q76 177 195 307h-330v-131h-79v210h501z" />
    <glyph glyph-name="uniF64B" unicode="&#xf64b;" 
d="M181 379q-47 17 -74 59.5t-27 94.5q0 31 9.5 61t31.5 60t65.5 48.5t103.5 18.5t103.5 -18.5t65.5 -48.5t31.5 -60t9.5 -61q0 -52 -27 -94.5t-74 -59.5q58 -15 92.5 -66.5t34.5 -114.5q0 -96 -60 -157.5t-176 -61.5t-176 61.5t-60 157.5q0 63 34.5 114.5t92.5 66.5z
M290 412q64 0 94 33t30 85q0 17 -4.5 34t-16 37t-38.5 32.5t-65 12.5t-65 -12.5t-38.5 -32.5t-16 -37t-4.5 -34q0 -52 30 -85t94 -33zM290 54q57 0 101.5 38t44.5 111q0 54 -34 95.5t-112 41.5t-112 -41.5t-34 -95.5q0 -73 44 -111t102 -38z" />
    <glyph glyph-name="uniF64C" unicode="&#xf64c;" 
d="M54 -38h84q24 -100 134 -100q170 0 170 259h-2q-54 -74 -171 -74q-99 0 -162 63.5t-63 171.5q0 111 64 179t176 68q41 0 73 -6.5t67 -29t58 -60.5t38 -106t15 -160q0 -380 -264 -380q-19 0 -36 1.5t-48.5 11.5t-55.5 27t-46.5 52t-30.5 83zM436 284q0 71 -40 120.5
t-116 49.5q-72 0 -109 -50t-37 -123q0 -69 38 -114t110 -45q73 0 113.5 44t40.5 118z" />
    <glyph glyph-name="uniF6BA" unicode="&#xf6ba;" horiz-adv-x="371" 
d="M50 321v79h271v-79h-271z" />
    <glyph glyph-name="uniF6BB" unicode="&#xf6bb;" horiz-adv-x="600" 
d="M50 400h500v-79h-500v79z" />
    <glyph glyph-name="uniF6BC" unicode="&#xf6bc;" horiz-adv-x="984" 
d="M50 321v79h884v-79h-884z" />
    <glyph glyph-name="uniF6C3" unicode="&#xf6c3;" horiz-adv-x="199" 
d="M50 -60h99v-101q0 -78 -99 -99v55q21 2 35.5 14.5t14.5 29.5v11h-50v90z" />
    <glyph glyph-name="uniF6C9" unicode="&#xf6c9;" horiz-adv-x="322" 
d="M168 900h112l-102 -140h-84z" />
    <glyph glyph-name="uniF6CA" unicode="&#xf6ca;" horiz-adv-x="492" 
d="M317 760h-142l-125 140h94l102 -105l102 105h94z" />
    <glyph glyph-name="uniF6CB" unicode="&#xf6cb;" horiz-adv-x="410" 
d="M50 772v79h94v-79h-94zM266 772v79h94v-79h-94z" />
    <glyph glyph-name="uniF6CC" unicode="&#xf6cc;" horiz-adv-x="500" 
d="M60 782v79h94v-79h-94zM346 782v79h94v-79h-94zM239 900h112l-102 -140h-84z" />
    <glyph glyph-name="uniF6CE" unicode="&#xf6ce;" horiz-adv-x="323" 
d="M154 900l75 -140h-84l-103 140h112z" />
    <glyph glyph-name="uniF6CF" unicode="&#xf6cf;" horiz-adv-x="429" 
d="M120 900h106l-96 -140h-80zM273 900h106l-96 -140h-80z" />
    <glyph glyph-name="uniF6D0" unicode="&#xf6d0;" horiz-adv-x="416" 
d="M50 772v60h316v-60h-316z" />
    <glyph glyph-name="uniF6D1" unicode="&#xf6d1;" horiz-adv-x="466" 
d="M46 900h86q13 -78 101 -78t101 78h86q-11 -75 -63.5 -107.5t-123.5 -32.5t-123.5 32.5t-63.5 107.5z" />
    <glyph glyph-name="uniF6D4" unicode="&#xf6d4;" horiz-adv-x="444" 
d="M222 623q85 0 96 77h78q-11 -64 -55.5 -99t-118.5 -35t-118.5 35t-55.5 99h78q11 -77 96 -77z" />
    <glyph glyph-name="uniF6D7" unicode="&#xf6d7;" horiz-adv-x="500" 
d="M60 588v92h88v-92h-88zM352 588v92h88v-92h-88zM236 700h106l-96 -132h-80z" />
    <glyph glyph-name="uniF6DC" unicode="&#xf6dc;" horiz-adv-x="370" 
d="M25 621v79h214v-621h120v-79h-334v79h120v542h-120z" />
    <glyph glyph-name="uniF6DE" unicode="&#xf6de;" horiz-adv-x="738" 
d="M37 230v79h663v-79h-663z" />
    <glyph glyph-name="uniF730" unicode="&#xf730;" horiz-adv-x="562" 
d="M278 -20q-15 0 -29 1t-40.5 7t-48 16t-46 30.5t-41.5 48.5t-28.5 72t-11.5 99q0 75 21.5 130t49.5 81.5t67.5 42t61.5 18t45 2.5t45 -2.5t61.5 -18t67.5 -42t49.5 -81.5t21.5 -130t-21.5 -130t-49.5 -81.5t-67.5 -42t-61.5 -18t-45 -2.5zM278 55q76 0 114 51.5t38 147.5
t-38 147.5t-114 51.5t-114 -51.5t-38 -147.5t38 -147.5t114 -51.5z" />
    <glyph glyph-name="uniF731" unicode="&#xf731;" horiz-adv-x="439" 
d="M71 429v79h204v-429h110v-79h-314v79h110v350h-110z" />
    <glyph glyph-name="uniF732" unicode="&#xf732;" horiz-adv-x="587" 
d="M537 187v-187h-491q-1 26 7 49.5t18 40.5t32.5 36t36.5 29.5t47 27t46.5 23t50.5 22.5q82 35 108 56q36 33 37 77q0 41 -35.5 66.5t-107.5 25.5q-77 0 -112.5 -40t-35.5 -92v-16h-90v15q0 99 70 153.5t172 54.5q105 0 168.5 -41.5t63.5 -124.5q0 -70 -49.5 -113.5
t-153.5 -86.5q-109 -47 -132 -66q-10 -8 -14 -16h285v107h79z" />
    <glyph glyph-name="uniF733" unicode="&#xf733;" horiz-adv-x="570" 
d="M31 21h90l3 -23q21 -136 146 -136q51 0 85 16t48.5 42.5t19 47t4.5 42.5q0 58 -34 92t-94 34h-70v76h25q15 0 28 1t38 7.5t42.5 18t31 36t13.5 58.5q0 50 -31.5 85.5t-105.5 35.5q-134 0 -134 -159h-87q0 25 2.5 48.5t15.5 59.5t35.5 62t67 45t105.5 19q55 0 98 -15
t66 -36t37.5 -49.5t19 -50t4.5 -41.5q0 -57 -33 -98.5t-85 -56.5v-2q57 -8 97.5 -55t40.5 -122q0 -100 -68.5 -158t-175.5 -58q-58 0 -103 16t-70.5 39.5t-42 56.5t-22.5 61.5t-7 60.5z" />
    <glyph glyph-name="uniF734" unicode="&#xf734;" horiz-adv-x="572" 
d="M113 79h240v306zM353 0h-330v79l329 429h95v-429h110v-79h-110v-192h-94v192z" />
    <glyph glyph-name="uniF735" unicode="&#xf735;" 
d="M424 430h-240l-28 -207q60 53 158 53t160 -64.5t62 -174.5t-65 -179.5t-189 -69.5q-64 0 -111 19.5t-72 51.5t-37.5 63.5t-15.5 65.5h92q2 -20 9.5 -39.5t22 -40t43.5 -33t67 -12.5q163 0 163 173q0 86 -44.5 125.5t-109.5 39.5q-38 0 -78 -16.5t-57 -44.5h-88l49 369
h388v-177h-79v98z" />
    <glyph glyph-name="uniF736" unicode="&#xf736;" 
d="M525 546h-84q-24 100 -134 100q-170 0 -170 -259h2q54 74 171 74q99 0 162.5 -63.5t63.5 -171.5q0 -111 -64.5 -179t-176.5 -68q-61 0 -105 17.5t-78 58t-51 112t-17 174.5q0 77 12 139t29 100.5t43.5 67t49 42t51.5 21.5t44.5 9t34.5 1t36 -1.5t48.5 -11.5t55.5 -27
t46.5 -52t30.5 -83zM143 224q0 -71 40 -120.5t116 -49.5q72 0 108 50t36 123q0 68 -37.5 113.5t-108.5 45.5q-73 0 -113.5 -44t-40.5 -118z" />
    <glyph glyph-name="uniF737" unicode="&#xf737;" horiz-adv-x="521" 
d="M522 508v-64q-121 -133 -194 -314q-58 -141 -77 -322h-100q21 167 84 314q76 177 195 307h-330v-131h-79v210h501z" />
    <glyph glyph-name="uniF738" unicode="&#xf738;" 
d="M181 379q-47 17 -74 59.5t-27 94.5q0 31 9.5 61t31.5 60t65.5 48.5t103.5 18.5t103.5 -18.5t65.5 -48.5t31.5 -60t9.5 -61q0 -52 -27 -94.5t-74 -59.5q58 -15 92.5 -66.5t34.5 -114.5q0 -96 -60 -157.5t-176 -61.5t-176 61.5t-60 157.5q0 63 34.5 114.5t92.5 66.5z
M290 412q64 0 94 33t30 85q0 17 -4.5 34t-16 37t-38.5 32.5t-65 12.5t-65 -12.5t-38.5 -32.5t-16 -37t-4.5 -34q0 -52 30 -85t94 -33zM290 54q57 0 101.5 38t44.5 111q0 54 -34 95.5t-112 41.5t-112 -41.5t-34 -95.5q0 -73 44 -111t102 -38z" />
    <glyph glyph-name="uniF739" unicode="&#xf739;" 
d="M54 -38h84q24 -100 134 -100q170 0 170 259h-2q-54 -74 -171 -74q-99 0 -162 63.5t-63 171.5q0 111 64 179t176 68q41 0 73 -6.5t67 -29t58 -60.5t38 -106t15 -160q0 -380 -264 -380q-19 0 -36 1.5t-48.5 11.5t-55.5 27t-46.5 52t-30.5 83zM436 284q0 71 -40 120.5
t-116 49.5q-72 0 -109 -50t-37 -123q0 -69 38 -114t110 -45q73 0 113.5 44t40.5 118z" />
    <glyph glyph-name="NULL" horiz-adv-x="0" 
 />
    <glyph glyph-name="CR" horiz-adv-x="233" 
 />
    <glyph glyph-name="afii10099.alt01" horiz-adv-x="588" 
d="M26 508h80v130h-66v62h154v-192h210v-54h-210v-147q57 91 167 91q108 0 147.5 -69t39.5 -227q0 -45 -5 -82t-20 -76t-39.5 -66t-67 -44.5t-98.5 -18.5v65h22q115 0 115 219v56.5t-2 48.5t-6.5 45.5t-13 34.5t-21 29.5t-31.5 15.5t-44 7q-34 0 -60.5 -12.5t-41.5 -31
t-25 -43.5t-13 -47t-3 -45v-95h66v-62h-220v62h66v392h-80v54z" />
    <glyph glyph-name="afii10108.alt01" horiz-adv-x="626" 
d="M586 0h-154v181v28t-1.5 28t-5 30.5t-10.5 25t-18 23.5t-27.5 13.5t-38.5 6.5q-16 0 -31 -3.5t-35.5 -15t-35 -31t-25 -55.5t-10.5 -84v-85h66v-62h-220v62h66v392h-80v54h80v130h-66v62h154v-192h210v-54h-210v-147q59 91 165 91q161 0 161 -190v-146h66v-62z" />
    </font>
</defs>
</svg>
