<svg xmlns="http://www.w3.org/2000/svg" width="32" height="35.031" viewBox="0 0 32 35.031">
    <defs>
        <style>
            .cls-1{fill:#fff;fill-rule:evenodd}
        </style>
    </defs>
    <path id="Forma_1" d="M50.221 282.018h-6.053v-7.79a.78.78 0 0 0-.778-.782h-4.63A2.564 2.564 0 0 0 36.238 271a2.456 2.456 0 0 0-1.227.308 2.483 2.483 0 0 0-3.732 2.141h-4.668a.78.78 0 0 0-.778.782v7.79h-6.054a.781.781 0 0 0-.779.779v22.417a.78.78 0 0 0 .779.782h30.442a.78.78 0 0 0 .779-.782V282.8a.781.781 0 0 0-.779-.782zM33.1 272.805a.913.913 0 0 1 .654-.269h.01a.983.983 0 0 1 .691.294.776.776 0 0 0 1.1 0 .923.923 0 0 1 .664-.269 1.005 1.005 0 0 1 .984.989.921.921 0 0 1-.268.666l-1.879 1.889-1.93-1.94a.992.992 0 0 1-.293-.693.923.923 0 0 1 .267-.667zm-12.542 10.778h5.275v1.792h-3.194a.782.782 0 0 0 0 1.564h3.193v2.293h-3.193a.782.782 0 0 0 0 1.564h3.193v2.293h-3.193a.782.782 0 0 0 0 1.564h3.193v2.294h-3.193a.782.782 0 0 0 0 1.564h3.193v2.289h-3.193a.782.782 0 0 0 0 1.564h3.193v2.067h-5.274v-20.848zm15.085 20.852h-1.922v-3.9h1.921v3.9zm1.557 0v-4.686a.779.779 0 0 0-.778-.781h-3.479a.779.779 0 0 0-.778.781v4.686h-4.776v-29.426H31.8a2.473 2.473 0 0 0 .227.262l2.481 2.493a.776.776 0 0 0 1.1 0l2.43-2.442a2.463 2.463 0 0 0 .263-.312h4.308v29.425H37.2zm12.243 0h-5.275v-2.067h3.193a.782.782 0 0 0 0-1.564h-3.193v-2.293h3.193a.782.782 0 0 0 0-1.564h-3.193v-2.294h3.193a.782.782 0 0 0 0-1.564h-3.193V290.8h3.193a.782.782 0 0 0 0-1.564h-3.193v-2.293h3.193a.782.782 0 0 0 0-1.564h-3.193v-1.792h5.275v20.852zm-8.828-24.506H29.386a.782.782 0 0 0 0 1.564h11.229a.782.782 0 0 0 0-1.564zm0 3.857H29.386a.783.783 0 0 0 0 1.565h11.229a.783.783 0 0 0 0-1.565zm0 3.858H29.386a.782.782 0 0 0 0 1.564h11.229a.782.782 0 0 0 0-1.564zm0 3.858H29.386a.782.782 0 0 0 0 1.563h11.229a.782.782 0 0 0 0-1.565zm0 3.857H29.386a.782.782 0 0 0 0 1.564h11.229a.782.782 0 0 0 0-1.564z" class="cls-1" data-name="Forma 1" transform="translate(-19 -270.969)"/>
</svg>
