<svg xmlns="http://www.w3.org/2000/svg" width="63.25" height="63" viewBox="0 0 63.25 63">
  <defs>
    <style>
      .cls-1 {
        fill: #4acdcd;
        fill-rule: evenodd;
      }
    </style>
  </defs>
  <path id="Forma_1" data-name="Forma 1" class="cls-1" d="M841.34,127.661c0.087,2.881,1.615,4.75,4.255,5h0.173L862.961,133h0.174a9.371,9.371,0,0,0,6.209-2.12l0.086-.086L902.958,97.3a4.492,4.492,0,0,0,0-6.273L883.133,71.272A4.375,4.375,0,0,0,879.981,70h0a4.388,4.388,0,0,0-3.152,1.272L860.322,87.634a3.616,3.616,0,0,0-.512.6l-16.082,16.025A10.791,10.791,0,0,0,841,111.463Zm4.681-21.2,16.168-16.111a0.469,0.469,0,0,0,.174-0.251c0.086-.086.086-0.173,0.173-0.251L879.043,73.47a1.341,1.341,0,0,1,1.876,0l19.825,19.762a1.329,1.329,0,0,1,0,1.869l-33.528,33.408a6.555,6.555,0,0,1-4.081,1.358l-17.272-.337c-0.678-.087-1.277-0.424-1.363-1.948l-0.339-16.2A7.6,7.6,0,0,1,846.021,106.462Zm9.534,18.058a5.936,5.936,0,1,0-5.957-5.935A5.912,5.912,0,0,0,855.555,124.52Zm0-8.73a2.8,2.8,0,1,1-2.8,2.795A2.827,2.827,0,0,1,855.555,115.79Zm11.236-15.436a1.579,1.579,0,0,1,0-2.207L879.981,85a1.409,1.409,0,0,1,1.1-.424,1.8,1.8,0,0,1,1.1.424,1.581,1.581,0,0,1,0,2.206L869,100.354A1.584,1.584,0,0,1,866.791,100.354Zm1.7,9.154,18.044-17.979a1.408,1.408,0,0,1,1.1-.424,1.8,1.8,0,0,1,1.1.424,1.579,1.579,0,0,1,0,2.206L870.7,111.715A1.56,1.56,0,1,1,868.493,109.508Z" transform="translate(-841 -70)"/>
</svg>
